<svg width="654" height="555" viewBox="0 0 654 555" fill="none" xmlns="http://www.w3.org/2000/svg">
<g clip-path="url(#clip0_79_1509)">
<path d="M326.992 554.984C488.501 554.984 619.43 543.956 619.43 530.351C619.43 516.747 488.501 505.718 326.992 505.718C165.483 505.718 34.5542 516.747 34.5542 530.351C34.5542 543.956 165.483 554.984 326.992 554.984Z" fill="#EBEBEB"/>
<path d="M0 468.87L81.7559 468.495L163.496 468.355L326.992 468.089L490.504 468.355L572.244 468.495L654 468.87L572.244 469.261L490.504 469.401L326.992 469.651L163.496 469.386L81.7559 469.261L0 468.87Z" fill="#263238"/>
<path d="M128.036 226.492C128.036 226.492 94.0442 221.806 101.992 180.678C102.007 180.741 139.981 189.269 128.036 226.492Z" fill="#FECF00"/>
<path opacity="0.1" d="M128.036 226.492C128.036 226.492 94.0442 221.806 101.992 180.678C102.007 180.741 139.981 189.269 128.036 226.492Z" fill="black"/>
<path d="M126.334 217.979C125.663 215.902 124.882 213.871 124.023 211.872L123.93 211.091L123.789 209.388C123.696 208.17 123.617 206.936 123.539 205.717C123.399 203.265 123.243 200.813 123.212 198.345C123.212 198.22 123.009 198.22 122.993 198.345C122.993 200.797 122.993 203.249 122.993 205.717C122.993 206.936 123.102 208.17 123.196 209.388V210.216C121.295 206.123 119.015 202.217 116.388 198.548C115.217 196.908 113.984 195.346 112.672 193.862C111.36 192.378 109.877 190.831 108.503 189.301C108.503 189.191 108.269 189.301 108.362 189.441C110.802 192.146 112.997 195.063 114.92 198.157C115.951 199.719 116.919 201.281 117.856 202.968L117.544 202.843L116.326 202.343L113.546 201.297L108.081 199.266C107.972 199.266 107.894 199.407 108.081 199.454C109.893 200.172 111.673 200.938 113.468 201.703L116.107 202.843L117.434 203.39C117.717 203.531 118.016 203.636 118.324 203.702C119.011 204.936 119.698 206.17 120.323 207.436C121.902 210.614 123.289 213.885 124.476 217.23C124.476 217.464 124.632 217.714 124.726 217.948C123.832 217.425 122.898 216.976 121.931 216.605L118.418 215.043C116.029 213.949 113.734 212.84 111.376 211.544C111.267 211.544 111.157 211.653 111.282 211.716C113.609 212.996 115.967 214.355 118.246 215.636C119.417 216.261 120.588 216.886 121.791 217.464C122.763 218.043 123.815 218.474 124.913 218.745C126.053 221.852 126.803 225.09 127.146 228.382C127.521 233.068 127.474 237.754 127.583 242.44C127.583 242.534 127.708 242.44 127.708 242.44C128.052 238.223 128.239 233.959 128.271 229.726C128.259 225.732 127.606 221.765 126.334 217.979Z" fill="#263238"/>
<path d="M121.104 193.846C120.771 196.242 120.656 198.662 120.76 201.078C120.76 201.078 120.854 201.078 120.87 201.078C120.995 198.673 121.026 196.283 121.307 193.893C121.322 193.69 121.119 193.69 121.104 193.846Z" fill="#263238"/>
<path d="M111.376 195.892C109.857 195.312 108.394 194.596 107.004 193.752C106.895 193.674 106.785 193.862 106.91 193.924C108.268 194.847 109.758 195.558 111.329 196.033C111.329 196.033 111.454 195.924 111.376 195.892Z" fill="#263238"/>
<path d="M129.145 291.738C129.145 287.989 129.036 284.224 128.989 280.476C128.927 267.98 128.796 255.483 128.599 242.987C128.422 233.084 128.193 223.191 127.912 213.309C127.912 213.309 127.912 213.215 127.818 213.184C127.818 210.482 127.818 207.779 127.818 205.061C127.818 205.061 127.818 204.968 127.662 204.968C127.506 204.968 127.506 204.968 127.506 205.077C127.506 207.779 127.506 210.497 127.506 213.2C127.498 213.241 127.498 213.283 127.506 213.325C127.006 230.96 126.569 248.595 126.459 266.23C126.459 269.823 126.459 273.415 126.459 276.992C126.335 288.447 126.288 299.949 126.319 311.497C126.319 313.325 126.319 315.152 126.319 316.996C126.319 327.508 126.428 338.036 126.428 348.564C126.428 349.126 127.053 349.407 127.724 349.423C128.396 349.439 129.286 349.157 129.286 348.517C129.286 336.911 129.286 325.306 129.286 313.7C129.161 306.374 129.192 299.064 129.145 291.738Z" fill="#263238"/>
<path d="M114.936 280.319C114.936 280.319 98.5881 268.198 83.0676 276.477C67.5471 284.756 65.1113 316.152 65.1113 316.152C65.1113 316.152 87.908 319.417 102.257 305.749C116.092 292.581 114.936 280.319 114.936 280.319Z" fill="#FECF00"/>
<path d="M119.402 281.069C116.391 279.888 113.137 279.464 109.924 279.835C109.263 279.726 108.595 279.663 107.925 279.648L105.615 279.46L100.93 279.132C97.6981 278.882 94.466 278.695 91.2495 278.367C91.1246 278.367 91.1089 278.554 91.2495 278.57C94.3723 278.976 97.6044 279.429 100.805 279.757C102.445 279.929 104.1 280.085 105.739 280.21L106.942 280.319L105.49 280.678C102.923 281.434 100.439 282.444 98.0729 283.693C96.7925 283.927 95.5122 284.287 94.2474 284.584C92.2176 285.068 90.2033 285.583 88.1891 286.146C84.2231 287.192 80.2883 288.364 76.3536 289.504C76.2286 289.504 76.3536 289.738 76.3536 289.707C80.2883 288.738 84.2543 287.848 88.1891 286.911L93.9507 285.536L95.5121 285.193C91.0806 287.877 87.1149 291.263 83.7703 295.221C80.5788 299.131 77.8685 303.41 75.6978 307.967C75.6978 308.076 75.8071 308.201 75.8695 308.076C78.5552 303.384 81.841 299.063 85.644 295.221C85.644 295.44 85.5035 295.658 85.441 295.877L84.5198 298.767C83.9264 300.688 83.3019 302.625 82.7398 304.562C82.7398 304.687 82.8959 304.734 82.9271 304.562C83.6298 302.687 84.2699 300.813 84.9414 298.938C85.2536 298.017 85.5815 297.095 85.9094 296.174C86.0812 295.689 86.2373 295.221 86.3935 294.737C86.3935 294.58 86.5028 294.44 86.5496 294.299C88.3749 292.523 90.3152 290.869 92.3581 289.348C95.0493 287.36 97.9628 285.693 101.04 284.38C101.04 284.662 100.93 284.943 100.868 285.208C100.712 285.958 100.54 286.77 100.384 287.442C100.071 289.004 99.7748 290.566 99.4625 292.128C98.8536 295.252 98.4632 298.501 97.9011 301.672C97.9011 301.797 98.0729 301.859 98.1041 301.672C98.838 298.548 99.7904 295.424 100.493 292.175C100.852 290.613 101.211 289.051 101.539 287.38C101.695 286.63 101.852 285.817 101.992 285.13C102.093 284.718 102.171 284.301 102.226 283.881L103.116 283.506C107.4 281.675 112.098 281.033 116.716 281.647C118.876 282.076 120.897 283.032 122.6 284.43C124.302 285.828 125.633 287.624 126.475 289.66C126.616 290.019 127.178 289.801 127.1 289.426C126.556 287.529 125.576 285.786 124.24 284.335C122.904 282.885 121.247 281.766 119.402 281.069Z" fill="#263238"/>
<path d="M94.3567 294.549C93.9038 296.627 93.4354 298.704 92.9826 300.797C92.4618 302.783 92.0809 304.803 91.8428 306.842C91.8428 306.842 91.9521 306.842 91.9677 306.842C92.5705 304.846 93.0348 302.811 93.3574 300.75C93.7633 298.704 94.1693 296.658 94.5596 294.612C94.5909 294.471 94.3879 294.424 94.3567 294.549Z" fill="#263238"/>
<path d="M78.5394 299.907C76.4628 300.954 74.4485 302.156 72.2938 303.031C72.1689 303.031 72.2938 303.281 72.3875 303.219C74.5241 302.25 76.6088 301.171 78.6331 299.985C78.6331 299.985 78.6019 299.798 78.5394 299.907Z" fill="#263238"/>
<path d="M118.668 258.061C118.668 258.061 98.6816 259.341 89.3755 246.158C80.0695 232.975 82.1618 214.137 82.1618 214.137C82.1618 214.137 103.163 216.698 111.501 226.164C119.839 235.63 118.668 258.061 118.668 258.061Z" fill="#FECF00"/>
<path d="M128.036 277.789C127.334 275.649 126.475 273.54 125.679 271.447C124.882 269.354 124.117 267.417 123.18 265.449C121.363 261.419 119.336 257.488 117.106 253.671C115.686 251.235 114.171 248.876 112.625 246.549C112.625 246.205 112.516 245.846 112.469 245.486L112.25 243.674C112.047 242.409 111.829 241.16 111.626 239.894C111.157 237.13 110.595 234.38 110.143 231.616C110.143 231.491 109.924 231.491 109.94 231.616C110.346 234.334 110.627 237.083 111.001 239.816C111.189 241.16 111.36 242.503 111.563 243.831L111.798 245.283C108.74 240.831 105.441 236.549 101.914 232.459L100.446 230.819C100.446 230.678 100.321 230.522 100.259 230.366L99.8372 229.226C99.5405 228.429 99.2439 227.664 98.9628 226.836C98.4007 225.274 97.901 223.712 97.4014 222.15C97.4014 222.025 97.1672 222.15 97.1984 222.15C97.6044 223.79 98.026 225.43 98.51 227.039C98.7442 227.836 98.994 228.601 99.2751 229.366L99.4156 229.757C96.8549 226.976 94.2005 224.29 91.4992 221.634C91.4806 221.616 91.4553 221.605 91.429 221.605C91.4026 221.605 91.3773 221.616 91.3587 221.634C91.3401 221.653 91.3296 221.678 91.3296 221.705C91.3296 221.731 91.3401 221.756 91.3587 221.775C96.5236 227.182 101.259 232.984 105.521 239.129C105.037 238.973 104.537 238.863 104.037 238.754C102.476 238.457 100.915 238.239 99.3532 238.051C96.0898 237.629 92.842 237.223 89.6099 236.708C89.4694 236.708 89.4225 236.88 89.6099 236.911C92.7327 237.52 95.8556 238.223 98.8535 238.926C100.306 239.254 101.773 239.551 103.225 239.832C104.418 240.086 105.591 240.42 106.739 240.832C107.067 241.3 107.394 241.753 107.707 242.222C109.174 244.346 110.58 246.533 111.969 248.72L109.986 248.36L105.302 247.517C102.179 247.017 99.197 246.486 96.1835 245.814C96.1586 245.814 96.1348 245.824 96.1172 245.842C96.0997 245.859 96.0898 245.883 96.0898 245.908C96.0898 245.933 96.0997 245.957 96.1172 245.974C96.1348 245.992 96.1586 246.002 96.1835 246.002C99.3063 246.72 102.273 247.564 105.302 248.376C106.77 248.767 108.238 249.126 109.721 249.438L111.938 249.922C112.235 250.001 112.538 250.053 112.844 250.079C115.764 254.765 118.496 259.669 121.041 264.605C122.15 266.792 123.227 268.979 124.258 271.197C125.288 273.415 126.241 275.789 127.24 278.086C127.427 278.492 128.161 278.289 128.036 277.789Z" fill="#263238"/>
<path d="M107.535 231.834C107.16 229.929 106.754 228.023 106.333 226.133C106.333 225.992 106.114 226.055 106.13 226.133C106.525 228.007 106.884 229.882 107.207 231.756C107.492 233.643 107.873 235.515 108.347 237.364C108.212 235.503 107.941 233.655 107.535 231.834Z" fill="#263238"/>
<path d="M95.8865 231.288C94.9497 230.819 93.966 230.444 93.0135 230.069L91.4521 229.476L90.6714 229.163C90.3776 229.076 90.0947 228.956 89.8282 228.804C89.6721 228.695 89.5784 228.945 89.7345 228.976C90.0319 229.061 90.3197 229.176 90.5933 229.32L91.3428 229.663L92.7949 230.319C93.763 230.741 94.7467 231.163 95.7616 231.491C95.9178 231.522 95.9958 231.335 95.8865 231.288Z" fill="#263238"/>
<path d="M139.076 242.347C139.076 242.347 151.177 219.744 169.57 216.245C187.964 212.747 199.237 231.678 199.237 231.678C199.237 231.678 185.825 248.86 168.93 251.828C152.035 254.796 139.076 242.347 139.076 242.347Z" fill="#FECF00"/>
<path d="M181.905 226.367C177.114 225.721 172.253 225.779 167.478 226.539L168.29 226.102L172.381 223.993C175.207 222.525 178.064 220.963 181.015 219.776C181.033 219.775 181.051 219.771 181.066 219.762C181.082 219.753 181.095 219.741 181.105 219.726C181.115 219.711 181.121 219.694 181.123 219.676C181.124 219.659 181.122 219.641 181.115 219.624C181.108 219.608 181.097 219.593 181.083 219.582C181.069 219.57 181.053 219.563 181.036 219.559C181.018 219.556 181 219.556 180.983 219.561C180.966 219.566 180.95 219.576 180.937 219.588C178.064 220.931 175.066 222.056 172.178 223.384C170.741 224.04 169.32 224.743 167.915 225.477C167.01 225.961 165.995 226.414 165.105 227.039C161.064 227.86 157.137 229.166 153.41 230.928L155.72 228.429C157.422 226.539 159.109 224.571 160.998 222.853C161.107 222.853 160.998 222.634 160.858 222.712C158.921 224.462 156.892 226.086 155.018 227.898C154.112 228.788 153.253 229.71 152.41 230.647C151.989 231.116 151.567 231.6 151.161 232.1C144.84 235.475 139.347 240.211 135.078 245.967C130.809 251.724 127.871 258.356 126.475 265.386C126.475 265.511 126.631 265.574 126.662 265.386C129.259 256.771 133.904 248.914 140.2 242.487C146.969 235.576 155.493 230.64 164.855 228.21C170.41 226.794 176.154 226.267 181.874 226.648C181.896 226.633 181.915 226.613 181.929 226.59C181.942 226.567 181.951 226.542 181.954 226.515C181.957 226.488 181.954 226.461 181.946 226.436C181.937 226.41 181.924 226.387 181.905 226.367Z" fill="#263238"/>
<path opacity="0.1" d="M199.253 231.678C199.253 231.678 185.824 248.86 168.93 251.828C156.048 254.109 145.509 247.392 141.152 244.018L140.215 242.456C140.215 242.456 148.928 235.115 165.401 230.866C181.874 226.617 199.253 231.678 199.253 231.678Z" fill="black"/>
<path d="M171.225 218.307C169.813 219.133 168.448 220.036 167.134 221.01C165.854 221.98 164.668 223.068 163.59 224.259C163.496 224.368 163.59 224.493 163.746 224.399C164.964 223.353 166.197 222.291 167.462 221.275C168.696 220.267 169.989 219.333 171.334 218.479C171.444 218.417 171.334 218.245 171.225 218.307Z" fill="#263238"/>
<path d="M181.328 222.134C180.641 222.415 179.938 222.665 179.266 222.946L177.205 223.806C177.065 223.806 177.205 224.102 177.283 224.04L179.345 223.212L181.374 222.337C181.499 222.29 181.437 222.087 181.328 222.134Z" fill="#263238"/>
<path d="M136.655 270.791C136.655 270.791 139.887 293.206 156.751 301.063C173.614 308.92 194.225 301.063 194.225 301.063C194.225 301.063 186.074 252.547 136.655 270.791Z" fill="#FECF00"/>
<path d="M182.545 286.474C180.984 286.286 179.422 286.021 177.861 285.74L175.597 285.318L174.426 285.084C173.973 284.662 173.52 284.224 173.052 283.818C169.857 281.009 166.407 278.504 162.747 276.336C160.726 275.176 158.641 274.133 156.501 273.212H156.829L162.372 273.447C166.072 273.618 169.773 273.712 173.473 273.946C173.598 273.946 173.598 273.743 173.473 273.743C169.773 273.493 166.072 273.072 162.372 272.759L156.985 272.275L154.206 272.041H153.487C152.535 271.681 151.567 271.338 150.583 271.041C145.991 269.461 141.051 269.186 136.312 270.244C132.065 271.338 127.833 274.118 126.74 278.586C126.74 278.742 126.943 278.851 127.006 278.695C128.567 274.962 132.736 273.072 136.468 272.291C138.987 271.815 141.568 271.767 144.103 272.15C144.284 273.304 144.572 274.439 144.962 275.54C145.43 277.102 145.883 278.664 146.367 280.226C147.32 283.35 148.366 286.474 149.303 289.598C149.303 289.723 149.537 289.676 149.506 289.598C148.725 286.474 148.054 283.35 147.304 280.132C146.929 278.57 146.539 277.008 146.149 275.446C145.936 274.387 145.655 273.344 145.305 272.322C146.782 272.577 148.242 272.921 149.677 273.353C152.281 274.117 154.831 275.051 157.313 276.149C157.563 277.711 157.922 279.273 158.281 280.913C158.749 282.881 159.265 284.849 159.842 286.786C159.842 286.811 159.852 286.835 159.87 286.852C159.887 286.87 159.911 286.88 159.936 286.88C159.961 286.88 159.985 286.87 160.002 286.852C160.02 286.835 160.03 286.811 160.03 286.786C160.03 286.661 160.03 286.552 160.03 286.427C159.655 284.599 159.249 282.772 158.859 280.944C158.546 279.46 158.265 277.976 157.937 276.508C160.03 277.445 162.091 278.476 164.089 279.632C164.089 280.085 164.246 280.554 164.308 280.975C164.433 281.741 164.558 282.537 164.698 283.272C165.026 285.005 165.37 286.724 165.776 288.442C166.541 291.748 167.511 295.003 168.68 298.189C168.665 298.206 168.656 298.228 168.656 298.251C168.656 298.274 168.665 298.297 168.68 298.314L168.774 298.439C168.791 298.452 168.813 298.459 168.835 298.46C168.857 298.461 168.878 298.455 168.897 298.443C168.915 298.431 168.93 298.414 168.939 298.394C168.947 298.373 168.95 298.351 168.945 298.329C168.165 295.002 167.275 291.706 166.541 288.379C166.182 286.708 165.823 285.037 165.479 283.365L165.011 280.866C165.011 280.632 165.011 280.366 164.886 280.116C167.155 281.445 169.345 282.905 171.444 284.49C175.082 287.217 178.449 290.287 181.499 293.659C181.624 293.8 181.858 293.659 181.749 293.472C180.493 291.767 179.148 290.13 177.721 288.567C176.877 287.645 176.003 286.771 175.097 285.911H175.378C176.175 286.052 176.94 286.161 177.752 286.271C179.313 286.489 180.875 286.63 182.436 286.817C182.686 286.692 182.686 286.489 182.545 286.474Z" fill="#263238"/>
<path d="M170.694 294.081L170.601 293.503C170.601 293.253 170.429 293.019 170.398 292.769C170.054 291.207 169.758 289.754 169.492 288.239C169.492 288.129 169.305 288.161 169.305 288.239C169.418 290.247 169.85 292.224 170.585 294.096C170.585 294.096 170.726 294.096 170.71 294.096L170.694 294.081Z" fill="#263238"/>
<path d="M156.579 293.659C156.579 293.659 156.579 293.581 156.485 293.565C156.017 291.582 155.564 289.598 155.143 287.598C154.94 286.552 154.721 285.505 154.518 284.474C154.409 283.912 154.299 283.334 154.206 282.772C154.153 282.272 154.027 281.782 153.831 281.319C153.821 281.303 153.808 281.29 153.791 281.28C153.775 281.271 153.756 281.266 153.737 281.266C153.718 281.266 153.7 281.271 153.683 281.28C153.667 281.29 153.653 281.303 153.644 281.319C153.629 282.335 153.771 283.346 154.065 284.318C154.268 285.412 154.487 286.505 154.737 287.598C155.221 289.816 155.767 292.019 156.392 294.19C156.401 294.214 156.417 294.235 156.437 294.249C156.458 294.264 156.483 294.272 156.509 294.272C156.534 294.272 156.559 294.264 156.58 294.249C156.601 294.235 156.617 294.214 156.626 294.19L156.579 293.659Z" fill="#263238"/>
<path d="M181 280.007C177.877 279.585 174.848 279.148 171.756 278.773C171.631 278.773 171.584 278.945 171.756 278.976C174.879 279.429 178.002 279.804 181 280.21C181.124 280.226 181.124 280.023 181 280.007Z" fill="#263238"/>
<path d="M128.036 218.198C128.036 218.198 117.731 172.9 166.338 154.624C166.322 154.64 179.797 214.199 128.036 218.198Z" fill="#FECF00"/>
<path d="M138.529 192.534C138.694 192.414 138.866 192.304 139.045 192.206L141.793 190.644L147.429 187.52C151.145 185.443 154.799 183.287 158.531 181.272C158.656 181.272 158.531 181.022 158.437 181.085C154.69 183.131 150.88 185.036 147.117 187.02L141.543 189.972L139.263 191.175C140.825 188.051 142.62 185.083 144.525 182.178C147.07 178.304 149.85 174.602 152.754 170.994C152.781 170.96 152.794 170.917 152.791 170.874C152.788 170.831 152.769 170.791 152.737 170.761C152.706 170.732 152.664 170.715 152.621 170.715C152.578 170.715 152.536 170.731 152.504 170.76C148.245 174.915 144.473 179.543 141.262 184.552C141.262 184.396 141.262 184.224 141.262 184.084C141.262 182.959 141.355 181.819 141.371 180.694C141.371 178.492 141.371 176.274 141.371 174.071C141.363 174.051 141.349 174.033 141.331 174.021C141.313 174.009 141.291 174.002 141.27 174.002C141.248 174.002 141.226 174.009 141.208 174.021C141.19 174.033 141.176 174.051 141.168 174.071C141.074 176.242 140.809 178.414 140.684 180.585C140.684 181.678 140.575 182.756 140.543 183.849C140.543 184.427 140.543 185.099 140.543 185.739C139.544 187.301 138.576 188.957 137.67 190.597C136.045 193.545 134.596 196.585 133.33 199.704C133.33 198.579 133.205 197.455 133.142 196.33C133.002 193.846 132.69 191.378 132.596 188.91C132.596 188.77 132.377 188.77 132.393 188.91C132.393 191.394 132.315 193.862 132.393 196.345C132.393 197.579 132.393 198.829 132.549 200.063L132.643 201.438C131.093 205.5 129.867 209.678 128.973 213.934C128.128 218.454 127.524 223.017 127.162 227.601C127.678 223.47 128.54 219.389 129.738 215.402C130.347 213.278 130.972 211.153 131.659 209.045C133.689 208.092 135.625 206.905 137.577 205.811L143.651 202.406C147.695 200.188 151.754 197.923 155.939 195.955C156.064 195.955 155.939 195.721 155.83 195.783C151.583 197.704 147.32 199.532 143.151 201.625C141.09 202.656 139.045 203.765 137.03 204.905C135.344 205.858 133.611 206.811 131.987 207.904C132.455 206.499 132.955 205.093 133.548 203.703C135 199.938 136.671 196.174 138.529 192.534Z" fill="#263238"/>
<path d="M134.423 182.178C134.423 182.053 134.204 182.053 134.22 182.178C134.391 184.755 134.469 187.333 134.75 189.988C134.75 190.129 134.985 190.129 134.985 189.988C134.891 187.333 134.61 184.755 134.423 182.178Z" fill="#263238"/>
<path d="M157.703 190.831C154.58 192.05 151.582 193.221 148.553 194.487C148.553 194.487 148.553 194.658 148.553 194.627C151.676 193.471 154.658 192.222 157.719 191.019C157.922 190.972 157.859 190.769 157.703 190.831Z" fill="#263238"/>
<path d="M162.388 169.947C159.408 171.326 156.519 172.891 153.737 174.633C153.723 174.643 153.711 174.655 153.701 174.669C153.691 174.683 153.684 174.698 153.681 174.715C153.677 174.732 153.677 174.749 153.68 174.766C153.683 174.783 153.689 174.799 153.698 174.813C153.708 174.827 153.72 174.84 153.734 174.85C153.748 174.859 153.763 174.866 153.78 174.87C153.797 174.873 153.814 174.874 153.831 174.871C153.848 174.868 153.864 174.861 153.878 174.852C156.688 173.29 159.561 171.619 162.497 170.166C162.575 170.072 162.466 169.901 162.388 169.947Z" fill="#263238"/>
<path d="M161.607 316.09H91.499V390.02H161.607V316.09Z" fill="#455A64"/>
<path d="M90.2656 342.238H86.6743V468.87H90.2656V342.238Z" fill="#263238"/>
<path d="M166.072 342.238H162.481V468.87H166.072V342.238Z" fill="#263238"/>
<path d="M130.082 342.238H126.491V468.87H130.082V342.238Z" fill="#263238"/>
<path d="M164.261 385.271H88.4697V395.502H164.261V385.271Z" fill="#263238"/>
<path d="M439.992 529.945C436.635 531.023 341.014 529.789 337.407 527.415C336.033 526.54 335.393 512.591 335.111 495.721V495.159C335.111 491.691 335.002 488.099 335.002 484.475C335.002 483.975 335.002 483.475 335.002 482.913C334.877 458.561 335.268 433.288 335.268 433.288L399.286 433.928L397.365 483.085L397.287 485.037L396.912 495.206V496.252C396.912 496.252 433.309 513.107 436.994 516.121C440.679 519.136 443.349 528.867 439.992 529.945Z" fill="#AD6359"/>
<path d="M411.262 502.969C411.012 502.969 410.887 502.829 410.872 502.75L411.262 502.969Z" fill="#FECF00"/>
<path d="M439.992 529.93C436.635 531.023 341.029 529.789 337.407 527.415C336.173 526.649 335.533 515.543 335.221 501.22C352.74 504.89 420.646 518.621 422.504 512.81C423.222 510.529 417.414 506.562 413.744 504.359C423.784 509.139 434.902 514.622 436.869 516.231C440.523 519.23 443.349 528.867 439.992 529.93Z" fill="#263238"/>
<path d="M315.609 157.764C315.609 157.764 329.959 319.417 332.301 331.741C332.847 334.553 333.175 349.829 333.394 369.464C333.894 412.31 333.597 489.598 333.597 489.598H401.003C401.003 489.598 399.005 355.702 396.022 331.054C393.04 306.405 373.96 157.764 373.96 157.764H315.609Z" fill="#263238"/>
<path d="M397.959 477.977C387.435 477.758 390.464 477.665 379.94 477.571C374.787 477.571 340.904 477.227 336.22 478.024C336.2 478.032 336.182 478.046 336.17 478.064C336.158 478.082 336.151 478.103 336.151 478.125C336.151 478.147 336.158 478.169 336.17 478.187C336.182 478.205 336.2 478.219 336.22 478.227C341.029 479.023 374.85 478.742 379.94 478.68C390.464 478.586 387.435 478.492 397.959 478.274C397.982 478.281 398.007 478.283 398.031 478.28C398.056 478.276 398.079 478.266 398.099 478.252C398.119 478.237 398.135 478.218 398.146 478.196C398.158 478.174 398.163 478.15 398.163 478.125C398.163 478.101 398.158 478.076 398.146 478.054C398.135 478.032 398.119 478.013 398.099 477.999C398.079 477.984 398.056 477.975 398.031 477.971C398.007 477.967 397.982 477.969 397.959 477.977Z" fill="#455A64"/>
<path d="M346.4 401.438C346.338 391.66 346.265 381.882 346.182 372.104C346.182 362.638 346.182 353.156 345.682 343.69C344.777 324.525 340.889 305.687 338.125 286.739C335.361 267.792 333.05 248.689 331.02 229.616C328.678 208.248 326.617 186.848 324.416 165.48C324.416 165.324 324.181 165.339 324.197 165.48C327.32 203.656 330.911 241.816 336.189 279.757C337.5 289.192 338.937 298.611 340.498 308.014C342.06 317.527 343.621 327.055 344.386 336.677C345.151 346.299 345.245 355.546 345.339 364.996C345.432 374.764 345.531 384.537 345.635 394.315C345.838 416.027 346.057 449.439 346.26 471.151C346.26 471.238 346.294 471.321 346.356 471.383C346.417 471.444 346.501 471.479 346.588 471.479C346.675 471.479 346.758 471.444 346.82 471.383C346.881 471.321 346.916 471.238 346.916 471.151C346.635 451.798 346.635 420.729 346.4 401.438Z" fill="#455A64"/>
<path d="M301.354 157.764C301.354 157.764 329.912 319.417 332.254 331.741C332.8 334.553 333.128 349.829 333.347 369.464L365.528 157.764H301.354Z" fill="#455A64"/>
<path d="M280.602 535.381C277.12 534.834 192.367 490.52 190.212 486.787C189.369 485.381 195.099 472.65 202.469 457.468L202.703 456.983C204.265 453.859 234.478 402.797 234.478 402.797L286.614 433.413L257.696 484.959L257.197 485.881C257.197 485.881 282.054 517.355 283.991 521.713C285.927 526.071 284.069 535.943 280.602 535.381Z" fill="#AD6359"/>
<path d="M280.587 535.381C277.105 534.834 192.367 490.52 190.212 486.771C189.494 485.584 193.569 476.102 199.362 463.919C211.51 473.119 270.157 517.183 274.45 512.607C275.34 511.638 274.669 509.358 273.482 506.905C278.619 513.7 283.21 519.933 283.991 521.713C285.896 526.056 284.069 535.943 280.587 535.381Z" fill="#263238"/>
<path d="M265.207 483.085L203.437 444.893C203.437 444.893 274.888 342.613 275.262 333.537C275.762 320.026 282.242 264.278 287.676 219.135C287.676 219.135 277.37 194.69 296.669 157.779H374.053C374.053 157.779 368.869 192.909 360 215.183C354.048 217.255 348.299 219.869 342.825 222.993C342.825 222.993 335.127 323.634 334.83 336.193C334.143 361.044 265.207 483.085 265.207 483.085Z" fill="#263238"/>
<path d="M268.985 468.823C260.07 463.231 262.74 464.7 253.73 459.217C249.343 456.53 220.457 438.911 215.928 437.115C215.835 437.115 215.741 437.224 215.819 437.286C219.535 440.41 248.718 457.593 253.153 460.17C262.24 465.496 259.679 463.872 268.767 469.073C269.001 469.183 269.142 468.917 268.985 468.823Z" fill="#455A64"/>
<path d="M362.889 213.652C355.915 216.185 349.176 219.321 342.747 223.025C342.497 223.165 342.747 223.556 342.934 223.431C349.726 220.525 356.643 217.729 363.233 214.449C363.307 214.386 363.359 214.301 363.382 214.207C363.404 214.112 363.395 214.012 363.357 213.923C363.318 213.834 363.252 213.759 363.168 213.71C363.083 213.662 362.986 213.641 362.889 213.652Z" fill="#455A64"/>
<path d="M353.411 202.437C354.083 198.392 354.614 194.346 354.973 190.253C355.67 182.647 355.587 174.99 354.723 167.401C354.711 167.359 354.685 167.321 354.65 167.295C354.615 167.268 354.572 167.254 354.528 167.254C354.484 167.254 354.441 167.268 354.405 167.295C354.37 167.321 354.345 167.359 354.332 167.401C354.508 177.95 353.892 188.497 352.49 198.954C351.725 203.984 349.195 211.544 354.442 212.325C359.688 213.106 363.264 200.438 363.92 196.97C365.589 187.09 365.967 177.035 365.044 167.057C365.044 166.823 364.622 166.776 364.622 167.057C364.622 175.117 364.154 182.209 363.482 189.738C363.17 193.237 360.36 212.559 354.301 211.153C353.286 210.919 352.74 209.919 352.599 208.388C352.623 206.384 352.895 204.39 353.411 202.453" fill="#455A64"/>
<path d="M354.442 211.653C353.905 212.956 353.452 214.292 353.083 215.652C352.693 216.706 352.497 217.823 352.506 218.948C352.514 218.993 352.535 219.035 352.567 219.068C352.599 219.102 352.64 219.125 352.685 219.135C352.73 219.145 352.777 219.141 352.82 219.125C352.863 219.108 352.901 219.079 352.927 219.041C353.552 218.078 354.026 217.024 354.333 215.917C354.801 214.683 355.285 213.449 355.707 212.2C355.779 212.032 355.782 211.842 355.715 211.672C355.647 211.503 355.515 211.366 355.347 211.294C355.18 211.221 354.99 211.218 354.82 211.286C354.65 211.353 354.514 211.485 354.442 211.653Z" fill="#455A64"/>
<path d="M305.726 162.653C303.381 166.703 301.436 170.972 299.917 175.399C298.376 179.812 297.231 184.355 296.498 188.973C296.045 191.253 295.904 193.659 295.655 195.908C295.405 198.157 295.374 200.594 295.498 202.89C295.581 207.542 296.104 212.176 297.06 216.73V216.886C295.28 236.411 293.432 255.926 291.517 275.43C289.602 294.935 287.681 314.449 285.755 333.975L285.568 335.802L285.474 336.708C285.471 337.05 285.407 337.388 285.287 337.708C284.761 338.872 284.166 340.003 283.507 341.097C282.273 343.237 280.977 345.33 279.697 347.345C277.136 351.516 274.513 355.655 271.89 359.842C266.643 368.12 261.288 376.321 255.948 384.537C245.283 400.969 234.4 417.339 223.517 433.569L255.073 383.975L270.688 359.123C273.3 354.958 275.903 350.792 278.495 346.627C279.759 344.534 281.04 342.441 282.242 340.379C282.846 339.368 283.393 338.326 283.882 337.255C283.986 337.002 284.039 336.731 284.038 336.458V335.552L284.225 333.725C286.078 314.22 287.998 294.721 289.987 275.227C291.975 255.733 293.973 236.239 295.983 216.745V216.901C295.047 212.273 294.556 207.565 294.515 202.843C294.405 200.485 294.64 198.157 294.765 195.783C294.89 193.409 295.264 191.097 295.764 188.801C296.591 184.177 297.84 179.638 299.496 175.242C301.154 170.851 303.24 166.634 305.726 162.653Z" fill="#455A64"/>
<path d="M340.389 3.70178C325.759 15.0889 328.85 32.8021 322.527 42.1742C318.67 47.8444 306.694 53.452 304.055 60.0593C299.714 70.9934 308.88 75.3046 306.522 81.209C303.149 89.5658 291.813 88.3787 289.112 102.171C286.411 115.964 301.01 131.49 337.11 137.192C373.21 142.893 393.758 130.459 395.617 118.713C397.475 106.967 385.577 102.515 385.171 93.7208C384.905 88.0663 392.541 84.5049 393.415 74.1643C394.289 63.8238 384.343 59.9812 383.313 51.1246C382.282 42.268 387.997 21.1026 375.505 9.57496C363.014 -1.95272 347.572 -1.92148 340.389 3.70178Z" fill="#263238"/>
<path d="M341.95 4.0924C337.888 6.69114 334.513 10.2333 332.114 14.4173C329.633 18.8652 327.669 23.5818 326.258 28.4755C325.51 31.3954 324.431 34.2202 323.042 36.8947C321.681 39.1125 319.937 41.0697 317.889 42.6742C313.798 46.0481 308.989 48.5161 305.273 52.3431C301.557 56.17 298.933 60.9029 300.026 66.1201C300.62 68.9473 302.353 71.3216 303.383 73.9301C304.414 76.5387 304.648 79.5534 302.415 81.5215C300.526 83.1929 297.856 83.8646 295.732 85.2079C293.638 86.5339 291.767 88.1841 290.189 90.097C288.604 91.9963 287.43 94.2043 286.742 96.5813C286.054 98.9582 285.866 101.452 286.192 103.905C287.754 115.292 298.09 122.212 307.677 126.726L311.706 128.569C311.909 128.663 312.112 128.366 311.893 128.257C302.29 123.415 291.142 117.713 287.894 106.561C287.167 104.136 287.005 101.577 287.422 99.08C287.839 96.5831 288.823 94.2153 290.299 92.1589C291.773 90.0998 293.615 88.331 295.732 86.9417C297.778 85.5672 300.104 84.7862 302.166 83.4897C303.194 82.9089 304.048 82.0641 304.641 81.0427C305.234 80.0213 305.544 78.8601 305.538 77.679C305.346 75.077 304.532 72.5592 303.165 70.3375C301.753 68.0205 301.072 65.3312 301.213 62.6211C301.623 59.9771 302.752 57.4968 304.476 55.4515C307.724 51.2809 312.377 48.6411 316.593 45.5639C320.873 42.7046 324.15 38.5746 325.962 33.7551C326.836 31.209 327.429 28.5692 328.194 25.945C328.903 23.5444 329.737 21.1826 330.693 18.8691C332.529 14.2206 335.353 10.0263 338.968 6.576C339.93 5.70367 340.976 4.92926 342.091 4.26422C342.216 4.21736 342.107 4.01429 341.95 4.0924Z" fill="#263238"/>
<path d="M397.631 110.153C397.275 108.214 396.503 106.375 395.367 104.764C394.18 103.093 392.712 101.64 391.385 100.078C390.022 98.6841 389.076 96.9367 388.653 95.0331C388.501 92.7197 389.176 90.4278 390.558 88.5663C391.886 86.5706 393.071 84.4826 394.102 82.3183C395.478 79.0643 396.075 75.5335 395.845 72.0078C395.614 68.482 394.563 65.059 392.775 62.012C391.635 59.9189 390.339 57.9352 389.184 55.8577C387.902 53.5979 386.931 51.1759 386.295 48.6568C384.921 43.1117 384.827 37.3322 383.75 31.7246C382.616 25.9833 380.9 20.3726 378.628 14.9797C378.628 14.8548 378.379 14.9797 378.441 15.1047C380.453 19.9684 381.945 25.0315 382.891 30.2094C383.812 35.1297 384.031 40.097 384.655 45.0329C384.939 47.4683 385.462 49.8698 386.217 52.2026C386.978 54.3675 387.935 56.4587 389.074 58.4506C391.338 62.5588 393.758 66.62 394.149 71.3998C394.608 76.0958 393.564 80.8164 391.167 84.88C389.09 88.3945 386.232 92.2527 387.7 96.5482C388.949 100.203 392.26 102.5 394.383 105.577C395.491 107.266 396.231 109.17 396.554 111.164C396.876 113.158 396.775 115.199 396.257 117.151C393.821 127.211 383.406 131.787 373.85 131.834C373.788 131.834 373.729 131.859 373.685 131.903C373.641 131.947 373.616 132.006 373.616 132.068C373.616 132.131 373.641 132.19 373.685 132.234C373.729 132.278 373.788 132.303 373.85 132.303C382.142 132.584 391.338 129.366 395.585 121.79C397.589 118.264 398.312 114.152 397.631 110.153Z" fill="#263238"/>
<path d="M358.829 87.1448C378.082 108.498 403.283 128.382 414.619 127.523C427.829 126.523 462.18 116.12 486.194 100.344C491.238 97.0167 465.677 65.6827 461.867 67.5415C451.25 72.8055 419.053 90.9717 416.899 91.8308C414.432 92.7993 384.796 78.3819 371.18 71.5246C349.758 60.5749 345.167 72.0245 358.829 87.1448Z" fill="#AD6359"/>
<path d="M461.711 79.2255C463.429 74.6957 474.031 50.0158 477.451 44.6581C483.696 34.7861 492.409 25.992 496.999 27.6477C500.684 28.9754 498.733 35.6921 498.733 35.6921C498.733 35.6921 504.885 30.8186 508.788 33.8489C512.692 36.8792 507.227 43.3148 507.227 43.3148C507.227 43.3148 513.91 38.7693 517.579 42.0808C521.248 45.3922 514.768 50.953 514.768 50.953C514.768 50.953 520.686 46.5013 522.575 50.5C524.84 55.3267 513.02 62.2776 509.069 68.1039C508.476 68.9943 501.403 84.1302 495.095 93.0962C492.657 96.1372 489.595 98.6194 486.116 100.375L461.711 79.2255Z" fill="#AD6359"/>
<path d="M515.424 51.0779C506.743 56.2325 503.838 59.9501 499.31 68.7287C499.303 68.7482 499.292 68.766 499.278 68.7813C499.264 68.7966 499.247 68.8089 499.228 68.8176C499.209 68.8263 499.189 68.8312 499.168 68.832C499.148 68.8328 499.127 68.8296 499.107 68.8224C499.088 68.8152 499.07 68.8043 499.055 68.7902C499.039 68.7761 499.027 68.7591 499.018 68.7403C499.01 68.7214 499.005 68.701 499.004 68.6803C499.003 68.6595 499.006 68.6388 499.014 68.6193C502.667 59.5596 505.634 54.3425 515.19 50.578C515.658 50.4531 515.83 50.828 515.424 51.0779Z" fill="#263238"/>
<path d="M507.867 43.1741C499.841 49.9688 496.937 54.2644 492.331 63.574C492.252 63.7146 492.034 63.574 492.081 63.4803C495.906 53.952 498.561 48.563 507.461 42.8304C507.867 42.5649 508.226 42.8617 507.867 43.1741Z" fill="#263238"/>
<path d="M498.577 36.0044C491.472 43.3303 488.271 47.9851 485.148 57.7008C485.131 57.7426 485.099 57.7767 485.059 57.7968C485.018 57.8169 484.972 57.8217 484.928 57.8103C484.884 57.7989 484.846 57.772 484.821 57.7347C484.795 57.6973 484.784 57.652 484.789 57.6071C487.007 47.3915 490.957 41.5496 498.327 35.7389C498.826 35.4109 499.014 35.5358 498.577 36.0044Z" fill="#263238"/>
<path d="M456.793 78.1007C456.793 78.1007 455.575 65.5109 456.262 59.872C456.949 54.2331 467.192 34.1299 471.704 36.1137C477.466 38.6598 473.812 51.4371 471.205 57.4508C471.205 57.4508 484.539 63.3553 483.899 73.071C483.259 82.7867 456.793 78.1007 456.793 78.1007Z" fill="#AD6359"/>
<path d="M472.844 52.999C472.485 54.561 472.048 56.1231 471.611 57.5757L471.408 57.0446C477.576 60.137 482.418 65.358 485.039 71.7432C485.869 73.8511 486.369 76.0745 486.522 78.3349C485.872 76.2212 485.042 74.1674 484.04 72.1962C480.941 66.3978 476.463 61.4516 471.002 57.7944L470.658 57.5601C471.361 55.9981 472.063 54.4361 472.844 52.9834V52.999Z" fill="#263238"/>
<path d="M452.343 67.7133L461.29 124.555C461.29 124.555 430.062 132.162 414.65 131.069C399.239 129.975 363.452 100.406 351.397 85.7702C339.343 71.1341 339.296 55.389 363.498 65.7452C387.7 76.1013 415.337 89.0348 416.118 89.1754C416.899 89.316 452.343 67.7133 452.343 67.7133Z" fill="#FECF00"/>
<path d="M361.156 67.4479C361.138 66.5186 361.033 65.593 360.844 64.6831C360.793 64.6675 360.738 64.6675 360.687 64.6831C360.514 65.6098 360.441 66.5524 360.469 67.4948C360.495 68.5484 360.637 69.5959 360.89 70.6188C361.096 69.5749 361.185 68.5114 361.156 67.4479ZM371.383 101.531C371.368 100.478 371.231 99.4295 370.977 98.4071C370.77 99.4349 370.681 100.483 370.712 101.531C370.725 102.585 370.861 103.633 371.118 104.655C371.318 103.626 371.407 102.579 371.383 101.531ZM397.037 98.2977C397.029 97.2438 396.893 96.1947 396.631 95.1737C396.436 96.2031 396.353 97.2504 396.381 98.2977C396.387 99.3518 396.524 100.401 396.787 101.422C396.99 100.393 397.074 99.3452 397.037 98.2977ZM455.512 87.9884C455.504 87.8897 455.504 87.7904 455.512 87.6916L455.091 85.0206C454.904 86.0088 454.826 87.0144 454.857 88.0197C454.87 89.0733 455.006 90.1217 455.263 91.1437C455.475 90.1062 455.559 89.0465 455.512 87.9884ZM380.486 74.9768C380.481 74.3335 380.429 73.6913 380.33 73.0555L379.909 72.8681C379.843 73.5794 379.817 74.2938 379.83 75.0081C379.83 76.0616 379.961 77.1111 380.221 78.1321C380.44 77.0955 380.529 76.0355 380.486 74.9768ZM394.539 82.1621C393.486 82.1777 392.438 82.314 391.416 82.5682C392.442 82.7831 393.491 82.8723 394.539 82.8338C395.592 82.8194 396.64 82.6831 397.662 82.4276C396.637 82.2439 395.595 82.1706 394.555 82.209L394.539 82.1621ZM395.273 115.73C394.22 115.744 393.172 115.881 392.15 116.136C393.177 116.35 394.225 116.444 395.273 116.417C396.326 116.39 397.373 116.248 398.396 115.995C397.371 115.811 396.329 115.738 395.288 115.777L395.273 115.73ZM349.039 76.2108C348.278 75.4668 347.435 74.8118 346.525 74.2583C347.734 76.0147 349.292 77.5035 351.1 78.6319C350.503 77.7526 349.812 76.9408 349.039 76.2108ZM382.672 91.6904C381.914 90.9428 381.07 90.2875 380.158 89.7379C380.748 90.6233 381.44 91.4359 382.219 92.159C382.979 92.9115 383.829 93.5673 384.749 94.1115C384.159 93.2221 383.461 92.4089 382.672 91.6904ZM443.739 77.3355C442.977 76.5866 442.127 75.9311 441.21 75.3829C441.802 76.2659 442.494 77.0782 443.271 77.8041C444.025 78.5562 444.869 79.2121 445.785 79.7566C445.202 78.871 444.515 78.0582 443.739 77.3355ZM434.746 88.8319C434.742 87.7777 434.605 86.7281 434.34 85.7079C434.135 86.7359 434.051 87.7844 434.09 88.8319C434.09 89.8854 434.221 90.9347 434.48 91.9559C434.689 90.9284 434.778 89.88 434.746 88.8319ZM447.94 120.635C447.922 119.582 447.791 118.535 447.549 117.511C447.327 118.536 447.238 119.586 447.284 120.635C447.282 121.689 447.418 122.74 447.69 123.759C447.894 122.73 447.978 121.682 447.94 120.635ZM423.332 117.011C423.311 115.958 423.174 114.91 422.926 113.887C422.712 114.914 422.618 115.962 422.645 117.011C422.668 118.064 422.804 119.111 423.051 120.135C423.263 119.108 423.357 118.059 423.332 117.011ZM424.065 99.7192C423.012 99.7348 421.965 99.871 420.943 100.125C421.971 100.325 423.018 100.414 424.065 100.391C425.119 100.38 426.167 100.243 427.188 99.9847C426.16 99.783 425.113 99.694 424.065 99.7192ZM458.885 109.341H458.339C457.285 109.347 456.236 109.483 455.216 109.747C456.245 109.944 457.292 110.028 458.339 109.997C458.557 110.013 458.776 110.013 458.994 109.997L458.885 109.341ZM409.95 124.29C409.193 123.541 408.349 122.886 407.436 122.337C408.645 124.094 410.202 125.582 412.011 126.711C411.428 125.816 410.736 124.998 409.95 124.274V124.29ZM409.622 91.3936C408.868 90.6463 408.023 89.9957 407.108 89.4567C407.677 90.3305 408.342 91.1374 409.091 91.8622C409.854 92.6111 410.703 93.2666 411.621 93.8147C411.057 92.9238 410.386 92.1055 409.622 91.378V91.3936ZM436.963 109.341C436.205 108.602 435.361 107.957 434.449 107.42C435.045 108.296 435.73 109.107 436.494 109.841C437.264 110.582 438.113 111.236 439.024 111.794C438.432 110.901 437.74 110.078 436.963 109.341ZM409.091 108.138C408.347 108.899 407.692 109.743 407.14 110.653C408.033 110.075 408.852 109.388 409.575 108.607C410.319 107.849 410.969 107.005 411.512 106.092C410.629 106.68 409.817 107.366 409.091 108.138ZM446.331 99.2506C445.583 100.014 444.927 100.863 444.379 101.781C445.262 101.188 446.073 100.496 446.8 99.7192C447.548 98.9615 448.203 98.1173 448.751 97.2043C447.846 97.7797 447.017 98.4672 446.284 99.2506H446.331ZM423.691 84.9737L423.363 85.3017C422.619 86.0634 421.964 86.9071 421.411 87.8166C422.303 87.2299 423.126 86.5434 423.862 85.7704C424.37 85.2262 424.844 84.6524 425.283 84.0521L423.691 84.9737ZM431.732 125.695C430.992 126.46 430.337 127.304 429.78 128.21C430.673 127.631 431.491 126.944 432.216 126.164C432.964 125.406 433.62 124.562 434.168 123.649C433.278 124.232 432.46 124.919 431.732 125.695ZM385.795 105.389C385.06 106.154 384.411 106.998 383.859 107.904C384.743 107.313 385.56 106.627 386.295 105.858C387.033 105.095 387.682 104.252 388.231 103.343C387.339 103.935 386.521 104.633 385.795 105.421V105.389ZM367.808 82.209C367.055 82.9624 366.399 83.8073 365.856 84.7238C366.734 84.1317 367.546 83.4456 368.276 82.6776C369.021 81.911 369.675 81.0621 370.228 80.1471C369.343 80.7366 368.53 81.4287 367.808 82.209Z" fill="white"/>
<path d="M445.754 99.3755C445.129 95.2518 442.834 78.8194 442.631 74.7269C442.631 74.6019 442.803 74.6175 442.834 74.7269C443.896 78.7413 446.566 95.2205 447.19 99.3443C448.408 107.592 449.767 115.87 450.313 124.196C450.313 124.233 450.298 124.269 450.272 124.295C450.245 124.322 450.21 124.337 450.172 124.337C450.135 124.337 450.099 124.322 450.073 124.295C450.047 124.269 450.032 124.233 450.032 124.196C448.127 116.058 447.018 107.67 445.754 99.3755Z" fill="#263238"/>
<path opacity="0.1" d="M351.397 85.7702C363.467 100.406 399.27 129.975 414.666 131.069C420.635 131.29 426.612 130.935 432.513 130.007L343.996 65.9639C342.169 70.3844 345.198 78.2257 351.397 85.7702Z" fill="black"/>
<path d="M373.725 125.227L376.848 166.855L360.828 165.902L356.8 157.248L349.758 165.23C329.1 163.918 302.571 162.106 292.984 160.716C292.984 160.716 312.049 84.6613 331.348 66.4794C340.998 57.3885 351.459 58.8567 357.69 66.1357C359.251 67.9789 377.598 96.1889 379.003 106.561C380.268 115.714 373.725 125.227 373.725 125.227Z" fill="#FECF00"/>
<path d="M293.047 160.716C302.634 162.075 329.147 163.84 349.804 165.214L356.737 157.264L360.75 165.917L376.801 166.854L373.679 125.227C373.679 125.227 380.205 115.714 378.987 106.483C378.222 100.797 372.351 89.7533 366.964 80.6311C366.88 80.5133 366.807 80.3878 366.746 80.2563C362.374 72.8992 358.377 66.8854 357.674 66.0731C351.678 59.0597 341.779 57.4352 332.473 65.3859C332.381 65.4361 332.301 65.5053 332.238 65.5889C331.926 65.8388 331.63 66.1044 331.333 66.3856C328.295 69.4406 325.671 72.8802 323.526 76.6168L323.167 77.1947C317.668 87.0586 313.009 97.3679 309.239 108.013C309.239 108.154 309.145 108.279 309.083 108.404C299.792 134.036 293.047 160.716 293.047 160.716Z" fill="#FECF00"/>
<path d="M337.266 86.7388C337.252 85.6853 337.116 84.6369 336.86 83.6148C336.652 84.6425 336.563 85.6907 336.595 86.7388C336.593 87.7934 336.729 88.8437 337.001 89.8628C337.202 88.8341 337.291 87.7867 337.266 86.7388ZM345.557 124.571C345.534 123.518 345.398 122.471 345.151 121.447C344.939 122.474 344.844 123.522 344.87 124.571C344.892 125.624 345.028 126.671 345.276 127.695C345.473 126.666 345.552 125.618 345.51 124.571H345.557ZM327.429 153.515C327.43 152.46 327.294 151.41 327.023 150.391C326.82 151.419 326.737 152.467 326.773 153.515C326.776 154.568 326.907 155.617 327.164 156.639C327.379 155.612 327.468 154.563 327.429 153.515ZM371.383 101.531C371.368 100.478 371.231 99.4295 370.977 98.4071C370.77 99.4348 370.681 100.483 370.712 101.531C370.725 102.585 370.861 103.633 371.118 104.655C371.318 103.626 371.407 102.579 371.383 101.531ZM310.909 127.57C310.888 126.517 310.752 125.469 310.503 124.446C310.29 125.473 310.196 126.521 310.222 127.57C310.244 128.623 310.38 129.67 310.628 130.694C310.841 129.667 310.936 128.619 310.909 127.57ZM298.652 151C298.643 149.947 298.512 148.899 298.262 147.876C298.047 148.903 297.958 149.952 297.997 151C298.002 152.054 298.138 153.104 298.402 154.124C298.6 153.121 298.684 152.1 298.652 151.078V151ZM352.568 91.831C351.515 91.8453 350.467 91.9816 349.445 92.2371C350.472 92.4507 351.52 92.545 352.568 92.5183C353.621 92.4952 354.668 92.359 355.691 92.1121C354.664 91.8984 353.616 91.8041 352.568 91.831ZM310.722 159.997C309.669 160.011 308.621 160.147 307.599 160.403C308.628 160.604 309.675 160.693 310.722 160.669C311.775 160.653 312.823 160.517 313.845 160.263C312.816 160.063 311.769 159.974 310.722 159.997ZM323.854 117.823C322.802 117.853 321.755 117.989 320.731 118.229C321.756 118.449 322.805 118.543 323.854 118.51C324.907 118.496 325.955 118.36 326.976 118.104C325.942 117.911 324.889 117.838 323.838 117.885L323.854 117.823ZM372.788 118.588C371.735 118.602 370.687 118.738 369.666 118.994C370.691 119.218 371.74 119.307 372.788 119.26C373.842 119.247 374.89 119.11 375.911 118.854C374.873 118.693 373.821 118.646 372.773 118.713L372.788 118.588ZM341.95 142.534C340.897 142.55 339.85 142.686 338.828 142.94C339.856 143.14 340.903 143.229 341.95 143.206C343.004 143.192 344.052 143.056 345.073 142.8C344.047 142.584 342.998 142.495 341.95 142.534ZM370.868 142.831C369.815 142.844 368.767 142.98 367.745 143.237C368.773 143.438 369.82 143.527 370.868 143.502C371.921 143.489 372.969 143.353 373.991 143.096C372.973 142.897 371.936 142.808 370.899 142.831H370.868ZM335.033 65.1986C334.185 65.2236 333.339 65.3123 332.504 65.4641C332.415 65.5181 332.331 65.5809 332.254 65.6516C333.187 65.8118 334.134 65.8798 335.08 65.8546C336.134 65.8568 337.184 65.7203 338.203 65.4485C337.17 65.2432 336.117 65.1594 335.065 65.1986H335.033ZM349.008 76.1327C348.247 75.3887 347.403 74.7337 346.494 74.1802C347.703 75.9366 349.26 77.4254 351.069 78.5538C350.477 77.7033 349.797 76.918 349.039 76.2108L349.008 76.1327ZM337.672 107.607C336.914 106.869 336.07 106.224 335.158 105.686C335.769 106.592 336.476 107.43 337.266 108.185C338.036 108.926 338.884 109.58 339.796 110.138C339.189 109.247 338.487 108.425 337.703 107.685L337.672 107.607ZM322.058 80.1002C321.949 80.0065 321.855 79.8972 321.73 79.8034C321.621 80.0065 321.496 80.2096 321.402 80.397L321.605 80.5844C322.362 81.333 323.206 81.9885 324.119 82.537C323.541 81.6802 322.871 80.8893 322.12 80.1783L322.058 80.1002ZM309.848 106.498C309.751 106.712 309.667 106.931 309.598 107.154C310.235 107.758 310.943 108.282 311.706 108.716C311.184 107.942 310.582 107.225 309.91 106.576L309.848 106.498ZM344.199 160.935C343.433 160.2 342.59 159.551 341.685 158.998C342.282 159.882 342.973 160.699 343.746 161.434C344.507 162.178 345.351 162.833 346.26 163.387C345.658 162.521 344.962 161.724 344.183 161.013L344.199 160.935ZM371.368 159.654C370.61 158.905 369.766 158.25 368.854 157.701C370.04 159.477 371.602 160.97 373.429 162.075C372.826 161.218 372.13 160.432 371.352 159.732L371.368 159.654ZM361.796 130.585C361.031 129.845 360.188 129.191 359.282 128.632C359.864 129.528 360.551 130.351 361.328 131.084C362.083 131.817 362.916 132.467 363.81 133.021C363.228 132.139 362.553 131.323 361.796 130.585ZM311.956 144.424C311.189 143.679 310.341 143.024 309.426 142.472C310.023 143.356 310.714 144.173 311.487 144.908C312.25 145.641 313.093 146.286 314.001 146.83C313.408 145.956 312.722 145.149 311.956 144.424ZM322.885 99.891C322.151 100.657 321.502 101.5 320.949 102.406C321.84 101.823 322.658 101.136 323.385 100.36C324.132 99.6011 324.788 98.7569 325.337 97.8447C324.413 98.4509 323.564 99.164 322.807 99.9691L322.885 99.891ZM326.008 134.646C325.26 135.403 324.605 136.248 324.057 137.161C324.944 136.574 325.762 135.888 326.492 135.114C327.233 134.344 327.887 133.496 328.444 132.584C327.543 133.171 326.715 133.863 325.977 134.646H326.008ZM356.737 149.735C355.984 150.494 355.328 151.344 354.785 152.265C355.667 151.672 356.479 150.98 357.205 150.204C357.943 149.444 358.587 148.6 359.126 147.689C358.234 148.263 357.421 148.951 356.706 149.735H356.737ZM355.894 108.935C355.15 109.702 354.495 110.551 353.942 111.466C354.828 110.86 355.636 110.146 356.347 109.341C357.095 108.584 357.75 107.739 358.298 106.826C357.402 107.425 356.583 108.133 355.863 108.935H355.894ZM367.917 82.1465C367.891 82.1405 367.864 82.1405 367.839 82.1465C367.086 82.9 366.43 83.7448 365.887 84.6613C366.733 84.123 367.518 83.4945 368.229 82.7869C368.104 82.5213 367.979 82.3339 367.886 82.1465H367.917Z" fill="white"/>
<path d="M375.318 147.392C374.834 143.58 374.49 140.581 374.131 136.754C373.772 132.927 373.351 129.116 373.038 125.274V125.039L373.21 124.789C375.237 122.015 376.75 118.899 377.676 115.589C378.155 113.932 378.427 112.221 378.488 110.497C378.587 108.781 378.435 107.06 378.035 105.389C377.152 101.983 375.976 98.6589 374.522 95.4547C373.085 92.2213 371.914 89.5034 370.275 86.3325C370.009 85.8483 370.275 85.739 370.462 86.1451C372.117 88.7537 373.897 92.3151 375.302 95.0955C376.983 98.2758 378.333 101.62 379.331 105.077C379.814 106.857 380.019 108.701 379.94 110.544C379.884 112.383 379.607 114.208 379.112 115.98C378.15 119.521 376.5 122.839 374.256 125.742L374.412 125.258C374.662 129.085 374.834 132.927 375.021 136.77C375.209 140.222 375.412 143.94 375.505 147.407C375.505 147.72 375.459 148.798 375.318 147.392Z" fill="#263238"/>
<path d="M373.382 89.3315C374.044 90.4899 374.568 91.7219 374.943 93.0023C375.143 93.6377 375.305 94.2845 375.427 94.9392C375.57 95.6061 375.628 96.2884 375.599 96.9698C375.084 95.7046 374.615 94.4862 374.225 93.221C373.84 91.9493 373.558 90.6486 373.382 89.3315Z" fill="#263238"/>
<path d="M352.553 70.8374C357.237 82.287 361.921 93.924 363.842 106.233C364.685 113.855 360.984 121.197 356.612 127.195L356.722 126.836C356.909 131.522 357.065 136.38 357.159 141.144C357.253 145.908 357.362 150.688 357.378 155.467C357.003 150.709 356.675 145.944 356.394 141.175C356.097 136.489 355.863 131.647 355.644 126.883C355.644 126.664 355.644 126.679 355.754 126.523C358.69 122.61 360.891 118.196 362.249 113.496C363.717 108.81 362.608 103.89 361.531 99.0943C359.071 89.5176 356.084 80.0843 352.584 70.8374H352.553Z" fill="#263238"/>
<path d="M356.128 91.3936C356.149 91.6557 356.092 91.9181 355.964 92.1476C355.835 92.377 355.642 92.5632 355.407 92.6825C355.173 92.8018 354.909 92.8488 354.648 92.8177C354.387 92.7865 354.141 92.6785 353.941 92.5074C353.742 92.3363 353.598 92.1097 353.527 91.8565C353.456 91.6033 353.462 91.3347 353.544 91.0849C353.626 90.8351 353.781 90.6153 353.988 90.4534C354.195 90.2914 354.445 90.1946 354.707 90.1752C355.056 90.1534 355.4 90.2685 355.665 90.496C355.93 90.7235 356.096 91.0455 356.128 91.3936Z" fill="#263238"/>
<path d="M359.766 104.499C359.787 104.761 359.73 105.023 359.602 105.253C359.473 105.482 359.28 105.668 359.046 105.788C358.811 105.907 358.547 105.954 358.286 105.923C358.025 105.892 357.779 105.784 357.58 105.613C357.38 105.442 357.236 105.215 357.165 104.962C357.094 104.709 357.1 104.44 357.183 104.19C357.265 103.94 357.419 103.721 357.626 103.559C357.833 103.397 358.083 103.3 358.346 103.28C358.695 103.255 359.041 103.368 359.307 103.596C359.573 103.825 359.738 104.149 359.766 104.499Z" fill="#263238"/>
<path d="M357.565 118.713C357.565 119.048 357.438 119.37 357.211 119.615C356.984 119.861 356.673 120.011 356.339 120.037C356.006 120.063 355.675 119.961 355.413 119.754C355.151 119.546 354.977 119.247 354.926 118.916C354.898 118.735 354.907 118.551 354.954 118.374C355.001 118.197 355.084 118.032 355.197 117.888C355.311 117.745 355.453 117.627 355.614 117.541C355.776 117.455 355.953 117.403 356.136 117.389C356.318 117.375 356.501 117.399 356.674 117.459C356.847 117.52 357.005 117.615 357.139 117.739C357.273 117.863 357.38 118.014 357.454 118.182C357.527 118.349 357.565 118.53 357.565 118.713Z" fill="#263238"/>
<path d="M352.63 132.584C352.645 132.758 352.626 132.934 352.573 133.101C352.519 133.268 352.434 133.422 352.32 133.556C352.207 133.689 352.069 133.799 351.913 133.879C351.757 133.959 351.587 134.007 351.413 134.021C351.061 134.048 350.712 133.934 350.444 133.704C350.176 133.474 350.011 133.147 349.984 132.795C349.957 132.443 350.071 132.094 350.301 131.826C350.531 131.558 350.858 131.392 351.21 131.365C351.559 131.34 351.905 131.453 352.171 131.681C352.437 131.91 352.603 132.234 352.63 132.584Z" fill="#263238"/>
<path d="M353.146 146.236C353.168 146.585 353.053 146.928 352.825 147.194C352.598 147.459 352.276 147.625 351.928 147.657C351.576 147.684 351.228 147.57 350.96 147.34C350.692 147.11 350.526 146.783 350.499 146.431C350.473 146.079 350.587 145.731 350.816 145.462C351.046 145.194 351.373 145.029 351.725 145.002C352.076 144.98 352.422 145.097 352.688 145.328C352.954 145.559 353.118 145.885 353.146 146.236Z" fill="#263238"/>
<path d="M340.577 126.383C343.531 125.845 346.513 125.469 349.508 125.258C351.069 125.164 352.506 125.149 354.005 125.258H356.16C356.94 125.258 357.721 125.445 358.517 125.477V125.602C357.768 125.602 356.956 125.727 356.284 125.758L354.052 125.867L349.555 126.101C346.572 126.242 343.59 126.398 340.592 126.632C340.389 126.632 340.389 126.414 340.577 126.383Z" fill="#263238"/>
<path d="M426.283 134.942L422.176 186.739H393.68L389.558 134.942H426.283Z" fill="#FECF00"/>
<path d="M428.734 130.256H386.857V137.817H428.734V130.256Z" fill="#455A64"/>
<path d="M425.877 130.256H389.73L391.854 121.775H423.753L425.877 130.256Z" fill="#37474F"/>
<path d="M417.82 161.294C417.82 168.026 413.385 173.478 407.92 173.478C402.455 173.478 398.037 168.026 398.037 161.294C398.037 154.562 402.455 149.11 407.92 149.11C413.385 149.11 417.82 154.64 417.82 161.294Z" fill="white"/>
<path d="M329.053 69.4471C312.284 89.3472 279.697 136.895 288.862 148.391C303.961 167.323 341.951 185.255 353.927 189.004C359.142 190.566 379.253 153.546 374.459 150.235C368.682 146.251 327.617 130.772 327.992 127.21C328.179 125.195 333.613 108.466 338.594 87.0041C344.402 62.0119 337.048 59.9656 329.053 69.4471Z" fill="#AD6359"/>
<path d="M355.566 146.83C355.566 146.83 371.665 142.784 382.313 140.581C388.247 139.379 398.615 138.223 403.393 139.347C410.528 141.019 439.305 152.547 436.651 159.654C434.246 166.027 410.794 152.984 410.794 152.984C410.794 152.984 435.636 164.012 431.326 171.135C427.017 178.257 402.503 160.013 402.503 160.013C402.503 160.013 427.751 171.947 422.161 178.617C417.945 183.646 394.789 168.354 394.789 168.354C394.789 168.354 416.415 178.773 412.293 184.146C407.749 190.082 385.483 177.304 385.483 177.304C372.711 189.176 361.796 190.129 353.958 188.973C352.084 188.707 355.566 146.83 355.566 146.83Z" fill="#AD6359"/>
<path d="M402.456 148.548C405.407 149.735 408.42 150.922 411.278 152.375C414.135 153.827 416.914 155.389 419.616 157.061C423.188 159.225 426.499 161.793 429.484 164.715C423.8 159.966 413.776 154.64 410.841 153.078C407.905 151.516 405.235 149.954 402.393 148.579C402.315 148.61 402.378 148.516 402.456 148.548Z" fill="#263238"/>
<path d="M397.022 158.732C404.607 161.553 411.826 165.277 418.522 169.822C418.788 169.994 418.632 170.072 418.351 169.916C414.775 167.979 400.144 160.763 396.975 158.81C396.912 158.779 396.959 158.716 397.022 158.732Z" fill="#263238"/>
<path d="M390.776 166.636C396.32 168.754 401.568 171.579 406.39 175.04C406.64 175.196 406.39 175.289 406.125 175.133C401.066 172.353 397.49 170.666 390.698 166.839C390.589 166.792 390.651 166.589 390.776 166.636Z" fill="#263238"/>
<path d="M360.89 142.924L335.158 191.925C335.158 191.925 293.609 162.012 286.754 146.736C280.509 133.021 317.795 81.131 326.305 71.0716C334.815 61.0122 342.731 59.7314 340.748 77.3197C338.765 94.908 329.459 126.398 329.35 126.898C329.24 127.398 360.89 142.924 360.89 142.924Z" fill="#FECF00"/>
<path d="M356.706 149.735C355.953 150.494 355.297 151.344 354.754 152.265C355.544 151.739 356.277 151.132 356.94 150.453L357.908 148.579C357.565 148.954 357.096 149.344 356.706 149.735ZM325.868 168.963C325.119 169.726 324.464 170.576 323.916 171.494C324.803 170.895 325.621 170.198 326.352 169.416C327.099 168.658 327.754 167.814 328.304 166.901C327.413 167.49 326.596 168.182 325.868 168.963ZM296.576 133.287C295.832 134.048 295.177 134.892 294.624 135.802C295.514 135.218 296.332 134.532 297.06 133.755C297.806 132.985 298.461 132.13 299.011 131.209C298.12 131.802 297.302 132.5 296.576 133.287ZM325.977 134.646C325.229 135.403 324.574 136.248 324.025 137.161C324.913 136.574 325.73 135.888 326.461 135.114C327.201 134.344 327.856 133.496 328.413 132.584C327.523 133.173 326.705 133.865 325.977 134.646ZM322.854 99.8909C322.12 100.657 321.471 101.5 320.918 102.406C321.809 101.823 322.627 101.136 323.354 100.359C324.101 99.601 324.756 98.7568 325.306 97.8446C324.393 98.4528 323.555 99.1657 322.808 99.969L322.854 99.8909ZM311.924 144.424C311.158 143.679 310.31 143.024 309.395 142.471C309.992 143.356 310.683 144.173 311.456 144.908C312.229 145.643 313.083 146.288 314.001 146.829C313.408 145.956 312.722 145.149 311.956 144.424H311.924ZM314.766 173.821C314.017 173.063 313.184 172.392 312.284 171.822C312.862 172.711 313.549 173.524 314.329 174.243C315.086 174.991 315.93 175.647 316.843 176.195C316.252 175.33 315.566 174.534 314.797 173.821H314.766ZM344.152 161.013C343.386 160.278 342.543 159.629 341.638 159.076C342.235 159.96 342.926 160.777 343.699 161.512C344.461 162.256 345.304 162.911 346.213 163.465C345.631 162.574 344.95 161.751 344.183 161.013H344.152ZM309.676 106.342C308.919 105.593 308.075 104.938 307.162 104.389C307.741 105.278 308.428 106.091 309.208 106.811C309.964 107.567 310.814 108.223 311.737 108.763C311.157 107.889 310.476 107.087 309.707 106.373L309.676 106.342ZM322.167 80.147C321.608 79.6069 321.007 79.1108 320.372 78.6631L320.169 78.9442C320.656 79.5363 321.177 80.0996 321.73 80.6312C322.487 81.3798 323.331 82.0352 324.244 82.5837C323.629 81.7041 322.917 80.8971 322.12 80.1782L322.167 80.147ZM335.111 65.1672C334.263 65.1922 333.417 65.281 332.582 65.4328C332.493 65.4867 332.409 65.5495 332.332 65.6202C333.265 65.7804 334.212 65.8484 335.158 65.8233C336.213 65.8255 337.263 65.6889 338.281 65.4172C337.222 65.2162 336.142 65.1428 335.065 65.1985L335.111 65.1672ZM328.101 186.598L328.835 187.145C329.362 187.089 329.885 186.99 330.396 186.848C329.625 186.697 328.84 186.623 328.054 186.63L328.101 186.598ZM341.95 142.534C340.897 142.55 339.85 142.686 338.828 142.94C339.856 143.14 340.903 143.229 341.95 143.206C343.004 143.192 344.052 143.056 345.073 142.799C344.047 142.584 342.998 142.495 341.95 142.534ZM286.005 142.659C285.981 142.882 285.981 143.107 286.005 143.331C286.991 143.318 287.972 143.182 288.925 142.924C287.973 142.737 287.006 142.648 286.036 142.659H286.005ZM299.261 116.729C298.208 116.745 297.161 116.881 296.138 117.136C297.167 117.336 298.214 117.425 299.261 117.401C300.315 117.388 301.363 117.251 302.384 116.995C301.366 116.797 300.33 116.708 299.293 116.729H299.261ZM323.807 117.885C322.755 117.916 321.709 118.052 320.684 118.291C321.71 118.511 322.758 118.606 323.807 118.573C324.86 118.558 325.908 118.422 326.93 118.166C325.913 117.956 324.876 117.862 323.838 117.885H323.807ZM310.675 160.06C309.622 160.073 308.574 160.209 307.552 160.466C308.581 160.666 309.628 160.755 310.675 160.731C311.728 160.716 312.776 160.58 313.798 160.325C312.787 160.107 311.756 159.998 310.722 159.997L310.675 160.06ZM298.621 151.141C298.612 150.088 298.481 149.039 298.231 148.017C298.016 149.043 297.927 150.092 297.965 151.141C297.971 152.195 298.107 153.244 298.371 154.265C298.59 153.217 298.684 152.148 298.652 151.078L298.621 151.141ZM310.878 127.71C310.857 126.657 310.721 125.61 310.472 124.586C310.259 125.613 310.164 126.662 310.191 127.71C310.213 128.763 310.349 129.811 310.597 130.834C310.832 129.763 310.937 128.667 310.909 127.57L310.878 127.71ZM338.984 177.414C338.957 176.36 338.816 175.313 338.562 174.29C338.352 175.317 338.263 176.366 338.297 177.414C338.303 178.468 338.439 179.517 338.703 180.538C338.956 179.468 339.076 178.372 339.062 177.273L338.984 177.414ZM327.429 153.515C327.43 152.46 327.294 151.41 327.023 150.391C326.82 151.419 326.737 152.467 326.773 153.515C326.776 154.568 326.907 155.617 327.164 156.639C327.379 155.612 327.468 154.563 327.429 153.515ZM337.266 86.7387C337.252 85.6852 337.116 84.6368 336.86 83.6146C336.652 84.6424 336.563 85.6906 336.595 86.7387C336.593 87.7933 336.729 88.8436 337.001 89.8627C337.202 88.834 337.291 87.7866 337.266 86.7387Z" fill="white"/>
<path d="M338.594 161.231C340.467 157.514 348.181 142.815 350.414 139.363C350.414 139.269 350.617 139.363 350.585 139.472C349.118 143.346 341.701 158.31 339.796 162.028C336.002 169.448 332.286 176.961 327.914 184.068C327.91 184.09 327.901 184.111 327.888 184.129C327.875 184.147 327.858 184.162 327.838 184.172C327.817 184.182 327.795 184.187 327.773 184.187C327.75 184.187 327.728 184.181 327.709 184.17C327.689 184.16 327.672 184.145 327.659 184.126C327.646 184.108 327.638 184.087 327.635 184.064C327.633 184.042 327.635 184.019 327.643 183.998C327.65 183.977 327.663 183.958 327.679 183.943C330.865 176.195 334.8 168.698 338.594 161.231Z" fill="#263238"/>
<path d="M334.143 107.545C335.845 100.922 337.407 94.252 338.984 87.5978C338.984 87.4728 339.218 87.5978 339.202 87.5978C338.64 91.3935 337.953 95.1423 337.172 98.8755C337.922 96.9699 338.609 95.0486 339.265 93.1117C339.265 92.9711 339.515 93.1117 339.483 93.1117C338.832 95.6816 337.932 98.1822 336.798 100.578C336.298 102.843 335.798 105.108 335.236 107.373C334.424 110.669 330.552 125.133 329.959 126.758C335.486 129.054 340.311 131.756 345.682 134.365C348.305 135.645 350.928 136.942 353.489 138.285C356.232 139.474 358.897 140.836 361.468 142.362C361.609 142.456 361.062 143.127 360.875 143.471C360.687 143.815 360.531 143.58 360.594 143.471L360.765 143.002C359.454 142.565 354.239 139.878 352.958 139.301L345.151 135.474C339.811 132.865 328.741 127.476 328.756 127.382C328.85 125.898 333.206 110.903 334.143 107.545Z" fill="#263238"/>
<path d="M340.483 63.527C340.733 65.089 347.541 76.0231 354.832 76.2418C357.206 76.2418 358.127 63.3552 358.127 63.3552L358.408 62.418L362.421 49.2502L347.447 37.9724L345.276 36.4104C345.276 36.4104 344.418 40.0811 343.403 44.6735C343.403 44.8765 343.293 45.0952 343.247 45.3139C343.2 45.5326 343.122 45.8137 343.075 46.0637C342.919 46.7509 342.747 47.4382 342.606 48.1411C342.466 48.8441 342.372 49.1877 342.279 49.7032L341.951 51.5463C341.193 55.5024 340.703 59.505 340.483 63.527Z" fill="#AD6359"/>
<path d="M343.403 44.736C344.466 48.6064 346.358 52.1988 348.95 55.2632C351.541 58.3276 354.769 60.7905 358.408 62.4805L362.421 49.3127L347.447 38.0349L345.277 36.4729C345.277 36.4729 344.418 40.1436 343.403 44.736Z" fill="#263238"/>
<path d="M383.796 31.0216C383.921 55.186 369.478 57.982 364.279 57.9976C359.594 57.9976 343.449 57.4822 340.857 33.474C338.265 9.46577 349.398 1.78065 360.203 1.15584C371.008 0.531037 383.672 6.87282 383.796 31.0216Z" fill="#AD6359"/>
<path d="M380.377 26.8822C379.799 26.8041 379.3 26.6323 378.737 26.5073C378.155 26.4486 377.607 26.2019 377.176 25.8044C377.058 25.6554 376.994 25.4711 376.994 25.2811C376.994 25.0912 377.058 24.9068 377.176 24.7579C377.454 24.4995 377.797 24.3211 378.168 24.2414C378.539 24.1616 378.924 24.1836 379.284 24.3049C380.054 24.4278 380.75 24.8346 381.236 25.4451C381.335 25.5905 381.391 25.7614 381.396 25.9375C381.402 26.1136 381.357 26.2876 381.266 26.4388C381.176 26.59 381.044 26.7122 380.887 26.7908C380.729 26.8694 380.552 26.9011 380.377 26.8822Z" fill="#263238"/>
<path d="M363.811 26.5542C364.363 26.4832 364.91 26.3788 365.45 26.2418C366.025 26.1995 366.572 25.9752 367.012 25.6014C367.129 25.4524 367.193 25.268 367.193 25.0781C367.193 24.8882 367.129 24.7038 367.012 24.5548C366.742 24.2873 366.406 24.0969 366.038 24.0035C365.67 23.9101 365.284 23.9171 364.919 24.0237C364.147 24.1231 363.44 24.5075 362.936 25.1015C362.822 25.2461 362.755 25.422 362.743 25.6058C362.731 25.7897 362.776 25.9727 362.871 26.1305C362.966 26.2883 363.107 26.4134 363.275 26.4891C363.443 26.5648 363.63 26.5875 363.811 26.5542Z" fill="#263238"/>
<path d="M367.542 32.5366C367.542 32.5366 367.417 32.6147 367.417 32.6772C367.417 34.3329 367.277 36.223 365.856 36.7697C365.856 36.7697 365.856 36.879 365.856 36.8634C367.62 36.5979 367.87 34.083 367.542 32.5366Z" fill="#263238"/>
<path d="M366.059 30.8342C363.42 30.6468 363.248 35.9576 365.7 36.1138C368.151 36.27 368.276 30.9748 366.059 30.8342Z" fill="#263238"/>
<path d="M365.013 31.0685C364.544 31.3653 364.076 31.8808 363.451 31.912C362.827 31.9433 362.327 31.3809 361.89 30.8342H361.796C361.796 31.8495 362.109 32.8961 363.186 33.0835C364.263 33.271 364.919 32.3806 365.216 31.3653C365.372 31.2404 365.2 30.9592 365.013 31.0685Z" fill="#263238"/>
<path d="M376.692 32.4897C376.692 32.4897 376.817 32.5678 376.801 32.6303C376.692 34.2861 376.801 36.1761 378.363 36.7853V36.879C376.473 36.551 376.302 34.0205 376.692 32.4897Z" fill="#263238"/>
<path d="M378.222 30.8342C380.877 30.7405 380.861 36.0514 378.41 36.1295C375.958 36.2076 376.005 30.9123 378.222 30.8342Z" fill="#263238"/>
<path d="M379.331 31.2402C379.752 31.5213 380.158 32.0368 380.658 32.068C381.158 32.0993 381.673 31.5369 382.048 30.9902C382.048 32.0055 381.735 33.0677 380.767 33.2552C379.799 33.4426 379.206 32.5679 378.987 31.5526C379.019 31.3495 379.159 31.0683 379.331 31.2402Z" fill="#263238"/>
<path d="M366.933 46.017C367.293 46.4388 367.652 47.0011 368.229 47.0948C368.848 47.155 369.473 47.0749 370.056 46.8605C370.056 46.8605 370.166 46.8605 370.056 46.9542C369.798 47.2574 369.464 47.4855 369.087 47.6146C368.711 47.7438 368.307 47.7693 367.917 47.6884C367.588 47.5729 367.3 47.3633 367.089 47.0856C366.878 46.8079 366.754 46.4744 366.73 46.1264C366.73 45.9858 366.933 45.9545 366.933 46.017Z" fill="#263238"/>
<path d="M373.335 43.4709C372.671 44.4087 371.779 45.1614 370.743 45.6577C370.17 45.9151 369.529 45.9809 368.916 45.8452C367.573 45.564 367.495 44.2831 367.683 43.2991C367.806 42.7616 367.984 42.2382 368.214 41.7371C369.693 42.8447 371.487 43.452 373.335 43.4709Z" fill="#263238"/>
<path d="M370.743 45.6576C370.17 45.9151 369.529 45.9808 368.916 45.8451C367.573 45.5639 367.495 44.2831 367.683 43.299C368.383 43.2917 369.066 43.5203 369.621 43.9481C370.176 44.3759 370.571 44.978 370.743 45.6576Z" fill="#FF97B8"/>
<path d="M373.913 40.2218C373.913 40.2218 374.194 42.6898 374.178 43.8457C374.178 43.9551 373.897 44.0019 373.491 44.0175C372.495 44.1731 371.475 44.053 370.542 43.6703C369.609 43.2876 368.798 42.6568 368.198 41.8463C368.189 41.8229 368.188 41.7974 368.193 41.7731C368.199 41.7488 368.212 41.7268 368.231 41.71C368.249 41.6931 368.272 41.6823 368.297 41.6787C368.322 41.6752 368.347 41.6792 368.37 41.6901C369.824 42.7339 371.576 43.2816 373.366 43.2522C373.46 42.9241 372.726 39.0503 372.913 39.0347C373.812 39.1402 374.694 39.3606 375.537 39.6908C375.084 34.5361 373.803 29.5064 373.429 24.383C373.429 24.1956 373.694 24.1487 373.741 24.383C375.268 29.7389 376.261 35.2327 376.708 40.7842C376.739 41.3465 374.366 40.4249 373.913 40.2218Z" fill="#263238"/>
<path d="M342.185 33.5677C346.073 34.13 347.525 25.9919 347.525 25.9919C347.525 25.9919 355.473 26.5542 358.861 15.2921C358.403 18.7032 356.96 21.9063 354.708 24.508C354.708 24.508 368.76 23.9613 375.521 12.621C375.521 12.621 372.758 18.4474 370.415 20.4311C374.044 19.5893 377.278 17.534 379.581 14.6048C379.581 14.6048 381.58 21.5558 383.344 23.5395C383.344 23.5395 384.421 -1.03098 361.484 0.109296C361.484 0.109296 347.197 0.109296 341.326 11.0434C335.455 21.9775 342.185 33.5677 342.185 33.5677Z" fill="#263238"/>
<path d="M340.826 42.3775C341.175 42.5485 341.541 42.6795 341.919 42.768C342.291 42.8639 342.676 42.9008 343.059 42.8774C343.551 42.874 344.036 42.762 344.48 42.5494C344.831 42.3891 345.157 42.1787 345.448 41.9246C345.859 41.5604 346.202 41.1268 346.463 40.6437L345.667 34.0988C345.667 34.0988 340.982 26.1638 337.469 27.7571C333.956 29.3503 336.954 40.6125 340.826 42.3775Z" fill="#AD6359"/>
<path d="M338.406 30.9434C338.406 30.9434 338.406 31.0215 338.406 31.0527C341.108 32.4117 342.372 35.1452 343.184 37.9256C343.045 37.6306 342.843 37.3695 342.593 37.1603C342.343 36.9511 342.05 36.7989 341.735 36.7142C341.42 36.6295 341.091 36.6144 340.769 36.6698C340.448 36.7252 340.142 36.8499 339.874 37.0352C339.874 37.0352 339.874 37.207 339.874 37.1914C340.38 37.0716 340.91 37.1125 341.392 37.3085C341.873 37.5045 342.281 37.8458 342.56 38.2848C343.023 39.0222 343.405 39.8079 343.699 40.6279C343.809 40.8934 344.277 40.7841 344.199 40.4873C344.589 36.8478 342.232 31.615 338.406 30.9434Z" fill="#263238"/>
<path d="M341.248 41.3933C341.248 41.5521 341.282 41.709 341.348 41.8537C341.413 41.9984 341.508 42.1277 341.627 42.2329C341.746 42.3382 341.885 42.4171 342.037 42.4645C342.188 42.5118 342.348 42.5265 342.506 42.5076C342.663 42.4888 342.815 42.4367 342.951 42.3549C343.087 42.2732 343.205 42.1635 343.295 42.0331C343.386 41.9028 343.448 41.7547 343.477 41.5987C343.506 41.4426 343.502 41.2821 343.465 41.1277C343.45 40.9823 343.405 40.8414 343.335 40.7134C343.264 40.5854 343.168 40.473 343.053 40.3827C342.938 40.2924 342.806 40.2261 342.665 40.1877C342.524 40.1493 342.377 40.1397 342.232 40.1593C342.086 40.1748 341.944 40.2192 341.816 40.2898C341.687 40.3604 341.574 40.4559 341.482 40.5707C341.391 40.6854 341.323 40.8173 341.283 40.9585C341.242 41.0997 341.231 41.2475 341.248 41.3933Z" fill="white"/>
<path d="M339.093 39.5344C339.145 39.7166 339.26 39.8743 339.418 39.9791C339.576 40.084 339.766 40.1292 339.954 40.1066C340.142 40.0841 340.316 39.9952 340.444 39.856C340.572 39.7167 340.647 39.5363 340.655 39.347C340.659 39.2318 340.639 39.117 340.594 39.0105C340.55 38.9041 340.484 38.8084 340.399 38.7303C340.314 38.6521 340.214 38.5932 340.104 38.5577C339.994 38.5222 339.878 38.511 339.764 38.5247C339.65 38.5385 339.539 38.5769 339.441 38.6373C339.343 38.6977 339.259 38.7787 339.196 38.8747C339.132 38.9707 339.09 39.0794 339.072 39.1933C339.054 39.3072 339.061 39.4236 339.093 39.5344Z" fill="white"/>
<path d="M358.158 64.1988L354.161 75.5547L340.28 61.2622L335.923 66.7449C335.923 66.7449 350.491 88.6131 350.538 87.5822L354.707 77.7571L361.656 84.1614L360.375 67.3697L358.158 64.1988Z" fill="#FECF00"/>
<path d="M361.484 75.8202C361.187 73.0554 360.953 70.2594 360.516 67.5103C360.516 67.4166 360.344 67.3853 360.329 67.5103C359.891 70.2126 361.109 80.7874 361.219 83.3335C360.922 83.0523 354.801 77.7102 354.739 77.804C353.817 79.366 350.741 86.5356 350.538 87.1761C348.243 83.7084 338.5 69.9939 335.814 66.7917C335.736 66.698 335.596 66.7918 335.658 66.8855C337.719 70.5718 350.304 88.6131 350.476 88.5506C352.1 85.1457 353.544 81.6576 354.801 78.1007C355.847 79.2723 362.062 85.3485 362.062 84.9268C362.033 81.8831 361.84 78.8432 361.484 75.8202Z" fill="#263238"/>
</g>
<defs>
<clipPath id="clip0_79_1509">
<rect width="654" height="555" fill="white"/>
</clipPath>
</defs>
</svg>
