<?xml version="1.0" encoding="utf-8"?>
<!-- Generator: Adobe Illustrator 26.0.2, SVG Export Plug-In . SVG Version: 6.00 Build 0)  -->
<svg version="1.1" xmlns="http://www.w3.org/2000/svg" xmlns:xlink="http://www.w3.org/1999/xlink" x="0px" y="0px"
	 viewBox="0 0 310.4 84.9" style="enable-background:new 0 0 310.4 84.9;" xml:space="preserve">
<style type="text/css">
	.st0{fill:#22194A;}
	.st1{font-family:'Poppins-Bold';}
	.st2{font-size:9px;}
	.st3{fill:#543FD6;}
	.st4{fill:#FECF00;}
	.st5{fill:#32A9FF;}
	.st6{fill:#FF3D00;}
</style>
<g id="Layer_5">
	<path id="Path_66" class="st0" d="M106.3,17.1v55h-7.1V17.1L106.3,17.1z M136.6,19.2c-3.8-0.1-6.4,0.6-7.9,1.9
		c-1.5,1.4-2.2,3.7-2.2,7v1.2h10.1v6.2h-10.1v36.6h-7.1V35.5h-6.2v-6.2h6.2v-1.7c0-10.2,5.7-15.1,17.2-14.7L136.6,19.2z M163.7,28.7
		c3.8-0.1,7.6,0.8,11,2.6c3.2,1.8,5.9,4.4,7.6,7.6c1.9,3.6,2.9,7.6,2.8,11.7c0.1,4.1-0.9,8.1-2.8,11.7c-1.8,3.2-4.4,5.9-7.6,7.6
		c-3.4,1.8-7.2,2.7-11,2.7c-3.8,0.1-7.6-0.8-11-2.7c-3.2-1.8-5.9-4.4-7.7-7.6c-1.9-3.6-2.9-7.6-2.8-11.7c-0.1-4.1,0.9-8.1,2.8-11.7
		c1.8-3.2,4.4-5.9,7.7-7.6C156.1,29.6,159.9,28.7,163.7,28.7z M163.7,35c-2.5,0-4.9,0.6-7.1,1.7c-2.2,1.2-4,3-5.2,5.3
		c-1.4,2.7-2.1,5.7-2,8.8c-0.1,3,0.6,6,2,8.7c1.2,2.2,3,4.1,5.2,5.3c4.4,2.3,9.7,2.3,14.1,0c2.2-1.2,4-3,5.2-5.3
		c1.4-2.7,2.1-5.7,2-8.7c0.1-3-0.6-6.1-2-8.8c-1.2-2.2-3-4.1-5.2-5.3C168.6,35.6,166.2,35,163.7,35L163.7,35z M217,28.6
		c4.5-0.2,8.9,1.6,12.1,4.8c3.1,3.2,4.6,7.8,4.6,13.8v24.9h-7.1V47.8c0-4.3-1.1-7.5-3.3-9.8c-2.3-2.4-5.6-3.6-8.9-3.4
		c-3.5-0.2-6.9,1.2-9.4,3.8c-2.3,2.5-3.5,6.2-3.5,11v22.7h-7.1V29.3h7.1v10.1c0.9-3.3,3-6.1,5.8-8C210.2,29.5,213.6,28.5,217,28.6z
		 M243.3,16.7c0-1.2,0.4-2.4,1.3-3.2c1-0.8,2.2-1.3,3.5-1.2c1.3-0.1,2.5,0.4,3.5,1.2c0.9,0.8,1.4,2,1.3,3.2c0,1.2-0.4,2.4-1.3,3.2
		c-1,0.8-2.2,1.3-3.5,1.2c-1.3,0.1-2.5-0.4-3.5-1.2C243.8,19.1,243.3,17.9,243.3,16.7L243.3,16.7z M251.7,29.3v42.8h-7.1V29.3
		L251.7,29.3z M287.7,72.1l-11.1-16.4l-10.1,16.4h-7.9l14-22.1l-14.1-20.7h8.1l10.8,15.9l9.9-15.9h7.9l-13.9,21.5l14.5,21.3
		L287.7,72.1z"/>
</g>
<g id="Layer_4">
	<text transform="matrix(1 0 0 1 295.434 25.5811)" class="st0 st1 st2">TM</text>
</g>
<g id="Layer_10">
	<path id="Polygon_7" class="st3" d="M35.6,40.5L23.3,84.9L7.6,3.9L35.6,40.5z"/>
</g>
<g id="Layer_9">
	<path id="Polygon_8" class="st4" d="M35.4,40.7l46-3.6L10.6,79.6L35.4,40.7z"/>
</g>
<g id="Layer_8">
	<path id="Polygon_9" class="st5" d="M42.8,29.6l13.1-1.2L35.6,40.7L42.8,29.6z"/>
</g>
<g id="Layer_7">
	<path id="Intersection_16" class="st6" d="M19.6,65.5l15.8-24.8l0.2,0l-7.9,28.7l-6.6,4L19.6,65.5z"/>
</g>
</svg>
