<svg width="678" height="528" viewBox="0 0 678 528" fill="none" xmlns="http://www.w3.org/2000/svg">
<path d="M338.992 527.983C506.428 527.983 642.162 516.543 642.162 502.431C642.162 488.32 506.428 476.88 338.992 476.88C171.556 476.88 35.8223 488.32 35.8223 502.431C35.8223 516.543 171.556 527.983 338.992 527.983Z" fill="#2688CF"/>
<path d="M0 438.673L84.7561 438.268L169.496 438.123L338.992 437.863L508.504 438.123L593.244 438.268L678 438.673L593.244 439.062L508.504 439.208L338.992 439.467L169.496 439.208L84.7561 439.062L0 438.673Z" fill="#263238"/>
<path d="M173.025 381.251H135.892V387.78H173.025V381.251Z" fill="#455A64"/>
<path d="M193.162 476.88H189.163L156.449 324.055L154.587 315.338L148.712 287.907L146.526 277.667L138.287 239.283L135.422 225.834H149.699L152.03 239.283L153.568 248.113L154.587 253.978L160.447 287.907L162.341 298.828L193.162 476.88Z" fill="#455A64"/>
<path d="M149.699 225.834L152.03 239.283H138.287L135.422 225.834H149.699Z" fill="#263238"/>
<path d="M162.341 298.828L156.449 324.055L154.588 315.338L148.712 287.907L146.526 277.667L153.568 248.113L154.588 253.978L160.447 287.907L162.341 298.828Z" fill="#263238"/>
<path d="M173.737 225.834L170.856 239.283L160.448 287.907L154.588 315.338L119.996 476.88H115.998L148.712 287.907L154.588 253.978L157.129 239.283L159.444 225.834H173.737Z" fill="#455A64"/>
<path d="M173.737 225.834L170.856 239.283H157.129L159.444 225.834H173.737Z" fill="#263238"/>
<path d="M519.268 381.251H482.135V387.78H519.268V381.251Z" fill="#455A64"/>
<path d="M539.406 476.88H535.391L502.693 324.055L500.815 315.338L494.94 287.907L492.754 277.667L484.531 239.283L481.666 225.834H495.943L498.274 239.283L499.796 248.113L500.815 253.978L506.675 287.907L508.569 298.828L539.406 476.88Z" fill="#455A64"/>
<path d="M495.943 225.834L498.274 239.283H484.531L481.666 225.834H495.943Z" fill="#263238"/>
<path d="M508.569 298.828L502.693 324.055L500.815 315.338L494.939 287.907L492.754 277.667L499.795 248.113L500.815 253.978L506.675 287.907L508.569 298.828Z" fill="#263238"/>
<path d="M519.981 225.834L517.1 239.283L506.675 287.907L500.815 315.338L466.239 476.88H462.241L494.939 287.907L500.815 253.978L503.357 239.283L505.688 225.834H519.981Z" fill="#455A64"/>
<path d="M519.981 225.834L517.099 239.283H503.356L505.687 225.834H519.981Z" fill="#263238"/>
<path d="M558.862 207.444H96.5566V225.834H558.862V207.444Z" fill="#455A64"/>
<path d="M253.864 207.444H161.645L154.507 144.756H246.725L253.864 207.444Z" fill="#C7C7C7"/>
<path d="M248.829 203.231H165.725L159.541 148.968H242.662L248.829 203.231Z" fill="white"/>
<path d="M280.912 203.231H162.292V207.428H280.912V203.231Z" fill="#C7C7C7"/>
<path d="M306.682 203.231H188.062V207.428H306.682V203.231Z" fill="#EBEBEB"/>
<path d="M242.954 151.593L242.662 148.968H159.541L159.832 151.593H242.954Z" fill="#263238"/>
<path d="M166.534 150.281C166.549 150.45 166.624 150.609 166.746 150.728C166.868 150.847 167.028 150.918 167.198 150.929C167.276 150.926 167.353 150.905 167.423 150.87C167.493 150.834 167.555 150.784 167.604 150.723C167.653 150.661 167.688 150.59 167.707 150.514C167.727 150.438 167.729 150.358 167.716 150.281C167.698 150.111 167.622 149.952 167.501 149.831C167.381 149.71 167.222 149.634 167.052 149.616C166.972 149.619 166.893 149.64 166.822 149.676C166.75 149.713 166.688 149.765 166.638 149.828C166.589 149.891 166.554 149.965 166.536 150.043C166.518 150.121 166.517 150.202 166.534 150.281Z" fill="#C7C7C7"/>
<path d="M164.122 150.281C164.14 150.449 164.216 150.606 164.337 150.724C164.459 150.842 164.617 150.915 164.786 150.929C164.864 150.926 164.941 150.905 165.011 150.87C165.081 150.834 165.143 150.784 165.192 150.723C165.241 150.661 165.276 150.59 165.295 150.514C165.315 150.438 165.318 150.358 165.304 150.281C165.289 150.11 165.214 149.949 165.093 149.827C164.971 149.706 164.811 149.631 164.64 149.616C164.561 149.622 164.484 149.644 164.414 149.682C164.343 149.719 164.282 149.771 164.233 149.833C164.184 149.896 164.149 149.968 164.13 150.045C164.111 150.122 164.108 150.203 164.122 150.281Z" fill="white"/>
<path d="M161.726 150.281C161.741 150.45 161.817 150.609 161.938 150.728C162.06 150.847 162.22 150.918 162.39 150.929C162.468 150.926 162.545 150.905 162.615 150.87C162.685 150.834 162.747 150.784 162.796 150.723C162.845 150.661 162.88 150.59 162.9 150.514C162.919 150.438 162.922 150.358 162.908 150.281C162.89 150.111 162.815 149.952 162.694 149.831C162.573 149.71 162.414 149.634 162.244 149.616C162.164 149.619 162.086 149.64 162.014 149.676C161.943 149.713 161.88 149.765 161.831 149.828C161.782 149.891 161.747 149.965 161.729 150.043C161.71 150.121 161.71 150.202 161.726 150.281Z" fill="#FECF00"/>
<path d="M179.079 169.206H171.39L170.516 161.525H178.205L179.079 169.206Z" fill="#EBEBEB"/>
<path d="M178.026 159.97H170.337L170.111 157.977H177.8L178.026 159.97Z" fill="#FECF00"/>
<path d="M187.302 159.97H179.629L179.402 157.977H187.075L187.302 159.97Z" fill="#455A64"/>
<path d="M196.593 159.97H188.904L188.678 157.977H196.367L196.593 159.97Z" fill="#455A64"/>
<path d="M205.868 159.97H198.195L197.969 157.977H205.641L205.868 159.97Z" fill="#455A64"/>
<path d="M215.16 159.97H207.471L207.244 157.977H214.933L215.16 159.97Z" fill="#455A64"/>
<path d="M224.435 159.97H216.763L216.536 157.977H224.209L224.435 159.97Z" fill="#455A64"/>
<path d="M233.727 159.97H226.038L225.812 157.977H233.5L233.727 159.97Z" fill="#455A64"/>
<path d="M188.354 169.206H180.681L179.807 161.525H187.48L188.354 169.206Z" fill="#C7C7C7"/>
<path d="M197.646 169.206H189.957L189.083 161.525H196.771L197.646 169.206Z" fill="#EBEBEB"/>
<path d="M206.921 169.206H199.248L198.374 161.525H206.047L206.921 169.206Z" fill="#EBEBEB"/>
<path d="M216.212 169.206H208.524L207.649 161.525H215.338L216.212 169.206Z" fill="#EBEBEB"/>
<path d="M225.488 169.206H217.815L216.925 161.525H224.614L225.488 169.206Z" fill="#C7C7C7"/>
<path d="M234.779 169.206H227.09L226.216 161.525H233.905L234.779 169.206Z" fill="#EBEBEB"/>
<path d="M180.131 178.571H172.458L171.584 170.875H179.273L180.131 178.571Z" fill="#EBEBEB"/>
<path d="M189.422 178.571H181.733L180.859 170.875H188.548L189.422 178.571Z" fill="#EBEBEB"/>
<path d="M198.698 178.571H191.025L190.151 170.875H197.824L198.698 178.571Z" fill="#EBEBEB"/>
<path d="M207.989 178.571H200.3L199.426 170.875H207.115L207.989 178.571Z" fill="#EBEBEB"/>
<path d="M217.265 178.571H209.592L208.718 170.875H216.39L217.265 178.571Z" fill="#EBEBEB"/>
<path d="M226.556 178.571H218.867L217.993 170.875H225.682L226.556 178.571Z" fill="#EBEBEB"/>
<path d="M235.831 178.571H228.158L227.284 170.875H234.957L235.831 178.571Z" fill="#C7C7C7"/>
<path d="M181.199 187.92H173.526L172.652 180.24H180.325L181.199 187.92Z" fill="#EBEBEB"/>
<path d="M190.491 187.92H182.802L181.928 180.24H189.617L190.491 187.92Z" fill="#EBEBEB"/>
<path d="M199.766 187.92H192.093L191.219 180.24H198.892L199.766 187.92Z" fill="#EBEBEB"/>
<path d="M209.057 187.92H201.368L200.494 180.24H208.183L209.057 187.92Z" fill="#EBEBEB"/>
<path d="M218.333 187.92H210.644L209.77 180.24H217.458L218.333 187.92Z" fill="#C7C7C7"/>
<path d="M227.625 187.92H219.936L219.062 180.24H226.75L227.625 187.92Z" fill="#EBEBEB"/>
<path d="M236.899 187.92H229.21L228.336 180.24H236.025L236.899 187.92Z" fill="#EBEBEB"/>
<path d="M182.268 197.285H174.579L173.705 189.589H181.394L182.268 197.285Z" fill="#EBEBEB"/>
<path d="M191.543 197.285H183.87L182.996 189.589H190.669L191.543 197.285Z" fill="#C7C7C7"/>
<path d="M200.835 197.285H193.146L192.271 189.589H199.96L200.835 197.285Z" fill="#EBEBEB"/>
<path d="M210.109 197.285H202.437L201.562 189.589H209.235L210.109 197.285Z" fill="#EBEBEB"/>
<path d="M219.401 197.285H211.712L210.838 189.589H218.527L219.401 197.285Z" fill="#EBEBEB"/>
<path d="M228.677 197.285H221.004L220.13 189.589H227.803L228.677 197.285Z" fill="#EBEBEB"/>
<path d="M237.967 197.285H230.278L229.404 189.589H237.093L237.967 197.285Z" fill="#EBEBEB"/>
<path d="M212.069 181.115L212.635 182.006L213.655 182.151L213.007 182.864L213.283 183.869L212.344 183.399L211.502 183.869L211.551 182.864L210.741 182.151L211.729 182.006L212.069 181.115Z" fill="#FECF00"/>
<path d="M185.311 180.337C184.784 180.388 184.273 180.546 183.809 180.802C183.346 181.058 182.939 181.406 182.615 181.825C182.29 182.244 182.055 182.724 181.923 183.237C181.791 183.751 181.765 184.285 181.847 184.809C181.957 185.354 182.2 185.863 182.552 186.292C182.905 186.722 183.357 187.058 183.87 187.272C184.906 187.653 186.027 187.737 187.107 187.515C188.143 187.404 189.108 186.94 189.843 186.202C190.205 185.827 190.459 185.361 190.579 184.854C190.698 184.346 190.679 183.816 190.523 183.318C190.339 182.785 190.023 182.307 189.604 181.93C189.185 181.553 188.677 181.289 188.127 181.163C187.07 180.854 185.947 180.854 184.89 181.163C185.927 180.789 187.05 180.716 188.127 180.953C188.721 181.087 189.272 181.368 189.73 181.77C190.188 182.172 190.538 182.682 190.75 183.253C190.94 183.803 190.979 184.395 190.862 184.965C190.745 185.535 190.477 186.063 190.086 186.494C189.318 187.304 188.295 187.825 187.188 187.968C186.035 188.178 184.846 188.06 183.757 187.628C183.193 187.386 182.699 187.007 182.317 186.527C181.936 186.046 181.68 185.478 181.571 184.874C181.48 184.321 181.51 183.756 181.658 183.216C181.806 182.676 182.069 182.175 182.429 181.747C182.791 181.331 183.233 180.992 183.728 180.75C184.223 180.508 184.761 180.368 185.311 180.337Z" fill="#455A64"/>
<path d="M212.376 170.956C211.847 170.958 211.325 171.07 210.841 171.284C210.357 171.498 209.923 171.809 209.564 172.198C209.206 172.587 208.932 173.046 208.758 173.546C208.584 174.045 208.516 174.576 208.555 175.103C208.626 175.656 208.831 176.183 209.153 176.638C209.475 177.093 209.903 177.462 210.401 177.712C211.417 178.16 212.537 178.322 213.638 178.182C214.682 178.147 215.685 177.765 216.487 177.096C216.879 176.756 217.17 176.315 217.33 175.821C217.49 175.327 217.512 174.799 217.394 174.293C217.24 173.751 216.954 173.255 216.561 172.85C216.168 172.446 215.681 172.146 215.144 171.976C214.107 171.599 212.987 171.515 211.906 171.733C213.001 171.418 214.162 171.418 215.257 171.733C215.84 171.91 216.371 172.229 216.8 172.662C217.23 173.094 217.545 173.627 217.717 174.212C217.847 174.764 217.831 175.34 217.669 175.883C217.507 176.426 217.205 176.917 216.795 177.307C215.956 178.064 214.88 178.506 213.752 178.555C212.58 178.658 211.402 178.451 210.336 177.955C209.814 177.69 209.363 177.304 209.021 176.829C208.679 176.354 208.456 175.804 208.37 175.224C208.285 174.645 208.339 174.054 208.529 173.5C208.719 172.946 209.039 172.446 209.462 172.041C210.258 171.319 211.301 170.93 212.376 170.956Z" fill="#455A64"/>
<path d="M326.123 328.656L322.417 350.887L297.343 486.455H293.296L311.539 350.887L314.226 328.656H326.123Z" fill="#DBDBDB"/>
<path d="M314.225 328.656H326.123L322.416 350.887H311.538L314.225 328.656Z" fill="#C7C7C7"/>
<path d="M404.873 486.455H400.827L375.753 350.887L372.046 328.656H383.943L386.631 350.887L404.873 486.455Z" fill="#DBDBDB"/>
<path d="M383.943 328.656L386.631 350.887H375.753L372.046 328.656H383.943Z" fill="#C7C7C7"/>
<path d="M480.112 486.455H476.065L450.975 350.887L447.284 328.656H459.166L461.869 350.887L480.112 486.455Z" fill="#DBDBDB"/>
<path d="M461.869 350.887H450.975L447.284 328.656H459.166L461.869 350.887Z" fill="#C7C7C7"/>
<path d="M473.685 339.108H289.912V319.729H358.708L381.839 185.068H466.692L473.685 339.108Z" fill="#DBDBDB"/>
<path d="M473.686 339.108H463.666L457.143 185.068H466.693L473.686 339.108Z" fill="#C7C7C7"/>
<path d="M285.267 509.058C288.909 509.528 388.282 486.374 391.503 483.134C391.892 482.794 387.197 463.691 387.197 463.691C385.579 455.832 359.76 391.669 359.76 391.669L294.785 407.726L322.303 467.174C322.303 467.174 309.92 475.567 299.269 483.571C294.565 486.892 290.068 490.495 285.801 494.362C282.644 498.219 281.657 508.637 285.267 509.058Z" fill="#AD6359"/>
<path d="M285.266 509.058C288.908 509.528 388.282 486.375 391.503 483.134C391.891 482.794 387.197 463.691 387.197 463.691C386.663 461.114 383.539 452.43 379.54 441.947L317.365 456.448L322.319 467.174C322.319 467.174 309.936 475.584 299.284 483.571C294.577 486.887 290.08 490.491 285.817 494.362C282.644 498.219 281.657 508.637 285.266 509.058Z" fill="#EBEBEB"/>
<path d="M284.975 509.35C288.747 509.739 388.913 487.266 392.183 483.993C393.445 482.761 384.559 450.469 384.526 450.275L320.393 464.452L320.668 465.538C320.668 465.538 288.455 490.263 285.234 494.184C282.013 498.105 281.22 508.977 284.975 509.35Z" fill="#FECF00"/>
<path d="M285.234 505.218C302.037 501.006 370.169 485.645 387.084 482.761C387.23 482.761 387.246 482.761 387.084 482.875C370.525 487.395 302.263 502.221 285.267 505.559C284.894 505.526 284.895 505.299 285.234 505.218Z" fill="#263238"/>
<path d="M315.52 465.23C321.882 462.492 330.25 461.698 336.385 465.23C336.628 465.36 336.385 465.7 336.191 465.684C329.379 465.057 322.52 465.16 315.73 465.991C315.649 465.977 315.573 465.94 315.512 465.884C315.451 465.829 315.407 465.757 315.385 465.677C315.363 465.598 315.364 465.513 315.388 465.434C315.412 465.355 315.458 465.284 315.52 465.23Z" fill="#263238"/>
<path d="M311.376 469.199C317.738 466.461 326.091 465.667 332.242 469.199C332.468 469.345 332.242 469.685 332.047 469.653C325.235 469.04 318.377 469.148 311.587 469.977C311.502 469.966 311.422 469.929 311.358 469.872C311.293 469.816 311.247 469.741 311.224 469.658C311.202 469.575 311.204 469.487 311.231 469.406C311.258 469.324 311.309 469.252 311.376 469.199Z" fill="#263238"/>
<path d="M307.233 473.12C313.594 470.398 321.947 469.588 328.098 473.12C328.325 473.266 328.098 473.59 327.904 473.574C321.092 472.945 314.232 473.053 307.443 473.898C307.358 473.887 307.278 473.85 307.214 473.793C307.149 473.737 307.103 473.662 307.081 473.579C307.058 473.496 307.061 473.408 307.088 473.327C307.115 473.245 307.165 473.174 307.233 473.12Z" fill="#263238"/>
<path d="M308.721 461.471C314.258 464.063 320.7 464.193 326.641 464.987C326.773 464.994 326.905 464.969 327.025 464.915C327.146 464.862 327.253 464.78 327.336 464.678C327.42 464.575 327.478 464.454 327.506 464.325C327.534 464.196 327.532 464.062 327.499 463.934C327.526 463.925 327.55 463.911 327.571 463.891C327.592 463.872 327.609 463.849 327.619 463.822C327.63 463.796 327.635 463.768 327.634 463.739C327.633 463.711 327.625 463.683 327.612 463.658C324.274 458.212 319.562 453.741 313.95 450.696C310.713 448.995 305.436 448.46 303.623 452.64C301.81 456.82 305.5 459.948 308.721 461.471ZM305.84 456.513C303.024 449.481 311.716 451.555 314.096 452.899C315.62 453.803 317.08 454.81 318.466 455.913C321.396 458.165 323.937 460.774 326.56 463.285C323.662 462.718 320.749 462.394 317.835 461.941C314.403 461.373 307.378 460.385 305.84 456.513Z" fill="#263238"/>
<path d="M347.523 448.557C344.981 444.766 339.931 446.24 337.001 448.557C332.048 452.566 328.236 457.807 325.945 463.755C325.945 463.885 325.945 463.966 326.091 463.998C326.091 464.517 326.544 465.084 327.127 464.89C332.825 463.01 339.154 461.73 344.107 458.165C347.005 456.043 349.919 452.138 347.523 448.557ZM335.188 460.256C332.404 461.244 329.604 462.087 326.852 463.172C328.921 460.156 331.142 457.247 333.505 454.455C334.67 453.113 335.925 451.852 337.26 450.68C339.364 448.914 347.523 445.301 346.05 452.721C345.224 456.804 338.507 459.073 335.188 460.256Z" fill="#263238"/>
<path d="M317.268 465.02L386.582 449.481C386.582 449.481 329.425 316.732 334.492 310.024C337.017 306.67 401.215 305.682 421.643 288.361C448.174 265.871 430.368 231.505 430.368 231.505L358.659 229.366C358.659 229.366 359.533 244.354 356.733 246.622C354.887 248.129 269.451 255.307 260.063 284.132C248.521 319.454 317.268 465.02 317.268 465.02Z" fill="#37474F"/>
<path d="M315.262 452.446C317.091 451.684 334.994 446.597 338.992 445.576C347.086 443.502 355.179 441.477 363.273 439.565C367.498 438.576 376.563 436.421 377.113 436.454C377.161 436.467 377.203 436.495 377.233 436.535C377.263 436.574 377.28 436.623 377.28 436.672C377.28 436.722 377.263 436.77 377.233 436.81C377.203 436.85 377.161 436.878 377.113 436.891C369.214 439.37 361.217 441.525 353.237 443.696C345.257 445.868 317.787 452.592 315.408 452.867C315.197 452.883 315.003 452.559 315.262 452.446Z" fill="#263238"/>
<path d="M322.125 304.061C323.756 303.06 325.619 302.502 327.531 302.441C337.891 300.724 348.24 298.99 358.578 297.24C368.291 295.62 378.003 294.161 387.715 292.379C395.696 290.759 403.822 288.766 410.717 284.44C417.47 280.173 422.472 273.626 424.816 265.985C427.007 258.302 427.629 250.257 426.646 242.329C426.468 240.401 426.111 238.473 425.755 236.577C425.755 236.547 425.767 236.518 425.788 236.497C425.81 236.475 425.839 236.463 425.869 236.463C425.899 236.463 425.927 236.475 425.949 236.497C425.97 236.518 425.982 236.547 425.982 236.577C428.604 251.273 428.831 268.334 417.888 280.049C412.514 285.752 405.149 289.106 397.622 291.294C389.033 293.479 380.326 295.172 371.544 296.365L340.416 301.372C335.431 302.198 330.38 302.846 325.443 303.867C324.446 303.997 323.507 304.413 322.74 305.066C322.38 305.584 322.151 306.183 322.075 306.81C321.999 307.437 322.077 308.073 322.303 308.663C322.805 311.093 323.468 313.524 324.165 315.906C329.814 335.203 367.951 427.284 369.068 429.325C369.181 429.536 368.825 429.714 368.712 429.503C359.21 412.571 331.578 341.457 325.314 323.197C323.65 318.553 322.287 313.807 321.235 308.987C320.879 307.318 320.668 305.358 322.125 304.061Z" fill="#263238"/>
<path d="M149.926 510.128C153.39 511.311 252.86 509.901 256.648 507.471C258.121 506.077 259.286 493.342 260.176 477.512L277.286 409.606L213.315 409.071L194.57 476.507C194.57 476.507 180.762 482.275 168.67 487.995C163.406 490.312 158.287 492.947 153.341 495.886C149.521 499.045 146.445 508.994 149.926 510.128Z" fill="#AD6359"/>
<path d="M147.886 510.209C151.479 511.392 254.139 510.905 258.04 508.394C259.529 507.471 260.338 492.515 260.775 474.368C260.775 474.174 260.775 473.996 260.775 473.801L194.537 473.38V474.498C194.537 474.498 155.316 492.321 151.318 495.464C147.319 498.608 144.292 509.026 147.886 510.209Z" fill="#FECF00"/>
<path d="M149.019 506.223C166.323 505.704 236.171 505.299 253.313 506.109C253.459 506.109 253.459 506.207 253.313 506.223C236.171 507.098 166.323 506.952 149.019 506.498C148.663 506.498 148.663 506.223 149.019 506.223Z" fill="#263238"/>
<path d="M187.172 473.655C193.987 472.343 202.307 473.347 207.536 478.176C207.746 478.37 207.536 478.646 207.261 478.581C200.741 476.507 194.017 475.143 187.205 474.514C187.104 474.499 187.012 474.449 186.944 474.373C186.877 474.297 186.838 474.2 186.834 474.098C186.83 473.996 186.862 473.897 186.923 473.816C186.985 473.735 187.073 473.678 187.172 473.655Z" fill="#263238"/>
<path d="M182.267 476.637C189.082 475.324 197.419 476.345 202.647 481.157C202.841 481.352 202.647 481.627 202.356 481.562C195.832 479.504 189.11 478.14 182.3 477.495C182.199 477.48 182.107 477.43 182.04 477.354C181.972 477.278 181.933 477.181 181.929 477.079C181.925 476.978 181.957 476.878 182.019 476.797C182.08 476.716 182.168 476.66 182.267 476.637Z" fill="#263238"/>
<path d="M177.379 479.602C184.178 478.305 192.514 479.31 197.743 484.138C197.937 484.317 197.743 484.608 197.451 484.527C190.933 482.47 184.216 481.106 177.412 480.46C177.311 480.445 177.219 480.395 177.151 480.319C177.084 480.243 177.045 480.146 177.041 480.044C177.037 479.943 177.069 479.843 177.13 479.762C177.192 479.681 177.28 479.625 177.379 479.602Z" fill="#263238"/>
<path d="M181.296 468.519C186.152 472.246 192.417 473.753 198.05 475.794C198.633 476.021 199.086 475.47 199.102 474.952C199.215 474.952 199.313 474.838 199.264 474.692C197.168 468.676 193.528 463.318 188.71 459.154C185.845 456.788 180.859 455.152 178.205 458.846C175.55 462.54 178.528 466.348 181.296 468.519ZM179.532 463.059C178.302 455.589 186.347 459.478 188.37 461.309C189.67 462.521 190.887 463.82 192.012 465.197C194.376 468.001 196.302 471.111 198.374 474.125C195.671 472.959 192.886 472.019 190.134 470.885C186.913 469.653 180.26 467.174 179.58 463.059H179.532Z" fill="#263238"/>
<path d="M222.007 464.209C220.388 459.98 215.095 460.337 211.744 461.941C206.047 464.79 201.196 469.086 197.678 474.401C197.661 474.424 197.65 474.451 197.646 474.479C197.642 474.508 197.645 474.537 197.655 474.564C197.664 474.591 197.68 474.615 197.701 474.635C197.722 474.654 197.747 474.669 197.775 474.676C197.733 474.805 197.723 474.941 197.745 475.074C197.768 475.207 197.821 475.333 197.902 475.441C197.983 475.549 198.089 475.636 198.21 475.695C198.332 475.753 198.466 475.782 198.6 475.778C204.557 475.162 211.016 475.259 216.617 472.845C219.887 471.5 223.577 468.26 222.007 464.209ZM207.439 473.007C204.509 473.38 201.579 473.591 198.665 474.077C201.336 471.568 204.135 469.199 207.05 466.98C208.467 465.915 209.96 464.957 211.518 464.112C213.93 462.832 222.687 461.033 219.611 467.968C217.993 471.792 210.935 472.57 207.455 473.007H207.439Z" fill="#263238"/>
<path d="M188.306 474.126H262.961C262.961 474.126 294.914 347.225 300.58 339.983C308.123 330.358 413.631 330.569 436.261 299.136C456.576 270.91 439.417 230.954 439.417 230.954L359.517 228.459C361.314 237.031 363.793 245.446 366.931 253.622C366.931 253.622 270.682 271.445 243.714 300.885C225.52 320.815 188.306 474.126 188.306 474.126Z" fill="#37474F"/>
<path d="M352.993 248.21C355.312 248.718 357.578 249.445 359.76 250.381C362.058 251.256 364.308 252.245 366.526 253.314C370.865 255.472 375.086 257.863 379.168 260.476C379.281 260.476 379.168 260.719 379.039 260.654C374.717 258.418 370.249 256.393 365.781 254.465L359.306 251.694C357.102 250.841 354.941 249.878 352.831 248.81C352.524 248.648 352.67 248.146 352.993 248.21Z" fill="#263238"/>
<path d="M357.736 228.459C358.643 232.105 359.452 235.783 360.488 239.396C360.974 241.016 361.443 242.734 362.107 244.257C362.77 245.78 363.434 247.173 365.004 247.497C366.817 247.838 367.335 246.282 367.189 244.792C367.044 243.301 366.591 241.454 366.267 239.817C365.878 237.927 365.506 236.031 365.15 234.13C364.988 233.174 364.81 232.234 364.648 231.278C364.648 231.035 364.421 229.221 364.292 228.702C364.292 228.702 364.292 228.702 364.195 228.702C364.17 228.695 364.147 228.683 364.128 228.666C364.108 228.649 364.092 228.628 364.082 228.605C364.082 228.459 364.082 228.427 364.179 228.33C364.203 228.313 364.231 228.305 364.26 228.305C364.288 228.305 364.317 228.313 364.341 228.33C364.68 228.524 364.713 228.994 364.826 229.35C365.118 230.274 365.425 231.197 365.684 232.121C366.186 233.871 366.688 235.605 367.125 237.371C367.562 239.137 367.999 240.887 368.436 242.637C368.891 243.936 369.014 245.328 368.792 246.687C368.629 247.333 368.262 247.909 367.746 248.329C367.23 248.75 366.592 248.992 365.927 249.02L366.121 249.377C366.267 249.733 366.396 250.122 366.526 250.479C366.655 250.835 366.785 251.24 366.898 251.629C367.011 252.018 366.979 252.002 367.011 252.196C367.044 252.391 367.011 252.601 367.011 252.812C367.011 253.023 366.607 253.347 366.445 253.023C366.341 252.844 366.228 252.671 366.105 252.504C365.996 252.315 365.909 252.114 365.846 251.905C365.716 251.532 365.619 251.175 365.522 250.803C365.425 250.43 365.312 250.057 365.247 249.685C365.182 249.312 365.247 249.231 365.247 249.02C364.485 248.946 363.758 248.666 363.143 248.21C362.112 247.335 361.354 246.182 360.957 244.889C360.407 243.366 359.986 241.794 359.565 240.239C358.443 236.4 357.663 232.469 357.234 228.492C357.264 228.455 357.301 228.424 357.343 228.402C357.385 228.38 357.431 228.367 357.478 228.364C357.525 228.361 357.573 228.368 357.617 228.384C357.662 228.401 357.702 228.426 357.736 228.459Z" fill="#263238"/>
<path d="M405.295 237.419C405.635 239.218 405.845 241.049 406.25 242.847C406.654 244.646 407.14 246.363 407.723 248.064C408.239 249.727 408.986 251.308 409.94 252.763C410.941 254.129 412.135 255.341 413.485 256.36C416.063 258.406 418.955 260.02 422.048 261.14C423.607 261.695 425.196 262.16 426.807 262.534C427.649 262.712 428.426 262.858 429.349 262.971C430.058 262.994 430.756 263.154 431.405 263.441C431.465 263.479 431.514 263.531 431.549 263.594C431.583 263.656 431.601 263.726 431.601 263.797C431.601 263.869 431.583 263.939 431.549 264.001C431.514 264.063 431.465 264.116 431.405 264.154C430.174 264.521 428.87 264.566 427.617 264.283C426.253 264.143 424.9 263.905 423.57 263.571C420.884 262.854 418.312 261.763 415.93 260.33C413.484 258.976 411.293 257.205 409.455 255.096C407.75 252.899 406.576 250.337 406.023 247.611C405.189 244.281 404.818 240.851 404.922 237.419C404.922 237.395 404.927 237.371 404.937 237.348C404.946 237.325 404.96 237.305 404.977 237.287C404.994 237.27 405.015 237.256 405.037 237.247C405.06 237.238 405.084 237.233 405.109 237.233C405.133 237.233 405.157 237.238 405.18 237.247C405.202 237.256 405.223 237.27 405.24 237.287C405.257 237.305 405.271 237.325 405.28 237.348C405.29 237.371 405.295 237.395 405.295 237.419Z" fill="#263238"/>
<path d="M196.026 460.758C198.015 460.528 200.014 460.404 202.016 460.385C204.104 460.288 206.208 460.207 208.312 460.142C212.44 460.013 216.584 459.932 220.728 459.932C229.048 459.932 237.385 459.932 245.721 460.029C250.059 460.11 259.383 460.223 259.885 460.385C259.933 460.399 259.975 460.427 260.005 460.467C260.035 460.506 260.051 460.554 260.051 460.604C260.051 460.654 260.035 460.702 260.005 460.742C259.975 460.781 259.933 460.81 259.885 460.823C251.613 461.26 243.342 461.39 235.054 461.536C226.766 461.682 218.527 461.827 210.255 461.682C207.956 461.682 205.674 461.552 203.392 461.487C200.97 461.522 198.549 461.42 196.14 461.179C195.865 461.147 195.751 460.79 196.026 460.758Z" fill="#263238"/>
<path d="M291.871 341.003C292.553 338.687 293.608 336.498 294.996 334.522C296.652 332.836 298.789 331.704 301.114 331.282C321.008 325.838 341.582 323.391 361.784 319.551C371.77 317.764 381.636 315.362 391.325 312.357C401.148 309.471 410.539 305.281 419.248 299.897C423.501 297.163 427.028 293.438 429.527 289.041C431.834 284.792 433.472 280.212 434.383 275.463C436.542 264.63 436.514 253.475 434.302 242.653C433.77 239.954 433.089 237.288 432.263 234.665C432.263 234.503 432.457 234.438 432.522 234.665C436.265 245.079 437.808 256.158 437.054 267.2C436.326 276.824 433.995 286.935 427.795 294.55C424.575 298.269 420.674 301.338 416.302 303.591C411.757 306.093 407.059 308.306 402.236 310.218C392.817 313.889 383.116 316.788 373.228 318.887C353.043 323.359 332.436 325.627 312.251 330.115C309.758 330.666 307.282 331.266 304.805 331.898C302.255 332.311 299.783 333.109 297.472 334.263C295.076 335.754 294.235 338.735 293.344 341.214C292.308 343.952 259.853 453.888 259.109 456.659C258.995 457.113 258.315 456.902 258.429 456.448C261.229 445.22 289.751 346.399 291.871 341.003Z" fill="#263238"/>
<path d="M297.844 343.919C298.605 341.521 299.269 338.945 301.503 337.438C303.736 335.932 335.674 331.686 339.267 331.135C339.445 331.135 339.51 331.362 339.267 331.395C336.192 331.913 306.682 337.212 304.044 338.087C302.924 338.405 301.925 339.055 301.179 339.95C300.408 341.178 299.86 342.533 299.56 343.952C298.654 346.82 297.731 349.671 296.824 352.539C295.011 358.275 293.199 364.027 291.467 369.795C289.508 376.276 287.258 383.195 285.574 389.806C285.445 390.308 284.716 390.065 284.814 389.579C286.966 377.216 296.824 346.901 297.844 343.919Z" fill="#263238"/>
<path d="M366.542 253.881C351.79 255.653 337.209 258.644 322.95 262.825C308.568 266.859 294.501 271.944 280.863 278.04C273.223 281.475 265.825 285.315 258.476 289.382C258.331 289.382 258.476 289.673 258.622 289.592C271.85 282.767 285.508 276.813 299.511 271.769C313.419 266.695 327.653 262.565 342.116 259.407C350.209 257.64 358.448 256.263 366.671 254.902C367.238 254.756 367.092 253.817 366.542 253.881Z" fill="#263238"/>
<path d="M373.811 145.047C365.394 175.022 344.917 211.009 339.818 212.84C330.704 216.08 272.333 214.233 270.067 213.763C264.45 212.613 261.569 173.856 266.7 170.486C267.882 169.708 329.83 178.166 332.21 177.712C335.172 177.177 344.01 156.243 360.262 137.853C371.626 124.94 378.295 129.104 373.811 145.047Z" fill="#EB9481"/>
<path d="M277.238 212.597C271.545 214.283 265.749 215.593 259.885 216.518C255.239 217.052 241.82 218.235 240.735 213.164C239.975 209.712 247.793 208.092 253.281 206.828C256.178 206.148 259.998 203.879 259.48 201.968C258.606 198.727 251.128 200.574 246.093 202.454C236.381 206.115 223.011 213.391 218.365 207.979C216.617 205.921 219.498 203.231 223.496 200.785C217.264 203.377 210.757 205.257 208.717 203.053C208.19 202.491 207.897 201.75 207.897 200.979C207.897 200.209 208.19 199.467 208.717 198.905C207.953 199.118 207.142 199.098 206.39 198.847C205.637 198.596 204.976 198.125 204.492 197.496C202.987 195.26 204.347 192.635 206.84 190.026C206.502 189.931 206.193 189.756 205.936 189.516C205.68 189.277 205.485 188.979 205.367 188.649C202.485 182.071 224.791 168.363 231.768 167.909C252.309 166.548 273.045 171.814 273.045 171.814C279.763 179.365 277.254 212.58 277.238 212.597Z" fill="#EB9481"/>
<path d="M251.305 189.232C246.475 189.141 241.684 190.114 237.271 192.084C232.124 194.466 227.721 198.176 222.865 201.044C222.735 201.044 222.865 201.336 222.978 201.255C225.309 199.732 227.834 198.452 230.165 197.026C232.496 195.6 234.778 194.174 237.19 192.943C241.559 190.677 246.387 189.441 251.305 189.329C251.305 189.329 251.354 189.232 251.305 189.232Z" fill="#263238"/>
<path d="M249.04 180.223C243.567 180.588 238.144 181.5 232.853 182.945C227.122 184.744 222.25 188.422 217.491 191.97C214.626 194.093 211.793 196.264 209.041 198.452C208.912 198.549 209.041 198.743 209.155 198.662C214.011 194.979 218.975 191.463 224.047 188.114C228.729 184.955 233.988 182.753 239.522 181.633C242.678 181.017 245.883 180.628 249.088 180.24C249.105 180.304 249.105 180.223 249.04 180.223Z" fill="#263238"/>
<path d="M244.734 171.944C239.506 172.138 235.022 172.268 230.036 174.228C224.455 176.711 219.207 179.884 214.416 183.675C211.809 185.668 209.268 187.742 206.759 189.848C206.646 189.848 206.759 190.123 206.905 190.026C212.614 185.428 218.616 181.206 224.872 177.388C227.82 175.514 231.042 174.115 234.423 173.24C237.818 172.527 241.268 172.105 244.734 171.976C244.734 171.976 244.75 171.944 244.734 171.944Z" fill="#263238"/>
<path d="M281.981 167.375L276.704 216.145C276.704 216.145 324.359 219.386 340.32 214.525C348.899 211.884 369.797 163.518 374.491 146.959C379.12 130.756 374.345 119.965 360.311 135.536C347.086 150.232 333.812 175.314 332.226 175.897C330.64 176.481 281.981 167.375 281.981 167.375Z" fill="#FECF00"/>
<path opacity="0.1" d="M369.715 128.229C369.642 128.602 369.462 128.945 369.197 129.217C369.117 129.311 369.025 129.393 368.922 129.46C368.709 129.602 368.474 129.706 368.226 129.768H367.821H367.433C367.259 129.72 367.091 129.655 366.931 129.574L366.138 130.092H366.218C366.432 130.248 366.667 130.373 366.915 130.465C367.056 130.518 367.202 130.556 367.352 130.578H367.821C368.061 130.576 368.299 130.549 368.533 130.497C368.985 130.384 369.402 130.161 369.747 129.849C369.923 129.706 370.076 129.536 370.201 129.347C370.477 128.949 370.645 128.485 370.686 128.002C370.355 128.039 370.029 128.115 369.715 128.229ZM366.736 129.46L366.931 129.574C366.859 129.55 366.793 129.511 366.736 129.46ZM280.135 184.371L279.989 185.732C280.091 185.956 280.141 186.2 280.135 186.445C280.132 186.838 280.014 187.221 279.795 187.547L279.649 188.86C280.07 188.613 280.418 188.26 280.66 187.836C280.901 187.413 281.027 186.933 281.025 186.445C281.028 186.057 280.95 185.672 280.797 185.315C280.643 184.958 280.418 184.637 280.135 184.371ZM303.801 183.594C303.237 183.594 302.686 183.761 302.218 184.074C301.749 184.388 301.384 184.833 301.169 185.354C300.953 185.875 300.897 186.449 301.006 187.002C301.116 187.555 301.388 188.063 301.786 188.462C302.185 188.861 302.692 189.132 303.245 189.242C303.798 189.352 304.37 189.296 304.891 189.08C305.412 188.864 305.856 188.499 306.17 188.03C306.483 187.561 306.65 187.009 306.65 186.445C306.65 185.689 306.349 184.964 305.815 184.429C305.281 183.894 304.556 183.594 303.801 183.594ZM303.801 188.455C303.286 188.455 302.791 188.25 302.427 187.885C302.063 187.52 301.858 187.026 301.858 186.51C301.858 185.995 302.063 185.5 302.427 185.135C302.791 184.771 303.286 184.566 303.801 184.566C304.316 184.566 304.81 184.771 305.174 185.135C305.539 185.5 305.743 185.995 305.743 186.51C305.743 187.026 305.539 187.52 305.174 187.885C304.81 188.25 304.316 188.455 303.801 188.455ZM329.425 183.594C328.861 183.59 328.308 183.755 327.838 184.066C327.367 184.378 327 184.822 326.781 185.343C326.563 185.864 326.505 186.437 326.613 186.992C326.721 187.546 326.991 188.056 327.389 188.456C327.786 188.856 328.294 189.13 328.847 189.241C329.4 189.352 329.974 189.297 330.495 189.082C331.017 188.866 331.463 188.501 331.776 188.031C332.09 187.562 332.258 187.01 332.258 186.445C332.258 185.692 331.96 184.969 331.429 184.435C330.898 183.9 330.178 183.598 329.425 183.594ZM329.425 188.455C328.91 188.455 328.416 188.25 328.051 187.885C327.687 187.52 327.483 187.026 327.483 186.51C327.483 185.995 327.687 185.5 328.051 185.135C328.416 184.771 328.91 184.566 329.425 184.566C329.94 184.566 330.434 184.771 330.799 185.135C331.163 185.5 331.367 185.995 331.367 186.51C331.367 187.026 331.163 187.52 330.799 187.885C330.434 188.25 329.94 188.455 329.425 188.455ZM355.033 183.594C354.468 183.587 353.914 183.749 353.442 184.058C352.969 184.368 352.599 184.811 352.378 185.331C352.157 185.852 352.096 186.426 352.203 186.982C352.309 187.537 352.578 188.048 352.975 188.45C353.372 188.852 353.879 189.127 354.433 189.24C354.986 189.352 355.561 189.298 356.083 189.083C356.606 188.868 357.053 188.503 357.367 188.033C357.682 187.563 357.85 187.011 357.85 186.445C357.85 185.695 357.554 184.974 357.027 184.44C356.499 183.906 355.783 183.602 355.033 183.594ZM355.033 188.455C354.649 188.458 354.272 188.347 353.951 188.136C353.63 187.925 353.379 187.623 353.229 187.269C353.079 186.915 353.037 186.525 353.109 186.147C353.181 185.769 353.363 185.421 353.632 185.147C353.901 184.873 354.246 184.685 354.622 184.607C354.998 184.528 355.389 184.564 355.745 184.708C356.101 184.852 356.407 185.099 356.623 185.417C356.839 185.735 356.956 186.109 356.959 186.494C356.955 187.003 356.75 187.489 356.39 187.847C356.029 188.205 355.541 188.406 355.033 188.406V188.455ZM290.916 202.924C290.357 202.93 289.812 203.102 289.351 203.417C288.889 203.733 288.531 204.178 288.322 204.696C288.112 205.215 288.061 205.784 288.174 206.332C288.287 206.88 288.559 207.382 288.956 207.775C289.354 208.169 289.859 208.435 290.407 208.542C290.956 208.649 291.524 208.591 292.039 208.375C292.555 208.16 292.996 207.797 293.306 207.331C293.615 206.865 293.781 206.319 293.781 205.759C293.785 205.381 293.714 205.005 293.572 204.654C293.43 204.303 293.219 203.984 292.952 203.716C292.686 203.447 292.368 203.235 292.018 203.09C291.669 202.946 291.294 202.873 290.916 202.875V202.924ZM290.916 207.784C290.429 207.74 289.977 207.515 289.647 207.154C289.318 206.793 289.135 206.321 289.135 205.832C289.135 205.343 289.318 204.871 289.647 204.51C289.977 204.149 290.429 203.924 290.916 203.88C291.402 203.924 291.855 204.149 292.184 204.51C292.514 204.871 292.696 205.343 292.696 205.832C292.696 206.321 292.514 206.793 292.184 207.154C291.855 207.515 291.402 207.74 290.916 207.784ZM316.556 202.924C315.997 202.927 315.451 203.096 314.987 203.409C314.523 203.723 314.163 204.167 313.951 204.685C313.739 205.204 313.685 205.773 313.796 206.322C313.907 206.871 314.178 207.375 314.575 207.77C314.972 208.165 315.477 208.433 316.026 208.541C316.575 208.649 317.143 208.592 317.66 208.377C318.177 208.162 318.618 207.799 318.929 207.333C319.239 206.867 319.405 206.319 319.405 205.759C319.409 205.382 319.339 205.008 319.198 204.658C319.056 204.308 318.847 203.99 318.582 203.722C318.317 203.453 318.002 203.24 317.654 203.095C317.306 202.95 316.933 202.875 316.556 202.875V202.924ZM316.556 207.784C316.07 207.74 315.617 207.515 315.288 207.154C314.958 206.793 314.775 206.321 314.775 205.832C314.775 205.343 314.958 204.871 315.288 204.51C315.617 204.149 316.07 203.924 316.556 203.88C317.043 203.924 317.495 204.149 317.825 204.51C318.154 204.871 318.337 205.343 318.337 205.832C318.337 206.321 318.154 206.793 317.825 207.154C317.495 207.515 317.043 207.74 316.556 207.784ZM342.213 202.924C341.653 202.927 341.107 203.096 340.644 203.409C340.18 203.723 339.819 204.167 339.607 204.685C339.395 205.204 339.342 205.773 339.453 206.322C339.564 206.871 339.835 207.375 340.232 207.77C340.629 208.165 341.133 208.433 341.682 208.541C342.231 208.649 342.8 208.592 343.317 208.377C343.833 208.162 344.275 207.799 344.586 207.333C344.896 206.867 345.062 206.319 345.062 205.759C345.066 205.382 344.996 205.008 344.854 204.658C344.713 204.308 344.504 203.99 344.239 203.722C343.974 203.453 343.658 203.24 343.311 203.095C342.963 202.95 342.59 202.875 342.213 202.875V202.924ZM342.213 207.784C341.825 207.784 341.447 207.669 341.125 207.454C340.803 207.239 340.552 206.932 340.403 206.574C340.255 206.216 340.216 205.822 340.292 205.441C340.367 205.061 340.554 204.712 340.828 204.438C341.102 204.163 341.451 203.977 341.831 203.901C342.211 203.825 342.605 203.864 342.962 204.013C343.32 204.161 343.626 204.412 343.841 204.735C344.057 205.057 344.172 205.436 344.172 205.824C344.146 206.325 343.929 206.798 343.564 207.142C343.198 207.486 342.714 207.676 342.213 207.671V207.784ZM355.033 144.772C354.469 144.765 353.916 144.927 353.443 145.236C352.971 145.544 352.601 145.986 352.38 146.506C352.159 147.025 352.097 147.599 352.202 148.154C352.307 148.709 352.574 149.22 352.969 149.622C353.365 150.025 353.871 150.301 354.423 150.416C354.976 150.53 355.549 150.478 356.072 150.266C356.595 150.053 357.043 149.69 357.359 149.223C357.676 148.755 357.846 148.204 357.85 147.64C357.867 147.257 357.807 146.875 357.674 146.516C357.541 146.157 357.337 145.829 357.074 145.551C356.811 145.272 356.495 145.05 356.144 144.897C355.794 144.743 355.416 144.662 355.033 144.658V144.772ZM355.033 149.633C354.644 149.639 354.261 149.529 353.935 149.317C353.608 149.105 353.352 148.8 353.199 148.441C353.046 148.083 353.004 147.687 353.077 147.304C353.15 146.921 353.336 146.569 353.61 146.292C353.884 146.015 354.235 145.826 354.617 145.75C354.998 145.673 355.394 145.713 355.754 145.863C356.113 146.012 356.42 146.266 356.635 146.591C356.85 146.917 356.963 147.299 356.959 147.688C356.923 148.174 356.704 148.628 356.346 148.958C355.989 149.289 355.52 149.472 355.033 149.471V149.633ZM288.876 168.801C289.136 169.105 289.458 169.35 289.822 169.518C290.185 169.686 290.58 169.773 290.98 169.773C291.435 169.777 291.882 169.66 292.275 169.432L288.876 168.801ZM367.821 164.086C367.207 164.087 366.611 164.288 366.121 164.657C365.631 165.027 365.275 165.546 365.105 166.136C364.935 166.727 364.962 167.356 365.18 167.93C365.398 168.504 365.797 168.991 366.316 169.319C366.429 169.044 366.558 168.752 366.656 168.477C366.416 168.301 366.221 168.072 366.086 167.808C365.951 167.543 365.88 167.25 365.879 166.953C365.879 166.438 366.083 165.943 366.447 165.579C366.812 165.214 367.306 165.009 367.821 165.009H368.08C368.193 164.717 368.307 164.426 368.436 164.134C368.241 164.038 368.034 163.967 367.821 163.924V164.086ZM366.736 129.622L366.931 129.736C366.839 129.666 366.771 129.57 366.736 129.46V129.622ZM369.715 128.391C369.642 128.764 369.462 129.107 369.197 129.379C369.117 129.473 369.025 129.555 368.922 129.622C368.709 129.764 368.474 129.868 368.226 129.93H367.821H367.433C367.259 129.882 367.091 129.817 366.931 129.736L366.138 130.254L365.959 130.108C366.005 130.17 366.06 130.225 366.121 130.27C366.121 130.27 366.121 130.27 366.218 130.27C366.432 130.426 366.667 130.551 366.915 130.643C367.056 130.696 367.202 130.734 367.352 130.756C367.508 130.772 367.665 130.772 367.821 130.756C368.062 130.757 368.301 130.724 368.533 130.659C368.985 130.546 369.402 130.323 369.747 130.011C369.923 129.868 370.076 129.698 370.201 129.509C370.505 129.065 370.674 128.541 370.686 128.002C370.355 128.039 370.029 128.115 369.715 128.229V128.391ZM366.736 129.622L366.931 129.736C366.839 129.666 366.771 129.57 366.736 129.46V129.622ZM342.213 164.086C341.65 164.086 341.1 164.252 340.632 164.565C340.164 164.878 339.798 165.322 339.582 165.842C339.366 166.362 339.309 166.935 339.418 167.488C339.526 168.04 339.796 168.549 340.193 168.948C340.59 169.347 341.096 169.62 341.647 169.732C342.199 169.844 342.771 169.79 343.292 169.576C343.813 169.363 344.259 169 344.574 168.533C344.889 168.066 345.059 167.517 345.062 166.953C345.086 166.564 345.031 166.174 344.898 165.807C344.766 165.441 344.56 165.105 344.293 164.821C344.026 164.537 343.704 164.311 343.346 164.156C342.988 164.002 342.602 163.923 342.213 163.924V164.086ZM342.213 168.946C341.944 168.971 341.673 168.939 341.417 168.853C341.161 168.767 340.926 168.629 340.726 168.446C340.527 168.264 340.368 168.042 340.259 167.795C340.15 167.548 340.093 167.28 340.093 167.01C340.093 166.74 340.15 166.473 340.259 166.225C340.368 165.978 340.527 165.756 340.726 165.574C340.926 165.392 341.161 165.253 341.417 165.167C341.673 165.081 341.944 165.049 342.213 165.074C342.695 165.118 343.144 165.341 343.471 165.699C343.797 166.058 343.978 166.525 343.978 167.01C343.978 167.495 343.797 167.963 343.471 168.321C343.144 168.679 342.695 168.902 342.213 168.946Z" fill="black"/>
<path d="M289.573 191.954C289.913 188.519 290.237 185.068 290.528 181.633C290.819 178.198 291.24 174.731 291.289 171.296C291.289 171.134 291.03 171.085 290.997 171.296C290.35 174.536 290.042 177.939 289.638 181.228C289.233 184.517 288.78 188.244 288.375 191.76C287.566 198.711 287.064 205.645 286.659 212.629C286.659 212.791 286.886 212.791 286.918 212.629C287.97 205.775 288.909 198.873 289.573 191.954Z" fill="#263238"/>
<path opacity="0.1" d="M374.491 146.927C369.796 163.486 348.899 211.835 340.32 214.492C334.066 216.03 327.658 216.851 321.219 216.939C335.188 191.177 354.71 154.704 369.133 128.423C376.158 125.685 377.939 134.759 374.491 146.927Z" fill="black"/>
<path d="M346.406 248.631C346.406 248.631 448.709 252.374 449.146 251.661C449.583 250.949 426.031 139.862 387.635 126.025C381.548 123.838 371.658 124.713 365.685 130.141C348.025 146.181 344.787 247.303 346.406 248.631Z" fill="#FECF00"/>
<path opacity="0.1" d="M370.54 127.013C370.252 127.132 369.971 127.267 369.699 127.418C369.715 127.558 369.715 127.7 369.699 127.84C369.699 128.353 369.502 128.846 369.148 129.217C369.068 129.311 368.976 129.393 368.873 129.46C368.66 129.602 368.425 129.706 368.177 129.768H367.772H367.384C367.136 129.706 366.9 129.602 366.688 129.46L366.574 129.363C366.334 129.534 366.106 129.724 365.895 129.93C365.895 129.93 365.895 129.93 365.975 129.93H366.073C366.275 130.106 366.505 130.248 366.752 130.351C367.073 130.494 367.421 130.566 367.772 130.562C368.013 130.563 368.253 130.53 368.484 130.465C368.936 130.351 369.353 130.129 369.699 129.817C369.874 129.673 370.027 129.504 370.152 129.314C370.472 128.835 370.641 128.27 370.637 127.694C370.639 127.464 370.606 127.234 370.54 127.013ZM394.4 129.525C394.224 129.629 394.033 129.706 393.834 129.752H393.445H393.057C392.809 129.69 392.573 129.586 392.361 129.444C392.258 129.376 392.165 129.294 392.085 129.201C391.907 129.024 391.765 128.815 391.665 128.585C391.612 128.464 391.568 128.34 391.535 128.212C391.527 128.083 391.527 127.953 391.535 127.824L390.677 127.37C390.652 127.542 390.652 127.716 390.677 127.888C390.674 128.465 390.843 129.029 391.163 129.509C391.287 129.698 391.44 129.868 391.616 130.011C391.962 130.323 392.378 130.546 392.83 130.659C393.062 130.724 393.301 130.757 393.542 130.756C394.173 130.756 394.784 130.538 395.274 130.141L394.4 129.525ZM367.821 163.923C367.259 163.927 366.71 164.096 366.244 164.411C365.778 164.725 365.415 165.171 365.202 165.691C364.988 166.212 364.933 166.784 365.044 167.335C365.154 167.887 365.425 168.394 365.823 168.791C366.22 169.189 366.726 169.461 367.277 169.571C367.828 169.682 368.4 169.627 368.92 169.413C369.44 169.199 369.885 168.836 370.199 168.369C370.513 167.903 370.683 167.354 370.686 166.791C370.688 166.414 370.615 166.04 370.472 165.691C370.329 165.342 370.118 165.025 369.852 164.759C369.585 164.492 369.268 164.281 368.92 164.137C368.571 163.994 368.198 163.921 367.821 163.923ZM367.821 168.784C367.552 168.809 367.281 168.777 367.025 168.691C366.769 168.605 366.534 168.466 366.334 168.284C366.135 168.102 365.976 167.88 365.867 167.633C365.758 167.386 365.701 167.118 365.701 166.848C365.701 166.578 365.758 166.31 365.867 166.063C365.976 165.816 366.135 165.594 366.334 165.412C366.534 165.23 366.769 165.091 367.025 165.005C367.281 164.919 367.552 164.887 367.821 164.912C368.303 164.956 368.752 165.179 369.078 165.537C369.405 165.896 369.586 166.363 369.586 166.848C369.586 167.333 369.405 167.8 369.078 168.159C368.752 168.517 368.303 168.74 367.821 168.784ZM393.445 163.923C392.882 163.92 392.33 164.084 391.86 164.395C391.389 164.706 391.022 165.149 390.803 165.669C390.585 166.189 390.525 166.762 390.632 167.315C390.738 167.869 391.007 168.379 391.403 168.78C391.799 169.181 392.305 169.456 392.857 169.569C393.409 169.682 393.982 169.629 394.504 169.416C395.026 169.203 395.473 168.84 395.789 168.373C396.104 167.906 396.275 167.355 396.278 166.791C396.278 166.036 395.981 165.312 395.45 164.775C394.92 164.238 394.199 163.932 393.445 163.923ZM393.445 168.784C393.061 168.781 392.686 168.664 392.369 168.447C392.051 168.231 391.805 167.925 391.661 167.569C391.517 167.212 391.481 166.821 391.559 166.445C391.638 166.068 391.825 165.723 392.099 165.454C392.373 165.184 392.721 165.002 393.098 164.93C393.476 164.858 393.866 164.9 394.22 165.05C394.573 165.2 394.875 165.452 395.085 165.773C395.296 166.095 395.407 166.472 395.404 166.856C395.379 167.359 395.162 167.833 394.797 168.18C394.432 168.527 393.948 168.72 393.445 168.719V168.784ZM420.64 164.474C420.122 164.127 419.505 163.96 418.883 163.999C418.262 164.038 417.67 164.281 417.2 164.69C416.73 165.1 416.409 165.653 416.285 166.264C416.161 166.875 416.241 167.51 416.514 168.071C416.787 168.631 417.237 169.086 417.794 169.365C418.352 169.644 418.985 169.731 419.597 169.613C420.209 169.495 420.764 169.178 421.178 168.712C421.592 168.246 421.841 167.656 421.886 167.034C421.465 166.111 421.06 165.268 420.64 164.409V164.474ZM419.021 168.784C418.636 168.784 418.26 168.67 417.94 168.455C417.62 168.241 417.371 167.936 417.225 167.58C417.078 167.224 417.041 166.832 417.117 166.455C417.193 166.077 417.38 165.731 417.653 165.459C417.926 165.188 418.274 165.004 418.652 164.931C419.03 164.858 419.421 164.899 419.776 165.048C420.13 165.198 420.432 165.45 420.644 165.771C420.855 166.093 420.967 166.471 420.963 166.856C420.943 167.355 420.731 167.826 420.372 168.173C420.014 168.52 419.536 168.716 419.037 168.719L419.021 168.784ZM357.51 146.181C357.326 146.743 357.148 147.326 356.975 147.931C356.96 148.054 356.928 148.174 356.878 148.288L356.393 150.021C356.854 149.788 357.242 149.431 357.513 148.991C357.785 148.551 357.929 148.044 357.93 147.526C357.915 147.02 357.752 146.53 357.461 146.117L357.51 146.181ZM380.69 144.723C380.126 144.72 379.574 144.884 379.104 145.195C378.634 145.505 378.266 145.949 378.048 146.468C377.829 146.988 377.769 147.561 377.876 148.115C377.983 148.669 378.251 149.179 378.648 149.58C379.044 149.981 379.55 150.255 380.102 150.368C380.654 150.482 381.227 150.428 381.749 150.215C382.271 150.003 382.718 149.64 383.033 149.173C383.349 148.705 383.519 148.155 383.522 147.591C383.531 147.208 383.463 146.826 383.322 146.47C383.181 146.113 382.969 145.789 382.701 145.515C382.432 145.242 382.111 145.025 381.758 144.878C381.404 144.731 381.024 144.656 380.641 144.658L380.69 144.723ZM380.69 149.584C380.301 149.587 379.92 149.474 379.595 149.26C379.271 149.046 379.017 148.74 378.867 148.381C378.717 148.022 378.677 147.627 378.752 147.245C378.827 146.863 379.014 146.512 379.289 146.237C379.563 145.962 379.914 145.775 380.295 145.7C380.677 145.625 381.072 145.665 381.43 145.815C381.789 145.966 382.095 146.219 382.309 146.544C382.523 146.869 382.635 147.25 382.632 147.64C382.599 148.142 382.374 148.613 382.003 148.954C381.632 149.295 381.144 149.48 380.641 149.47L380.69 149.584ZM406.265 144.723C405.703 144.726 405.155 144.896 404.689 145.21C404.223 145.525 403.86 145.971 403.646 146.491C403.433 147.011 403.378 147.583 403.488 148.135C403.599 148.687 403.87 149.193 404.267 149.591C404.665 149.989 405.171 150.26 405.722 150.371C406.273 150.481 406.844 150.426 407.364 150.212C407.884 149.999 408.329 149.636 408.644 149.169C408.958 148.703 409.127 148.154 409.13 147.591C409.141 147.211 409.076 146.833 408.939 146.479C408.801 146.124 408.595 145.801 408.331 145.528C408.067 145.255 407.751 145.037 407.402 144.888C407.053 144.738 406.677 144.66 406.298 144.658L406.265 144.723ZM406.265 149.584C405.877 149.584 405.498 149.468 405.176 149.252C404.853 149.036 404.602 148.729 404.454 148.37C404.307 148.011 404.269 147.616 404.346 147.235C404.423 146.854 404.611 146.505 404.886 146.231C405.162 145.958 405.512 145.772 405.893 145.699C406.274 145.625 406.669 145.666 407.026 145.817C407.384 145.968 407.689 146.221 407.902 146.546C408.115 146.871 408.227 147.251 408.224 147.64C408.195 148.133 407.98 148.596 407.622 148.936C407.265 149.276 406.791 149.467 406.298 149.47L406.265 149.584ZM367.869 203.053C367.304 203.05 366.75 203.217 366.28 203.532C365.81 203.847 365.445 204.296 365.232 204.82C365.018 205.344 364.967 205.921 365.084 206.475C365.201 207.029 365.481 207.535 365.888 207.928C366.295 208.322 366.81 208.584 367.367 208.682C367.925 208.779 368.498 208.708 369.014 208.476C369.531 208.244 369.966 207.863 370.264 207.382C370.561 206.901 370.709 206.341 370.686 205.775C370.692 205.395 370.623 205.018 370.482 204.665C370.34 204.312 370.13 203.992 369.863 203.721C369.596 203.451 369.278 203.237 368.927 203.092C368.577 202.946 368.2 202.873 367.821 202.875L367.869 203.053ZM367.869 207.914C367.383 207.869 366.93 207.645 366.601 207.283C366.271 206.922 366.089 206.451 366.089 205.961C366.089 205.472 366.271 205.001 366.601 204.64C366.93 204.278 367.383 204.053 367.869 204.009C368.356 204.053 368.809 204.278 369.138 204.64C369.467 205.001 369.65 205.472 369.65 205.961C369.65 206.451 369.467 206.922 369.138 207.283C368.809 207.645 368.356 207.869 367.869 207.914ZM393.494 203.053C392.933 203.053 392.386 203.219 391.92 203.531C391.454 203.843 391.091 204.285 390.877 204.803C390.662 205.322 390.606 205.892 390.715 206.442C390.825 206.992 391.094 207.497 391.491 207.894C391.887 208.29 392.392 208.56 392.941 208.67C393.491 208.779 394.06 208.723 394.578 208.508C395.095 208.294 395.538 207.93 395.849 207.464C396.16 206.998 396.326 206.449 396.326 205.889C396.349 205.498 396.29 205.107 396.155 204.74C396.02 204.373 395.811 204.037 395.54 203.755C395.27 203.472 394.945 203.248 394.584 203.097C394.224 202.945 393.836 202.87 393.445 202.875L393.494 203.053ZM393.494 207.914C393.106 207.914 392.728 207.799 392.406 207.583C392.083 207.368 391.832 207.062 391.684 206.704C391.536 206.345 391.497 205.951 391.573 205.571C391.648 205.191 391.835 204.841 392.109 204.567C392.383 204.293 392.732 204.106 393.112 204.031C393.492 203.955 393.885 203.994 394.243 204.142C394.601 204.29 394.907 204.542 395.122 204.864C395.337 205.187 395.452 205.566 395.452 205.953C395.392 206.439 395.153 206.884 394.781 207.202C394.41 207.519 393.933 207.687 393.445 207.671L393.494 207.914ZM419.086 203.053C418.527 203.059 417.982 203.231 417.521 203.547C417.059 203.862 416.701 204.307 416.492 204.826C416.282 205.344 416.231 205.913 416.344 206.461C416.457 207.009 416.729 207.511 417.126 207.905C417.524 208.298 418.029 208.565 418.577 208.672C419.126 208.779 419.694 208.72 420.209 208.505C420.725 208.289 421.166 207.926 421.475 207.46C421.785 206.995 421.951 206.448 421.951 205.889C421.973 205.495 421.914 205.101 421.777 204.732C421.64 204.363 421.427 204.026 421.154 203.743C420.88 203.459 420.551 203.236 420.186 203.087C419.822 202.937 419.431 202.865 419.037 202.875L419.086 203.053ZM419.086 207.914C418.698 207.917 418.317 207.805 417.993 207.591C417.669 207.378 417.415 207.073 417.265 206.715C417.114 206.357 417.073 205.962 417.146 205.581C417.22 205.2 417.405 204.849 417.679 204.573C417.952 204.297 418.301 204.109 418.681 204.032C419.062 203.955 419.456 203.993 419.815 204.141C420.174 204.288 420.481 204.54 420.697 204.862C420.913 205.185 421.028 205.565 421.028 205.953C420.972 206.437 420.736 206.882 420.367 207.2C419.998 207.518 419.524 207.686 419.037 207.671L419.086 207.914ZM355.082 183.837C354.517 183.83 353.963 183.992 353.49 184.301C353.017 184.611 352.647 185.054 352.426 185.574C352.206 186.095 352.145 186.669 352.251 187.224C352.357 187.78 352.626 188.291 353.023 188.693C353.42 189.095 353.928 189.37 354.481 189.483C355.035 189.595 355.609 189.541 356.132 189.326C356.654 189.111 357.101 188.746 357.416 188.276C357.73 187.806 357.898 187.254 357.898 186.688C357.932 186.292 357.883 185.894 357.754 185.518C357.625 185.143 357.419 184.798 357.149 184.507C356.879 184.215 356.552 183.984 356.187 183.826C355.823 183.669 355.43 183.59 355.033 183.594L355.082 183.837ZM355.082 188.697C354.697 188.701 354.321 188.59 354 188.379C353.678 188.168 353.427 187.866 353.277 187.512C353.127 187.158 353.085 186.767 353.157 186.39C353.229 186.012 353.411 185.664 353.68 185.39C353.95 185.116 354.294 184.928 354.671 184.849C355.047 184.771 355.438 184.806 355.794 184.951C356.15 185.095 356.455 185.342 356.671 185.659C356.888 185.977 357.005 186.352 357.008 186.737C356.944 187.211 356.706 187.644 356.341 187.952C355.977 188.26 355.51 188.422 355.033 188.406L355.082 188.697ZM380.69 183.837C380.125 183.833 379.573 183.998 379.102 184.309C378.632 184.621 378.264 185.065 378.046 185.586C377.828 186.106 377.769 186.68 377.877 187.235C377.985 187.789 378.255 188.298 378.653 188.699C379.051 189.099 379.559 189.373 380.112 189.484C380.665 189.595 381.238 189.54 381.76 189.324C382.281 189.109 382.727 188.744 383.041 188.274C383.355 187.805 383.522 187.253 383.522 186.688C383.556 186.291 383.507 185.891 383.377 185.514C383.247 185.138 383.04 184.792 382.768 184.501C382.497 184.209 382.167 183.978 381.801 183.821C381.434 183.665 381.039 183.588 380.641 183.594L380.69 183.837ZM380.69 188.697C380.306 188.697 379.931 188.584 379.612 188.371C379.293 188.158 379.044 187.855 378.897 187.501C378.749 187.146 378.71 186.756 378.783 186.38C378.857 186.003 379.04 185.656 379.31 185.384C379.581 185.111 379.925 184.925 380.301 184.848C380.677 184.771 381.067 184.807 381.422 184.952C381.777 185.097 382.082 185.344 382.297 185.661C382.512 185.979 382.629 186.353 382.632 186.737C382.561 187.21 382.319 187.642 381.953 187.949C381.586 188.257 381.119 188.419 380.641 188.406L380.69 188.697ZM406.265 183.837C405.703 183.84 405.153 184.01 404.687 184.325C404.221 184.64 403.858 185.087 403.645 185.608C403.432 186.13 403.378 186.702 403.489 187.254C403.601 187.807 403.874 188.313 404.273 188.71C404.672 189.108 405.179 189.378 405.732 189.486C406.284 189.595 406.856 189.538 407.376 189.321C407.895 189.105 408.339 188.739 408.651 188.271C408.964 187.802 409.13 187.252 409.13 186.688C409.167 186.295 409.12 185.898 408.994 185.523C408.868 185.149 408.665 184.805 408.398 184.513C408.132 184.222 407.807 183.99 407.445 183.831C407.083 183.673 406.693 183.592 406.298 183.594L406.265 183.837ZM406.265 188.697C405.883 188.694 405.509 188.578 405.192 188.363C404.875 188.148 404.629 187.844 404.484 187.49C404.339 187.135 404.302 186.745 404.377 186.37C404.453 185.994 404.637 185.649 404.908 185.378C405.179 185.107 405.523 184.923 405.899 184.847C406.274 184.771 406.663 184.809 407.017 184.954C407.372 185.099 407.675 185.346 407.89 185.663C408.105 185.98 408.221 186.354 408.224 186.737C408.158 187.201 407.926 187.625 407.572 187.932C407.218 188.238 406.766 188.407 406.298 188.406L406.265 188.697ZM430.902 188.406C430.621 188.238 430.387 188.001 430.223 187.717C430.059 187.434 429.969 187.113 429.963 186.785C429.964 186.599 429.991 186.413 430.044 186.235L429.607 185.1C429.263 185.572 429.071 186.137 429.057 186.721C429.056 187.37 429.279 187.999 429.689 188.501C430.1 189.003 430.671 189.348 431.307 189.475C431.113 188.827 430.983 188.471 430.854 188.114L430.902 188.406ZM367.869 242.086C367.293 242.082 366.73 242.253 366.253 242.576C365.776 242.899 365.408 243.36 365.198 243.897C364.988 244.433 364.945 245.021 365.075 245.583C365.206 246.145 365.503 246.653 365.928 247.042C366.354 247.431 366.887 247.682 367.457 247.762C368.028 247.841 368.609 247.746 369.124 247.488C369.639 247.23 370.064 246.822 370.343 246.317C370.622 245.813 370.742 245.236 370.686 244.662C370.688 244.285 370.615 243.911 370.472 243.562C370.329 243.213 370.118 242.896 369.852 242.629C369.585 242.362 369.268 242.151 368.92 242.008C368.571 241.864 368.198 241.792 367.821 241.794L367.869 242.086ZM367.869 246.946C367.6 246.971 367.329 246.939 367.073 246.853C366.817 246.767 366.582 246.629 366.383 246.446C366.183 246.264 366.024 246.042 365.915 245.795C365.806 245.548 365.75 245.28 365.75 245.01C365.75 244.74 365.806 244.473 365.915 244.225C366.024 243.978 366.183 243.756 366.383 243.574C366.582 243.392 366.817 243.253 367.073 243.167C367.329 243.081 367.6 243.049 367.869 243.074C368.352 243.118 368.8 243.341 369.127 243.7C369.454 244.058 369.635 244.525 369.635 245.01C369.635 245.495 369.454 245.963 369.127 246.321C368.8 246.679 368.352 246.902 367.869 246.946ZM393.494 242.086C392.93 242.082 392.378 242.246 391.908 242.557C391.438 242.868 391.07 243.311 390.852 243.831C390.633 244.351 390.573 244.924 390.68 245.478C390.787 246.031 391.055 246.541 391.452 246.942C391.848 247.343 392.354 247.618 392.906 247.731C393.458 247.844 394.031 247.791 394.553 247.578C395.075 247.365 395.522 247.002 395.837 246.535C396.153 246.068 396.323 245.517 396.326 244.953C396.367 244.552 396.323 244.146 396.197 243.762C396.07 243.379 395.864 243.026 395.592 242.728C395.32 242.43 394.988 242.193 394.618 242.032C394.248 241.871 393.849 241.79 393.445 241.794L393.494 242.086ZM393.494 246.946C393.11 246.943 392.735 246.826 392.417 246.61C392.1 246.393 391.853 246.088 391.709 245.731C391.565 245.375 391.53 244.983 391.608 244.607C391.686 244.23 391.874 243.886 392.148 243.616C392.422 243.346 392.769 243.164 393.147 243.092C393.524 243.02 393.914 243.062 394.268 243.212C394.622 243.362 394.923 243.614 395.134 243.935C395.345 244.257 395.456 244.634 395.452 245.018C395.36 245.477 395.107 245.887 394.739 246.176C394.371 246.464 393.912 246.611 393.445 246.59L393.494 246.946ZM419.102 242.086C418.538 242.082 417.987 242.246 417.516 242.557C417.046 242.868 416.678 243.311 416.46 243.831C416.241 244.351 416.182 244.924 416.288 245.478C416.395 246.031 416.664 246.541 417.06 246.942C417.456 247.343 417.962 247.618 418.514 247.731C419.066 247.844 419.639 247.791 420.161 247.578C420.683 247.365 421.13 247.002 421.445 246.535C421.761 246.068 421.931 245.517 421.935 244.953C421.976 244.552 421.931 244.146 421.805 243.762C421.678 243.379 421.472 243.026 421.2 242.728C420.928 242.43 420.596 242.193 420.226 242.032C419.856 241.871 419.457 241.79 419.053 241.794L419.102 242.086ZM419.102 246.946C418.833 246.971 418.562 246.939 418.306 246.853C418.05 246.767 417.815 246.629 417.615 246.446C417.416 246.264 417.257 246.042 417.148 245.795C417.039 245.548 416.982 245.28 416.982 245.01C416.982 244.74 417.039 244.473 417.148 244.225C417.257 243.978 417.416 243.756 417.615 243.574C417.815 243.392 418.05 243.253 418.306 243.167C418.562 243.081 418.833 243.049 419.102 243.074C419.371 243.049 419.642 243.081 419.898 243.167C420.154 243.253 420.389 243.392 420.588 243.574C420.788 243.756 420.947 243.978 421.056 244.225C421.165 244.473 421.221 244.74 421.221 245.01C421.221 245.28 421.165 245.548 421.056 245.795C420.947 246.042 420.788 246.264 420.588 246.446C420.389 246.629 420.154 246.767 419.898 246.853C419.642 246.939 419.371 246.971 419.102 246.946ZM444.71 242.086C444.146 242.082 443.595 242.246 443.124 242.557C442.654 242.868 442.286 243.311 442.068 243.831C441.849 244.351 441.79 244.924 441.896 245.478C442.003 246.031 442.272 246.541 442.668 246.942C443.064 247.343 443.57 247.618 444.122 247.731C444.674 247.844 445.247 247.791 445.769 247.578C446.291 247.365 446.738 247.002 447.054 246.535C447.369 246.068 447.539 245.517 447.543 244.953C447.586 244.551 447.544 244.144 447.418 243.76C447.293 243.375 447.087 243.021 446.815 242.723C446.542 242.424 446.209 242.186 445.838 242.026C445.467 241.866 445.066 241.787 444.661 241.794L444.71 242.086ZM444.71 246.946C444.326 246.943 443.951 246.826 443.634 246.61C443.316 246.393 443.069 246.088 442.925 245.731C442.781 245.375 442.746 244.983 442.824 244.607C442.902 244.23 443.09 243.886 443.364 243.616C443.638 243.346 443.986 243.164 444.363 243.092C444.741 243.02 445.131 243.062 445.484 243.212C445.838 243.362 446.139 243.614 446.35 243.935C446.561 244.257 446.672 244.634 446.669 245.018C446.579 245.478 446.327 245.891 445.958 246.18C445.59 246.468 445.129 246.614 444.661 246.59L444.71 246.946ZM355.082 222.885C354.517 222.879 353.964 223.04 353.492 223.349C353.019 223.658 352.649 224.1 352.428 224.619C352.207 225.139 352.145 225.712 352.25 226.267C352.355 226.822 352.622 227.333 353.018 227.736C353.413 228.139 353.919 228.415 354.471 228.529C355.024 228.644 355.598 228.591 356.121 228.379C356.643 228.167 357.091 227.804 357.408 227.336C357.724 226.869 357.895 226.318 357.898 225.753C357.952 225.347 357.917 224.935 357.797 224.543C357.677 224.152 357.474 223.791 357.202 223.485C356.931 223.179 356.596 222.935 356.222 222.77C355.847 222.605 355.442 222.523 355.033 222.529L355.082 222.885ZM355.082 227.746C354.696 227.749 354.318 227.638 353.996 227.425C353.674 227.213 353.423 226.909 353.274 226.553C353.125 226.197 353.085 225.805 353.159 225.426C353.234 225.048 353.419 224.7 353.692 224.427C353.964 224.154 354.312 223.969 354.69 223.894C355.069 223.82 355.461 223.859 355.816 224.009C356.172 224.158 356.475 224.41 356.687 224.732C356.899 225.054 357.011 225.432 357.008 225.818C356.909 226.262 356.657 226.657 356.295 226.932C355.934 227.208 355.487 227.347 355.033 227.325L355.082 227.746ZM380.69 222.885C380.126 222.882 379.574 223.046 379.104 223.357C378.634 223.668 378.266 224.111 378.048 224.631C377.829 225.151 377.769 225.724 377.876 226.277C377.983 226.831 378.251 227.341 378.648 227.742C379.044 228.143 379.55 228.417 380.102 228.531C380.654 228.644 381.227 228.591 381.749 228.378C382.271 228.165 382.718 227.802 383.033 227.335C383.349 226.868 383.519 226.317 383.522 225.753C383.573 225.346 383.537 224.933 383.415 224.542C383.293 224.151 383.088 223.79 382.815 223.484C382.542 223.179 382.207 222.935 381.832 222.771C381.457 222.606 381.051 222.523 380.641 222.529L380.69 222.885ZM380.69 227.746C380.305 227.746 379.929 227.632 379.609 227.417C379.289 227.203 379.04 226.898 378.894 226.542C378.747 226.186 378.709 225.794 378.786 225.416C378.862 225.039 379.049 224.692 379.322 224.421C379.595 224.15 379.943 223.966 380.321 223.893C380.699 223.82 381.09 223.86 381.444 224.01C381.799 224.16 382.101 224.412 382.313 224.733C382.524 225.055 382.635 225.433 382.632 225.818C382.53 226.263 382.274 226.658 381.91 226.934C381.546 227.209 381.097 227.348 380.641 227.325L380.69 227.746ZM370.589 127.435C370.301 127.553 370.02 127.689 369.747 127.84C369.764 127.98 369.764 128.121 369.747 128.261C369.748 128.774 369.55 129.267 369.197 129.638C369.117 129.732 369.024 129.814 368.922 129.881C368.709 130.023 368.473 130.127 368.225 130.189H367.821H367.432C367.184 130.127 366.949 130.023 366.736 129.881L366.623 129.784C366.382 129.955 366.155 130.145 365.943 130.351H366.04C366.243 130.527 366.472 130.67 366.72 130.772C367.044 130.902 367.391 130.968 367.74 130.967C367.979 130.965 368.218 130.938 368.452 130.886C368.904 130.772 369.32 130.55 369.666 130.238C369.842 130.094 369.995 129.925 370.119 129.735C370.439 129.256 370.609 128.692 370.605 128.115C370.672 127.748 370.65 127.37 370.54 127.013L370.589 127.435ZM394.449 129.946C394.273 130.051 394.082 130.127 393.882 130.173H393.494H393.105C392.857 130.111 392.622 130.007 392.409 129.865C392.306 129.798 392.214 129.716 392.134 129.622C391.956 129.445 391.813 129.236 391.713 129.006C391.66 128.886 391.617 128.761 391.584 128.634C391.576 128.504 391.576 128.374 391.584 128.245L390.726 127.791C390.701 127.963 390.701 128.138 390.726 128.31C390.722 128.886 390.891 129.451 391.211 129.93C391.336 130.119 391.489 130.289 391.665 130.432C392.01 130.744 392.427 130.967 392.879 131.08C393.113 131.132 393.351 131.159 393.591 131.161C394.218 131.158 394.827 130.947 395.323 130.562L394.449 129.946ZM406.265 222.934C405.703 222.937 405.155 223.107 404.689 223.421C404.223 223.736 403.86 224.181 403.646 224.702C403.433 225.222 403.378 225.794 403.488 226.346C403.599 226.898 403.87 227.404 404.267 227.802C404.665 228.2 405.171 228.471 405.722 228.582C406.273 228.692 406.844 228.637 407.364 228.423C407.884 228.209 408.329 227.846 408.644 227.38C408.958 226.913 409.127 226.364 409.13 225.802C409.191 225.395 409.163 224.98 409.049 224.585C408.934 224.19 408.735 223.824 408.466 223.513C408.197 223.202 407.864 222.953 407.49 222.783C407.115 222.613 406.709 222.527 406.298 222.529L406.265 222.934ZM406.265 227.795C405.881 227.791 405.507 227.674 405.189 227.458C404.871 227.242 404.625 226.936 404.481 226.579C404.337 226.223 404.302 225.832 404.38 225.455C404.458 225.079 404.646 224.734 404.92 224.464C405.194 224.195 405.541 224.012 405.919 223.94C406.296 223.869 406.686 223.91 407.04 224.06C407.394 224.21 407.695 224.462 407.906 224.784C408.116 225.105 408.227 225.482 408.224 225.867C408.117 226.293 407.868 226.67 407.518 226.935C407.167 227.201 406.737 227.338 406.298 227.325L406.265 227.795ZM431.906 222.934C431.343 222.934 430.793 223.101 430.325 223.413C429.857 223.726 429.491 224.17 429.275 224.691C429.059 225.211 429.002 225.783 429.111 226.336C429.219 226.889 429.489 227.397 429.886 227.796C430.282 228.196 430.789 228.469 431.34 228.58C431.892 228.692 432.464 228.638 432.985 228.425C433.506 228.211 433.952 227.848 434.267 227.382C434.582 226.915 434.752 226.365 434.755 225.802C434.816 225.389 434.787 224.969 434.669 224.569C434.55 224.169 434.346 223.8 434.07 223.488C433.793 223.176 433.452 222.928 433.07 222.763C432.688 222.597 432.274 222.517 431.857 222.529L431.906 222.934ZM431.906 227.795C431.521 227.795 431.145 227.68 430.825 227.466C430.505 227.252 430.256 226.947 430.11 226.591C429.963 226.234 429.926 225.843 430.002 225.465C430.078 225.087 430.265 224.741 430.538 224.47C430.811 224.199 431.159 224.015 431.537 223.941C431.915 223.868 432.306 223.909 432.66 224.059C433.015 224.208 433.317 224.46 433.529 224.782C433.74 225.104 433.852 225.481 433.848 225.867C433.737 226.303 433.477 226.687 433.114 226.953C432.751 227.219 432.307 227.35 431.857 227.325L431.906 227.795Z" fill="black"/>
<path d="M370.832 142.665C378.214 144.286 387.359 135.131 390.71 127.743C390.937 127.224 389.82 122.153 388.735 115.915C388.104 112.123 387.473 107.813 387.117 103.989L363.176 111.799C364.932 116.575 366.096 121.548 366.64 126.608C366.689 127.147 366.689 127.69 366.64 128.229C366.64 128.229 366.64 128.391 366.64 128.488C366.3 131.518 365.28 141.385 370.832 142.665Z" fill="#EB9481"/>
<path d="M363.176 111.799C364.924 116.577 366.087 121.55 366.64 126.608C366.699 127.147 366.699 127.69 366.64 128.229C366.632 128.32 366.632 128.413 366.64 128.504C367.474 128.584 368.314 128.584 369.149 128.504C383.992 126.738 385.87 109.352 386.113 104.459L363.176 111.799Z" fill="#263238"/>
<path d="M394.044 80.1065C394.999 89.1639 385.708 112.966 378.569 117.373C368.21 123.643 353.657 121.602 348.931 109.693C344.366 98.1564 357.024 67.3387 364.778 63.6607C376.19 58.1518 392.652 66.7392 394.044 80.1065Z" fill="#EB9481"/>
<path d="M388.654 102.077C385.66 109.045 381.872 115.25 378.57 117.259C368.21 123.514 353.658 121.488 348.947 109.579C346.066 102.32 349.999 87.4139 355.26 76.4447C358.368 69.9636 361.881 64.9569 364.746 63.5797C376.077 58.1679 392.62 66.8202 394.028 80.1227C394.546 84.9511 392.118 93.9761 388.654 102.077Z" fill="#EB9481"/>
<path d="M366.413 90.7354C366.413 90.7354 366.413 90.8488 366.413 90.9136C365.717 92.5339 365.167 94.381 366.413 95.499C364.746 94.5916 365.491 92.0802 366.413 90.7354Z" fill="#263238"/>
<path d="M368.501 89.6498C371.124 90.5085 369.197 95.6934 366.785 94.8833C364.374 94.0732 366.3 88.9207 368.501 89.6498Z" fill="#263238"/>
<path d="M357.008 87.2195C357.008 87.2195 356.846 87.2195 356.83 87.3005C356.28 88.9208 355.389 90.7031 353.738 90.6869V90.7841C355.584 91.1892 356.749 88.8398 357.008 87.2195Z" fill="#263238"/>
<path d="M356.118 84.9998C353.626 83.8656 351.505 88.9533 353.82 90.0227C356.135 91.092 358.287 85.972 356.118 84.9998Z" fill="#263238"/>
<path d="M370.687 87.9324C370.079 87.4769 369.496 86.9902 368.939 86.4742C368.255 86.0512 367.731 85.4128 367.449 84.6594C367.407 84.4052 367.449 84.1441 367.569 83.916C367.689 83.6879 367.88 83.5051 368.113 83.3956C368.609 83.2585 369.132 83.2552 369.63 83.3861C370.127 83.517 370.581 83.7775 370.946 84.141C371.778 84.7691 372.354 85.6791 372.565 86.701C372.595 86.9336 372.559 87.1701 372.462 87.3834C372.364 87.5966 372.208 87.7779 372.012 87.9065C371.816 88.0351 371.587 88.1057 371.353 88.1103C371.119 88.1149 370.888 88.0532 370.687 87.9324Z" fill="#263238"/>
<path d="M355.146 81.662C355.897 81.7785 356.654 81.8542 357.413 81.8888C358.191 82.0809 359.012 82.0068 359.744 81.6782C359.957 81.532 360.116 81.3189 360.195 81.0725C360.274 80.8261 360.269 80.5604 360.181 80.3171C359.934 79.8657 359.571 79.4882 359.13 79.2234C358.689 78.9586 358.186 78.816 357.672 78.8103C356.624 78.6411 355.552 78.8662 354.661 79.4422C354.469 79.5856 354.322 79.7813 354.239 80.0059C354.155 80.2306 354.138 80.4745 354.189 80.7087C354.24 80.9429 354.358 81.1573 354.528 81.3264C354.697 81.4954 354.912 81.6119 355.146 81.662Z" fill="#263238"/>
<path d="M362.868 105.512C362.399 105.836 361.913 106.322 361.25 106.274C360.63 106.157 360.04 105.914 359.518 105.561C359.518 105.561 359.404 105.561 359.421 105.561C359.606 105.933 359.89 106.247 360.24 106.47C360.591 106.693 360.996 106.815 361.412 106.825C361.779 106.799 362.13 106.663 362.418 106.435C362.707 106.207 362.92 105.896 363.03 105.545C363.063 105.512 362.933 105.464 362.868 105.512Z" fill="#263238"/>
<path d="M362.593 100.149C361.954 100.634 361.221 100.981 360.441 101.168C359.661 101.355 358.85 101.378 358.061 101.235C357.372 101.113 356.703 100.901 356.07 100.603C355.94 100.603 355.487 100.311 355.374 100.23C355.295 100.184 355.233 100.113 355.198 100.028C355.163 99.9431 355.156 99.8491 355.179 99.7603L356.539 96.3739C356.005 96.3739 353.302 96.6169 353.609 95.985C355.804 90.4674 358.56 85.19 361.832 80.2359C361.857 80.2105 361.889 80.1937 361.923 80.1881C361.958 80.1825 361.994 80.1884 362.025 80.2049C362.056 80.2213 362.081 80.2475 362.096 80.2795C362.111 80.3114 362.115 80.3473 362.108 80.3818C360.1 85.4856 357.251 90.2168 355.115 95.3045C356.073 95.2275 357.038 95.2875 357.98 95.4827C358.077 95.4827 356.199 99.5983 356.199 99.6307C357.17 100.104 358.226 100.378 359.305 100.436C360.384 100.495 361.463 100.337 362.48 99.9709C362.593 99.9061 362.69 100.052 362.593 100.149Z" fill="#263238"/>
<path d="M357.024 100.149C357.386 101.269 358.027 102.278 358.886 103.082C359.369 103.499 359.967 103.759 360.602 103.827C361.994 103.941 362.447 102.79 362.577 101.705C362.643 101.129 362.643 100.547 362.577 99.9709C360.793 100.627 358.846 100.69 357.024 100.149Z" fill="#263238"/>
<path d="M358.886 103.082C359.369 103.499 359.967 103.759 360.602 103.827C361.994 103.941 362.447 102.79 362.576 101.705C361.896 101.496 361.165 101.518 360.498 101.767C359.831 102.016 359.264 102.478 358.886 103.082Z" fill="#FF97B8"/>
<path d="M388.929 100.571C388.929 100.571 398.868 87.8353 399.046 79.8149C399.046 76.1855 394.53 73.1717 394.53 73.1717C395.082 71.7522 395.223 70.2057 394.936 68.7097C394.65 67.2137 393.948 65.8288 392.911 64.7139C389.156 60.2257 378.78 59.8531 378.78 59.8531C378.78 59.8531 373.292 49.4347 363.418 52.1243C353.544 54.814 358.4 66.2207 358.4 66.2207C358.4 66.2207 354.353 70.7089 362.334 75.5536C370.314 80.3982 387.343 78.6159 387.343 78.6159C385.866 84.3031 385.249 90.1798 385.514 96.0501C385.606 97.0471 385.975 97.9985 386.578 98.7971C387.182 99.5958 387.996 100.21 388.929 100.571Z" fill="#263238"/>
<path d="M377.161 59.8205C379.363 59.2112 381.667 59.0678 383.927 59.3992C385.958 59.6029 387.94 60.1508 389.787 61.0195C391.452 61.7167 392.896 62.8539 393.966 64.3094C395.035 65.765 395.689 67.4841 395.857 69.2829C395.891 70.2131 395.736 71.1405 395.402 72.0092C395.068 72.878 394.562 73.6702 393.915 74.3382C393.915 74.3382 393.785 74.3382 393.834 74.241C396.343 71.8106 395.695 67.4844 393.72 64.9568C391.255 62.2259 387.874 60.4962 384.219 60.0959C381.89 59.7719 379.53 59.7392 377.193 59.9987C377.178 59.9908 377.164 59.9794 377.153 59.9653C377.143 59.9513 377.136 59.935 377.133 59.9177C377.13 59.9004 377.13 59.8826 377.135 59.8658C377.14 59.8489 377.149 59.8334 377.161 59.8205Z" fill="#263238"/>
<path d="M356.118 55.8833C356.71 54.6888 357.584 53.6569 358.664 52.8775C359.745 52.0981 360.999 51.5948 362.318 51.4113C365.348 50.8761 368.469 51.3664 371.189 52.8048C373.919 54.266 376.211 56.4308 377.825 59.0752C377.825 59.0752 377.825 59.2049 377.728 59.0752C376.267 56.7411 374.205 54.8441 371.758 53.5839C369.311 52.3236 366.57 51.7466 363.824 51.9136C362.558 51.958 361.319 52.2868 360.198 52.8759C359.078 53.4649 358.104 54.299 357.349 55.3162C356.74 56.3696 356.37 57.5437 356.264 58.7558C356.157 59.9679 356.318 61.1886 356.734 62.332C357.837 65.055 359.682 67.4129 362.059 69.1372C362.059 69.1372 362.059 69.2506 362.059 69.1372C359.791 67.6582 357.928 65.6367 356.636 63.2556C356.04 62.1312 355.686 60.8942 355.597 59.6244C355.507 58.3546 355.685 57.0801 356.118 55.8833Z" fill="#263238"/>
<path d="M360.278 75.7964C363.85 77.7665 367.801 78.9488 371.868 79.2638C376.082 79.6475 380.326 79.5768 384.526 79.0531C386.97 78.7615 389.382 78.3726 391.843 77.9514C391.924 77.9514 391.94 78.0486 391.843 78.081C387.532 79.3491 383.099 80.153 378.618 80.479C374.461 80.7546 370.291 80.204 366.348 78.8587C364.18 78.1195 362.118 77.101 360.213 75.8288L360.278 75.7964Z" fill="#263238"/>
<path d="M363.936 100.117C362.213 99.1349 360.949 97.5078 360.424 95.5935C359.899 93.6792 360.155 91.6345 361.136 89.9092C361.828 88.6914 362.848 87.6926 364.08 87.0265C365.312 86.3603 366.705 86.0536 368.102 86.1411C369.499 86.2286 370.844 86.7069 371.983 87.5215C373.122 88.3361 374.01 89.4544 374.545 90.7491C375.081 92.0438 375.242 93.4629 375.012 94.845C374.781 96.2271 374.168 97.5166 373.241 98.567C372.314 99.6173 371.112 100.386 369.77 100.786C368.429 101.186 367.002 101.201 365.652 100.83C365.052 100.668 364.475 100.428 363.936 100.117ZM362.01 90.3953C361.375 91.5084 361.085 92.7848 361.175 94.0632C361.265 95.3416 361.732 96.5646 362.516 97.5775C363.301 98.5904 364.367 99.3479 365.582 99.7541C366.796 100.16 368.103 100.197 369.338 99.8596C370.574 99.5222 371.681 98.8258 372.521 97.8585C373.361 96.8912 373.895 95.6964 374.057 94.4251C374.218 93.1537 374 91.863 373.429 90.716C372.858 89.569 371.96 88.6172 370.848 87.981C370.381 87.7115 369.88 87.5045 369.359 87.3653C367.972 86.9809 366.496 87.0701 365.165 87.6188C363.834 88.1675 362.724 89.1444 362.01 90.3953Z" fill="#455A64"/>
<path d="M349.643 94.2514C346.746 93.2468 345.499 89.2448 346.859 85.3561C347.449 83.5787 348.581 82.0315 350.096 80.9327C350.715 80.4222 351.455 80.0802 352.245 79.9396C353.034 79.799 353.847 79.8646 354.603 80.1301C355.36 80.3957 356.036 80.8521 356.565 81.4554C357.094 82.0586 357.458 82.7883 357.623 83.5738C358.115 85.3745 358.03 87.2842 357.381 89.0341C356.086 92.7284 352.913 95.0129 350.129 94.3972C349.962 94.367 349.799 94.318 349.643 94.2514ZM350.647 81.7591C349.31 82.7352 348.314 84.1067 347.798 85.6801C346.616 89.0503 347.587 92.4853 349.967 93.3117C352.346 94.138 355.244 92.0802 356.442 88.7101C357.024 87.1535 357.103 85.4533 356.668 83.8492C356.529 83.2175 356.238 82.6292 355.821 82.1352C355.403 81.6411 354.872 81.2563 354.273 81.0137L353.9 80.9003C353.331 80.8091 352.748 80.8383 352.191 80.9863C351.633 81.1342 351.113 81.3974 350.663 81.7591H350.647Z" fill="#455A64"/>
<path d="M360.974 90.7355L361.864 90.2656C361.168 88.9532 359.226 86.782 356.798 87.9162L357.219 88.8236C359.453 87.8676 360.974 90.7355 360.974 90.7355Z" fill="#455A64"/>
<path d="M391.195 105.14L392.199 105.043C392.199 104.573 391.73 100.473 389.787 99.2906C387.845 98.1078 375.089 94.3163 374.539 94.1543L374.264 95.1103C377.954 96.2121 387.877 99.2906 389.269 100.149C390.661 101.008 391.098 104.006 391.195 105.14Z" fill="#455A64"/>
<path d="M382.422 100.117C382.422 100.117 389.674 93.3602 392.846 96.1147C396.019 98.8692 389.382 109.498 384.753 110.163C384.172 110.289 383.573 110.297 382.989 110.186C382.406 110.075 381.851 109.847 381.358 109.515C380.865 109.184 380.444 108.756 380.12 108.257C379.797 107.759 379.578 107.2 379.476 106.614L382.422 100.117Z" fill="#EB9481"/>
<path d="M390.872 99.1122V99.2256C387.635 99.7927 385.498 102.207 383.782 104.832C384.018 104.572 384.308 104.366 384.631 104.229C384.954 104.092 385.303 104.026 385.654 104.037C386.005 104.048 386.349 104.135 386.663 104.291C386.977 104.448 387.253 104.671 387.473 104.945C387.484 104.962 387.49 104.982 387.489 105.003C387.489 105.023 387.482 105.043 387.469 105.059C387.456 105.075 387.439 105.087 387.419 105.093C387.4 105.099 387.379 105.098 387.36 105.091C386.874 104.814 386.316 104.694 385.76 104.746C385.204 104.798 384.677 105.021 384.252 105.383C383.55 106.001 382.916 106.69 382.358 107.44C382.164 107.683 381.71 107.44 381.872 107.149C382.649 103.293 386.728 98.6261 390.872 99.1122Z" fill="#263238"/>
<path d="M366.623 127.791L371.123 142.682L390.548 126.074L395.096 132.36C395.096 132.36 375.056 159.727 375.073 158.414L370.217 145.452L360.974 153.359L363.596 131.761L366.623 127.791Z" fill="#EBEBEB"/>
<path d="M361.67 142.584C362.221 139.036 362.674 135.455 363.386 131.923C363.386 131.793 363.613 131.761 363.629 131.923C364.05 135.439 361.865 149.017 361.589 152.29C361.994 151.933 370.201 145.404 370.266 145.517C371.367 147.607 374.912 157.021 375.122 157.864C378.359 153.521 390.354 137.756 394.012 133.705C394.034 133.683 394.062 133.669 394.093 133.666C394.124 133.662 394.155 133.67 394.18 133.688C394.205 133.706 394.224 133.732 394.232 133.762C394.239 133.791 394.236 133.823 394.223 133.851C391.341 138.485 375.349 159.776 375.138 159.646C373.221 155.185 371.541 150.625 370.104 145.987C368.679 147.445 360.392 154.898 360.392 154.38C360.613 150.429 361.04 146.491 361.67 142.584Z" fill="#263238"/>
<path d="M385.514 158.463C374.491 157.831 315.747 152.144 303.057 139.992C284.166 121.91 275.053 92.3558 270.326 79.669C268.287 74.1438 304.886 56.8393 307.913 62.3644C314.388 74.1925 328.082 106.193 331.384 109.547C334.686 112.901 371.35 127.24 390.16 135.65C415.444 146.927 412.288 160.019 385.514 158.463Z" fill="#EB9481"/>
<path d="M307.556 65.5725C307.556 65.5725 308.722 49.3698 306.698 40.7013C304.367 31.7234 299.895 23.445 293.668 16.5753C287.015 9.15447 265.68 -4.19662 260.775 1.27992C256.324 6.25417 278.824 18.7789 278.824 18.7789C278.824 18.7789 257.991 2.21968 253.734 9.17067C249.477 16.1217 276.396 29.1973 276.396 29.1973C276.396 29.1973 254.641 12.6543 251.387 20.5126C248.926 26.459 272.657 39.6805 272.657 39.6805C272.657 39.6805 253.847 25.5841 251.047 31.5791C247.971 38.2223 269.112 51.8488 269.112 51.8488C264.579 68.3108 269.371 80.3657 273.806 84.8214C275.182 86.0853 307.556 65.5725 307.556 65.5725Z" fill="#EB9481"/>
<path d="M286.384 24.0448C284.02 22.0195 281.625 19.9455 279.083 18.1146C276.542 16.2837 273.92 14.5824 271.2 12.9621C267.703 10.8416 263.978 9.12402 260.096 7.84204C266.83 10.6127 276.056 16.9804 278.598 18.7951C281.139 20.6098 283.778 22.2949 286.319 24.0934C286.384 24.1906 286.513 24.0934 286.384 24.0448Z" fill="#263238"/>
<path d="M280.038 33.3776C276.898 30.9147 273.854 28.3547 270.601 26.0215C267.347 23.6883 264.126 21.7926 260.694 19.7024C260.435 19.5404 260.435 19.7024 260.694 19.9131C263.932 22.1328 266.878 24.4336 270.164 26.702C273.45 28.9704 276.8 31.093 279.989 33.4586C280.038 33.491 280.038 33.41 280.038 33.3776Z" fill="#263238"/>
<path d="M275.959 42.3702C271.21 38.4647 266.067 35.0653 260.614 32.2273C260.355 32.0814 260.371 32.3245 260.614 32.5027C265.762 35.7433 269.825 38.3033 275.749 42.5322C275.911 42.597 276.057 42.4512 275.959 42.3702Z" fill="#263238"/>
<path d="M266.797 88.9207L311.053 65.5239C311.053 65.5239 328.13 104.184 331.707 108.04C335.285 111.896 389.123 132.263 401.199 141.077C413.275 149.892 409.924 158.706 394.093 159.549C378.262 160.391 315.65 152.306 304.319 143.119C292.988 133.932 266.797 88.9207 266.797 88.9207Z" fill="#FECF00"/>
<path opacity="0.1" d="M369.845 125.847C369.712 125.719 369.572 125.6 369.424 125.49C368.947 125.167 368.382 124.998 367.805 125.004C367.228 124.993 366.662 125.163 366.187 125.49C366.039 125.6 365.899 125.719 365.766 125.847C365.503 126.107 365.294 126.418 365.153 126.76C365.011 127.102 364.939 127.469 364.94 127.84C364.937 128.416 365.106 128.981 365.426 129.46C365.546 129.653 365.7 129.823 365.879 129.962C366.046 130.119 366.231 130.255 366.43 130.367C366.629 130.475 366.841 130.556 367.061 130.61C367.287 130.676 367.521 130.708 367.757 130.708C367.998 130.708 368.237 130.676 368.469 130.61C368.921 130.497 369.337 130.274 369.683 129.962C369.859 129.819 370.012 129.65 370.136 129.46C370.456 128.981 370.626 128.416 370.622 127.84C370.633 127.472 370.57 127.107 370.436 126.764C370.303 126.422 370.102 126.11 369.845 125.847ZM369.198 129.217C369.118 129.311 369.025 129.393 368.922 129.46C368.71 129.602 368.474 129.706 368.226 129.768H367.822H367.433C367.185 129.706 366.95 129.602 366.737 129.46C366.634 129.393 366.542 129.311 366.462 129.217C366.284 129.04 366.141 128.831 366.041 128.601C365.988 128.481 365.945 128.356 365.912 128.229C365.904 128.099 365.904 127.969 365.912 127.84C365.908 127.585 365.958 127.332 366.058 127.097C366.158 126.863 366.307 126.652 366.494 126.479C366.756 126.206 367.095 126.019 367.466 125.944H367.854H368.259C368.691 126.037 369.079 126.276 369.356 126.622C369.633 126.967 369.783 127.397 369.78 127.84C369.772 128.357 369.563 128.851 369.198 129.217ZM355.034 144.658C354.47 144.652 353.916 144.813 353.444 145.122C352.972 145.431 352.601 145.873 352.38 146.392C352.159 146.912 352.097 147.485 352.202 148.04C352.307 148.595 352.574 149.106 352.97 149.509C353.365 149.912 353.871 150.188 354.424 150.302C354.976 150.417 355.55 150.364 356.073 150.152C356.596 149.94 357.044 149.577 357.36 149.109C357.676 148.642 357.847 148.091 357.85 147.526C357.855 146.773 357.561 146.048 357.033 145.511C356.505 144.973 355.787 144.667 355.034 144.658ZM355.034 149.519C354.644 149.526 354.262 149.416 353.935 149.203C353.609 148.991 353.352 148.686 353.2 148.328C353.047 147.969 353.005 147.573 353.078 147.19C353.151 146.807 353.336 146.455 353.611 146.178C353.885 145.902 354.235 145.713 354.617 145.636C354.999 145.56 355.395 145.599 355.755 145.749C356.114 145.899 356.421 146.153 356.635 146.478C356.85 146.803 356.963 147.185 356.96 147.575C356.952 148.081 356.745 148.563 356.385 148.917C356.024 149.272 355.539 149.471 355.034 149.47V149.519ZM380.642 144.658C380.078 144.655 379.527 144.819 379.056 145.13C378.586 145.441 378.218 145.884 378 146.404C377.781 146.924 377.722 147.497 377.828 148.05C377.935 148.604 378.204 149.114 378.6 149.515C378.996 149.916 379.502 150.19 380.054 150.304C380.606 150.417 381.179 150.364 381.701 150.151C382.223 149.938 382.67 149.575 382.986 149.108C383.301 148.641 383.471 148.09 383.475 147.526C383.475 146.771 383.177 146.047 382.647 145.51C382.117 144.973 381.396 144.667 380.642 144.658ZM380.642 149.519C380.253 149.522 379.872 149.41 379.548 149.195C379.223 148.981 378.97 148.675 378.819 148.316C378.669 147.957 378.629 147.562 378.704 147.18C378.779 146.798 378.966 146.447 379.241 146.172C379.516 145.897 379.866 145.71 380.248 145.635C380.629 145.56 381.024 145.6 381.383 145.75C381.741 145.901 382.047 146.155 382.261 146.479C382.475 146.804 382.588 147.186 382.584 147.575C382.568 148.081 382.356 148.56 381.994 148.914C381.632 149.267 381.148 149.467 380.642 149.47V149.519ZM329.426 144.658C328.862 144.655 328.31 144.819 327.84 145.13C327.37 145.441 327.002 145.884 326.784 146.404C326.565 146.924 326.505 147.497 326.612 148.05C326.719 148.604 326.987 149.114 327.384 149.515C327.78 149.916 328.286 150.19 328.838 150.304C329.39 150.417 329.963 150.364 330.485 150.151C331.007 149.938 331.454 149.575 331.769 149.108C332.085 148.641 332.255 148.09 332.258 147.526C332.258 146.771 331.961 146.047 331.431 145.51C330.9 144.973 330.18 144.667 329.426 144.658ZM329.426 149.519C329.155 149.544 328.881 149.512 328.623 149.425C328.365 149.338 328.128 149.198 327.927 149.015C327.726 148.831 327.566 148.607 327.456 148.358C327.346 148.109 327.289 147.839 327.289 147.567C327.289 147.294 327.346 147.025 327.456 146.775C327.566 146.526 327.726 146.302 327.927 146.119C328.128 145.935 328.365 145.795 328.623 145.708C328.881 145.622 329.155 145.589 329.426 145.614C329.912 145.659 330.365 145.884 330.694 146.245C331.024 146.606 331.206 147.078 331.206 147.567C331.206 148.056 331.024 148.527 330.694 148.889C330.365 149.25 329.912 149.475 329.426 149.519ZM407.917 148.563C407.741 148.835 407.502 149.059 407.22 149.217C406.938 149.375 406.622 149.462 406.299 149.47C405.789 149.462 405.303 149.253 404.946 148.89C404.589 148.526 404.388 148.036 404.388 147.526C404.379 147.038 404.556 146.564 404.884 146.203C405.212 145.841 405.666 145.619 406.153 145.582C405.959 145.323 405.732 145.063 405.505 144.804C405.095 144.93 404.718 145.147 404.404 145.44C404.089 145.733 403.846 146.094 403.691 146.495C403.536 146.896 403.475 147.327 403.511 147.755C403.547 148.183 403.68 148.598 403.9 148.967C404.12 149.336 404.421 149.651 404.78 149.887C405.139 150.122 405.547 150.273 405.973 150.328C406.399 150.383 406.832 150.34 407.239 150.203C407.646 150.065 408.016 149.837 408.322 149.535C408.16 149.222 408.025 148.898 407.917 148.563ZM316.622 86.0528C316.06 86.056 315.511 86.2256 315.045 86.5401C314.579 86.8547 314.216 87.3003 314.003 87.8207C313.789 88.3411 313.734 88.9131 313.844 89.4648C313.955 90.0164 314.226 90.5231 314.623 90.9209C315.021 91.3187 315.527 91.59 316.078 91.7005C316.629 91.8111 317.201 91.756 317.721 91.5422C318.24 91.3283 318.686 90.9653 319 90.4989C319.314 90.0324 319.484 89.4833 319.487 88.9207C319.491 88.5401 319.419 88.1625 319.275 87.8104C319.13 87.4583 318.916 87.1389 318.646 86.8713C318.376 86.6037 318.054 86.3933 317.701 86.2527C317.347 86.1121 316.969 86.0441 316.589 86.0528H316.622ZM316.622 90.9136C316.139 90.8694 315.691 90.6463 315.364 90.2881C315.037 89.9298 314.856 89.4624 314.856 88.9774C314.856 88.4924 315.037 88.025 315.364 87.6667C315.691 87.3085 316.139 87.0854 316.622 87.0412C316.89 87.0165 317.162 87.0483 317.418 87.1344C317.673 87.2205 317.909 87.359 318.108 87.5412C318.308 87.7234 318.467 87.9452 318.576 88.1925C318.685 88.4398 318.741 88.7071 318.741 88.9774C318.741 89.2477 318.685 89.515 318.576 89.7623C318.467 90.0096 318.308 90.2314 318.108 90.4136C317.909 90.5958 317.673 90.7343 317.418 90.8204C317.162 90.9065 316.89 90.9383 316.622 90.9136ZM291.013 86.0528C290.451 86.056 289.903 86.2256 289.437 86.5401C288.971 86.8547 288.608 87.3003 288.395 87.8207C288.181 88.3411 288.126 88.9131 288.236 89.4648C288.347 90.0164 288.618 90.5231 289.015 90.9209C289.413 91.3187 289.919 91.59 290.47 91.7005C291.021 91.8111 291.593 91.756 292.112 91.5422C292.632 91.3283 293.077 90.9653 293.392 90.4989C293.706 90.0324 293.875 89.4833 293.879 88.9207C293.881 88.5407 293.807 88.1641 293.662 87.8131C293.517 87.462 293.303 87.1435 293.033 86.8763C292.763 86.6092 292.442 86.3987 292.09 86.2573C291.738 86.1158 291.361 86.0463 290.981 86.0528H291.013ZM291.013 90.9136C290.531 90.8694 290.082 90.6463 289.756 90.2881C289.429 89.9298 289.248 89.4624 289.248 88.9774C289.248 88.4924 289.429 88.025 289.756 87.6667C290.082 87.3085 290.531 87.0854 291.013 87.0412C291.282 87.0165 291.553 87.0483 291.809 87.1344C292.065 87.2205 292.301 87.359 292.5 87.5412C292.699 87.7234 292.859 87.9452 292.968 88.1925C293.077 88.4398 293.133 88.7071 293.133 88.9774C293.133 89.2477 293.077 89.515 292.968 89.7623C292.859 90.0096 292.699 90.2314 292.5 90.4136C292.301 90.5958 292.065 90.7343 291.809 90.8204C291.553 90.9065 291.282 90.9383 291.013 90.9136ZM268.173 88.2726L267.332 88.7263C267.34 88.8125 267.34 88.8993 267.332 88.9855C267.331 89.2184 267.287 89.4492 267.202 89.666C267.348 89.9091 267.526 90.2169 267.753 90.5734C268.088 90.1006 268.264 89.5329 268.254 88.9531C268.253 88.7005 268.215 88.4494 268.141 88.2078L268.173 88.2726ZM306.181 68.0515L305.371 68.489C305.619 68.8148 305.75 69.2141 305.744 69.6232C305.74 70.136 305.533 70.6264 305.169 70.9876C304.805 71.3487 304.314 71.5513 303.801 71.5513C303.405 71.5487 303.019 71.4268 302.692 71.2014C302.366 70.976 302.115 70.6576 301.972 70.2875L301.179 70.7088C301.435 71.3118 301.89 71.8084 302.469 72.1149C303.047 72.4214 303.713 72.5192 304.355 72.3918C304.997 72.2644 305.576 71.9196 305.994 71.4154C306.412 70.9112 306.644 70.2783 306.65 69.6232C306.649 69.0649 306.486 68.5189 306.181 68.0515ZM342.214 124.972C341.654 124.975 341.108 125.144 340.644 125.458C340.18 125.771 339.82 126.215 339.608 126.733C339.396 127.252 339.342 127.821 339.453 128.37C339.564 128.919 339.836 129.423 340.232 129.818C340.629 130.213 341.134 130.481 341.683 130.59C342.232 130.698 342.801 130.641 343.317 130.425C343.834 130.21 344.276 129.847 344.586 129.381C344.897 128.915 345.062 128.367 345.062 127.807C345.054 127.058 344.749 126.343 344.216 125.818C343.682 125.292 342.962 125 342.214 125.004V124.972ZM342.214 129.833C341.7 129.824 341.21 129.614 340.849 129.247C340.489 128.88 340.287 128.387 340.287 127.872C340.287 127.357 340.492 126.862 340.856 126.497C341.22 126.133 341.715 125.928 342.23 125.928C342.745 125.928 343.239 126.133 343.603 126.497C343.968 126.862 344.172 127.357 344.172 127.872C344.164 128.387 343.954 128.877 343.587 129.238C343.221 129.598 342.727 129.8 342.214 129.8V129.833ZM369.845 125.879C369.712 125.752 369.572 125.633 369.424 125.523C368.947 125.2 368.382 125.03 367.805 125.037C367.228 125.026 366.662 125.196 366.187 125.523C366.039 125.633 365.899 125.752 365.766 125.879C365.503 126.14 365.294 126.45 365.153 126.793C365.011 127.135 364.939 127.502 364.94 127.872C364.937 128.449 365.106 129.013 365.426 129.492C365.546 129.685 365.7 129.855 365.879 129.995C366.046 130.151 366.231 130.287 366.43 130.4C366.629 130.507 366.841 130.589 367.061 130.643C367.289 130.695 367.523 130.722 367.757 130.724C367.996 130.722 368.235 130.695 368.469 130.643C368.921 130.529 369.337 130.307 369.683 129.995C369.859 129.851 370.012 129.682 370.136 129.492C370.456 129.013 370.626 128.449 370.622 127.872C370.637 127.499 370.576 127.127 370.442 126.779C370.309 126.431 370.106 126.114 369.845 125.847V125.879ZM369.198 129.249C369.118 129.343 369.025 129.425 368.922 129.492C368.71 129.634 368.474 129.738 368.226 129.8H367.822H367.433C367.185 129.738 366.95 129.634 366.737 129.492C366.634 129.425 366.542 129.343 366.462 129.249C366.284 129.073 366.141 128.864 366.041 128.634C365.988 128.513 365.945 128.388 365.912 128.261C365.904 128.132 365.904 128.002 365.912 127.872C365.908 127.617 365.958 127.364 366.058 127.129C366.158 126.895 366.307 126.684 366.494 126.511C366.756 126.238 367.095 126.052 367.466 125.976H367.854H368.259C368.691 126.069 369.079 126.309 369.356 126.654C369.633 126.999 369.783 127.429 369.78 127.872C369.764 128.378 369.555 128.859 369.198 129.217V129.249ZM367.822 126.009C367.693 125.993 367.562 125.993 367.433 126.009H367.822H368.226C368.097 125.954 367.961 125.915 367.822 125.895V126.009ZM316.557 125.118C315.997 125.121 315.451 125.29 314.987 125.603C314.524 125.917 314.163 126.361 313.951 126.879C313.739 127.398 313.686 127.967 313.797 128.516C313.908 129.065 314.179 129.569 314.576 129.964C314.972 130.359 315.477 130.627 316.026 130.735C316.575 130.843 317.144 130.786 317.661 130.571C318.177 130.356 318.619 129.993 318.929 129.527C319.24 129.061 319.406 128.513 319.406 127.953C319.421 127.57 319.359 127.188 319.222 126.829C319.086 126.471 318.878 126.144 318.612 125.869C318.345 125.593 318.026 125.374 317.673 125.226C317.32 125.077 316.94 125.002 316.557 125.004V125.118ZM316.557 129.979C316.042 129.97 315.55 129.76 315.187 129.394C314.824 129.028 314.619 128.534 314.614 128.018C314.614 127.502 314.819 127.008 315.183 126.643C315.548 126.279 316.042 126.074 316.557 126.074C316.812 126.071 317.065 126.12 317.3 126.218C317.536 126.315 317.75 126.458 317.93 126.639C318.109 126.82 318.251 127.036 318.346 127.273C318.441 127.509 318.487 127.763 318.483 128.018C318.446 128.504 318.227 128.957 317.87 129.288C317.513 129.619 317.043 129.802 316.557 129.8V129.979ZM290.916 125.118C290.499 125.112 290.087 125.213 289.718 125.409L290.22 126.138C290.443 126.054 290.678 126.01 290.916 126.009C291.295 126.001 291.667 126.103 291.988 126.304C292.309 126.505 292.565 126.796 292.723 127.14C292.881 127.484 292.935 127.868 292.879 128.242C292.823 128.617 292.658 128.967 292.406 129.249L292.94 129.995C293.206 129.736 293.418 129.426 293.563 129.084C293.708 128.742 293.782 128.374 293.781 128.002C293.801 127.614 293.742 127.226 293.607 126.862C293.471 126.498 293.263 126.165 292.995 125.885C292.727 125.604 292.404 125.381 292.046 125.23C291.689 125.078 291.304 125.002 290.916 125.004V125.118ZM332.242 108.558C332.044 108.426 331.86 108.274 331.692 108.105C331.123 107.422 330.624 106.684 330.203 105.901C329.96 105.81 329.701 105.766 329.442 105.772C328.874 105.765 328.318 105.929 327.844 106.241C327.37 106.554 327 107.001 326.781 107.525C326.562 108.049 326.505 108.627 326.617 109.184C326.728 109.741 327.004 110.252 327.407 110.651C327.811 111.051 328.325 111.32 328.882 111.425C329.44 111.531 330.017 111.467 330.538 111.242C331.059 111.017 331.501 110.642 331.808 110.163C332.114 109.685 332.271 109.126 332.258 108.558C332.253 108.558 332.248 108.558 332.242 108.558ZM329.426 110.6C329.155 110.625 328.881 110.593 328.623 110.506C328.365 110.419 328.128 110.279 327.927 110.095C327.726 109.912 327.566 109.688 327.456 109.439C327.346 109.19 327.289 108.92 327.289 108.648C327.289 108.375 327.346 108.106 327.456 107.856C327.566 107.607 327.726 107.383 327.927 107.2C328.128 107.016 328.365 106.876 328.623 106.789C328.881 106.702 329.155 106.67 329.426 106.695C329.912 106.74 330.365 106.964 330.694 107.326C331.024 107.687 331.206 108.158 331.206 108.648C331.206 109.137 331.024 109.608 330.694 109.969C330.365 110.331 329.912 110.556 329.426 110.6ZM303.801 105.739C303.236 105.739 302.684 105.907 302.215 106.222C301.746 106.537 301.381 106.984 301.166 107.507C300.952 108.03 300.897 108.605 301.01 109.159C301.122 109.713 301.397 110.221 301.799 110.619C302.2 111.016 302.711 111.285 303.266 111.392C303.82 111.498 304.394 111.437 304.914 111.216C305.434 110.995 305.877 110.625 306.186 110.152C306.495 109.678 306.657 109.124 306.65 108.558C306.65 107.802 306.35 107.077 305.816 106.542C305.282 106.007 304.557 105.707 303.801 105.707V105.739ZM303.801 110.6C303.53 110.625 303.257 110.593 302.999 110.506C302.741 110.419 302.504 110.279 302.303 110.095C302.102 109.912 301.941 109.688 301.831 109.439C301.722 109.19 301.665 108.92 301.665 108.648C301.665 108.375 301.722 108.106 301.831 107.856C301.941 107.607 302.102 107.383 302.303 107.2C302.504 107.016 302.741 106.876 302.999 106.789C303.257 106.702 303.53 106.67 303.801 106.695C304.288 106.74 304.74 106.964 305.07 107.326C305.399 107.687 305.582 108.158 305.582 108.648C305.582 109.137 305.399 109.608 305.07 109.969C304.74 110.331 304.288 110.556 303.801 110.6ZM278.193 105.739C277.81 105.739 277.43 105.816 277.076 105.966L277.562 106.76C277.766 106.694 277.979 106.661 278.193 106.663C278.563 106.673 278.923 106.789 279.229 106.998C279.536 107.206 279.776 107.498 279.923 107.838C280.069 108.179 280.115 108.554 280.055 108.92C279.995 109.286 279.832 109.627 279.585 109.903L280.071 110.665C280.371 110.402 280.611 110.078 280.776 109.715C280.94 109.352 281.026 108.957 281.026 108.558C281.026 107.805 280.728 107.082 280.197 106.548C279.667 106.013 278.946 105.711 278.193 105.707V105.739Z" fill="black"/>
<path d="M312.251 78C306.359 81.3864 281.754 94.3324 276.25 96.7629C275.878 96.9411 275.668 96.7629 276.04 96.5036C287.622 89.447 299.672 83.189 312.105 77.7732C312.251 77.7732 312.413 77.919 312.251 78Z" fill="#263238"/>
<path d="M354.807 156.195C364.988 156.713 375.559 158.123 385.659 159.435C375.282 159.606 364.923 158.518 354.807 156.195Z" fill="#263238"/>
<path d="M377.631 158.998C379.703 159.484 381.645 160.181 383.669 160.813C381.547 160.66 379.486 160.04 377.631 158.998Z" fill="#263238"/>
<path d="M390.759 135.164C392.935 135.996 395.005 137.084 396.926 138.404C394.748 137.575 392.678 136.487 390.759 135.164Z" fill="#263238"/>
</svg>
